<svg xmlns="http://www.w3.org/2000/svg">
<defs>
<font id="UTMBienvenue" horiz-adv-x="1712" >
  <font-face 
    font-family="UTM Bienvenue"
    font-weight="400"
    font-stretch="normal"
    units-per-em="2048"
    panose-1="2 4 6 3 5 5 6 2 2 4"
    ascent="1638"
    descent="-410"
    x-height="1026"
    cap-height="1520"
    bbox="-36 -485.003 4942 2486"
    underline-thickness="109"
    underline-position="-143"
    unicode-range="U+0020-U+2026"
  />
<missing-glyph horiz-adv-x="5040" 
d="M3351 2045h10c24.667 -6.66699 37 -24 37 -52c0 -8 -10.667 -27 -32 -57h-28c0 16 9.33301 34 28 54l2 10c-3.33301 8.66699 -6.66602 13.667 -10 15h-9c-5.33301 0 -8.66602 -6.33301 -10 -19h-30c4 32.667 18 49 42 49zM2019 2016l29.001 -31
c0 -10.667 -13.333 -20.667 -40 -30h-19l-59 12l-11 -12l-28 25c7.33301 19.333 21.666 29 42.999 29h11l42 -11h2c6.66699 0 16.667 6 30 18zM468.001 1980h142v-60h-94v-75h89v-59h-89v-129l-5 -5h-49v323zM1155 1980h43l6 -5v-78h30v-52h-30v-188l-6 -5h-49v193h-25v52
h25v78zM1621 1980h41.999l4 -5v-94h3c15.333 16 33.333 24 54 24h2c38.667 0 66.334 -23.667 83.001 -71l2 -39v-143h-52v115c0 53.333 -14 80 -42 80h-7c-28.667 0 -43 -28.667 -43 -86v-109h-51v323zM2200 1980l49 -0.000976562l5 -5v-222c6.66699 -34 21.667 -51 45 -51
c29.333 4.66699 44 24.334 44 59.001v214l5 5h49v-216c0 -56.667 -22 -94 -66 -112c-10 -5.33301 -21.667 -8 -35 -8c-31.333 0 -58.666 18.333 -82 55c-9.33301 16 -14 35 -14 57v224zM2435 1980h159v-60h-56v-268h-53v268h-55v55zM2621 1980l71 0.000976562
c4.66699 -2.66699 32.334 -86.334 83 -251.001h2l80 251h73v-328h-54v242h-2l-74 -242h-44c-2.66699 0 -22 60.667 -58 182l-19 60h-3v-242h-55v328zM3760 1980l52 -0.000976562v-328h-45l-5 5v11l3 2l-3 14c-19.333 -26.667 -45.333 -40 -78 -40
c-44.667 0 -78 30.333 -100 91l-5 39v3c0 62.667 30.667 104.334 92 125.001l23 3c23.333 0 44.333 -10.667 63 -32h3v107zM2057 1928l36 0.00195312l4 -6v-49h-45v-221h-48v23c-15.333 -20.667 -35 -31 -59 -31c-59.333 9.33301 -89 41.666 -89 96.999v156h51v-104

<glyph glyph-name=".notdef" horiz-adv-x="5040" 
d="M3351 2045h10c24.667 -6.66699 37 -24 37 -52c0 -8 -10.667 -27 -32 -57h-28c0 16 9.33301 34 28 54l2 10c-3.33301 8.66699 -6.66602 13.667 -10 15h-9c-5.33301 0 -8.66602 -6.33301 -10 -19h-30c4 32.667 18 49 42 49zM2019 2016l29.001 -31
c0 -10.667 -13.333 -20.667 -40 -30h-19l-59 12l-11 -12l-28 25c7.33301 19.333 21.666 29 42.999 29h11l42 -11h2c6.66699 0 16.667 6 30 18zM468.001 1980h142v-60h-94v-75h89v-59h-89v-129l-5 -5h-49v323zM1155 1980h43l6 -5v-78h30v-52h-30v-188l-6 -5h-49v193h-25v52
h25v78zM1621 1980h41.999l4 -5v-94h3c15.333 16 33.333 24 54 24h2c38.667 0 66.334 -23.667 83.001 -71l2 -39v-143h-52v115c0 53.333 -14 80 -42 80h-7c-28.667 0 -43 -28.667 -43 -86v-109h-51v323zM2200 1980l49 -0.000976562l5 -5v-222c6.66699 -34 21.667 -51 45 -51
c29.333 4.66699 44 24.334 44 59.001v214l5 5h49v-216c0 -56.667 -22 -94 -66 -112c-10 -5.33301 -21.667 -8 -35 -8c-31.333 0 -58.666 18.333 -82 55c-9.33301 16 -14 35 -14 57v224zM2435 1980h159v-60h-56v-268h-53v268h-55v55zM2621 1980l71 0.000976562
c4.66699 -2.66699 32.334 -86.334 83 -251.001h2l80 251h73v-328h-54v242h-2l-74 -242h-44c-2.66699 0 -22 60.667 -58 182l-19 60h-3v-242h-55v328zM3760 1980l52 -0.000976562v-328h-45l-5 5v11l3 2l-3 14c-19.333 -26.667 -45.333 -40 -78 -40
c-44.667 0 -78 30.333 -100 91l-5 39v3c0 62.667 30.667 104.334 92 125.001l23 3c23.333 0 44.333 -10.667 63 -32h3v107zM2057 1928l36 0.00195312l4 -6v-49h-45v-221h-48v23c-15.333 -20.667 -35 -31 -59 -31c-59.333 9.33301 -89 41.666 -89 96.999v156h51v-104
c0 -52.667 8.66699 -81.334 26 -86.001l18 -5h6c17.333 0 30.333 12 39 36l3 26v133h53v25zM3476 1928v-55h-31v-221h-47v25h-2c-10 -22 -29 -33 -57 -33c-45.333 0 -74 26 -86 78l-3 29v146h52v-120c0 -33.333 6.33301 -56 19 -68l21 -7h9c28 0 42 23 42 69v126h27
c2.66699 0 4 9.33301 4 28l3 3h49zM758 1905c45.333 0 79.667 -25.667 103 -77c6 -12 10 -30 12 -54c0 -58.667 -30 -101 -90 -127l-32 -3c-42 0 -75.667 24.333 -101 73c-8 14.667 -12 32 -12 52v10c0 62.667 33.667 104.667 101 126h19zM1011 1905h3
c49.333 0 77 -33.667 83 -101v-152h-51v119c0 50.667 -14 76 -42 76h-5c-29.333 0 -44 -25.333 -44 -76v-119h-52v245h46v-21c20 19.333 40.667 29 62 29zM1466 1905l7 -0.000976562c48 0 83 -29.667 105 -89h-60c-10.667 20.667 -24.667 31 -42 31h-17
c-35.333 -9.33301 -53 -29.666 -53 -60.999l-3 -15c8 -46 28.333 -69 61 -69h9c14.667 0 30.334 9 47.001 27h40l2 3h3l2 -3l2 3l3 -3l2 3l2 -7c-22 -54 -58.667 -81 -110 -81c-50.667 0 -87.334 31.333 -110.001 94l-4 36v3c0 56.667 25.667 96.667 77 120
c10 5.33301 22.333 8 37 8zM3141 1905h1.99902c32.667 0 56 -20 70 -60v-14h-52c0 10.667 -5.33301 16 -16 16h-4c-9.33301 0 -15.666 -4.33301 -18.999 -13v-13c0 -6 22.667 -17.667 68 -35c20 -12.667 30 -32.334 30 -59.001c0 -38.667 -20.333 -65.334 -61 -80.001
l-23 -3c-50.667 8 -76 35.667 -76 83h54c0 -13.333 9 -21.666 27 -24.999h4c12.667 0 20.667 7.66699 24 23c0 14.667 -22.667 29.334 -68 44.001c-22.667 18 -34 37.667 -34 59c0 44 24.667 69.667 74 77zM4203 1905c36.666 0 62.333 -21 77 -63
c4.66602 -12 7 -33.667 7 -65v-125h-52v112c0 55.333 -13.334 83 -40 83h-11c-22 0 -35.334 -18 -40 -54v-141h-52v5h-2l2 2v238h47v-21c16.666 19.333 38 29 64 29zM4432 1905h5c26.666 0 49.666 -13.333 69 -40v18l-3 3l3 11h47v-208c0 -64.667 -28.334 -108.667 -85 -132
l-33 -4h-7c-46.666 0 -81.333 26.667 -104 80h59c16 -14.667 31 -22.334 45 -23.001h13c14.666 0 29 7.33301 43 22c10 8.66699 17.334 26 22 52h-3c-21.334 -26.667 -45.667 -40 -73 -40c-38 0 -70 23.333 -96 70c-6.66602 12 -11.333 33 -14 63
c0 58.667 29 100.334 87 125.001zM3851 1897l53 -0.000976562v-136c4 -39.333 17.333 -59 40 -59h7c30.667 0 46 31 46 93v102h51v-245h-47l-3 10h3l-3 3v5l3 2v3h-4c0 -15.333 -19 -25.666 -57 -30.999h-3c-39.333 0 -67.333 25 -84 75l-2 85v93zM690 1771
c6.66699 -46 27.6689 -69 63.002 -69h7c39.333 9.33301 59 31 59 65v15c-8.66699 43.333 -28.334 65 -59.001 65h-5c-38.667 0 -60.334 -25.333 -65.001 -76zM3630 1774c8.66699 -48 29 -72 61 -72h5c38.667 0 60.667 25 66 75c0 32.667 -17 56 -51 70h-22
c-24.667 0 -43.334 -19 -56 -57zM4374 1774c5.33398 -48 27 -71.999 65 -71.999h5c39.334 8 59 32 59 72c0 40.667 -19.666 65 -59 73h-14c-37.334 -10.667 -56 -31.334 -56 -62.001v-11zM3928 1620h52v-57h-52v57zM1054 1402c28.667 -7.33301 43 -23.667 43 -49v-4
c0 -11.333 -10.667 -31.333 -32 -60h-28c0 16.667 10.333 35.667 31 57v7c0 8 -2.33301 13 -7 15h-12c-6.66699 -2.66699 -10 -9 -10 -19h-28v6c0 21.333 11 36 33 44zM3349 1339c61.333 0 107.333 -33.001 138 -99.001h-60c-24.667 28 -51.334 42 -80 42
c-36.667 0 -65.667 -22.667 -87 -68c-6.66699 -14.667 -10 -30.334 -10 -47.001c0 -52 27 -88.667 81 -110l18 -1c24 0 49 13 75 39h61c-29.333 -64.667 -75.333 -97 -138 -97c-62 0 -109 37.333 -141 112c-6.66699 20.667 -10 41.334 -10 62.001
c0 64.667 30 115.334 90 152.001c19.333 10 40.333 15 63 15zM3664 1339c38 0 72.333 -15.666 103 -46.999c30.667 -34 46 -72.333 46 -115v-20c0 -59.333 -30.333 -108 -91 -146c-22 -8.66699 -43 -13 -63 -13c-59.333 0 -105.333 33.667 -138 101
c-8.66699 22 -13 42 -13 60v18c0 65.333 32.667 115.666 98 150.999c19.333 7.33301 38.666 11 58 11zM2261 1337h2l47 -11h3c7.33301 0 16 3.66699 26 11l18 -36c-12 -12.667 -23.667 -19 -35 -19h-3l-54 10l-20 -7l-20 36c12 10.667 24 16 36 16zM716.002 1334h19
c78.667 0 121.667 -8.66699 129 -26c16.667 -17.333 25 -38 25 -62c-6.66699 -38 -16.667 -57 -30 -57v-6c31.333 -15.333 47 -37.333 47 -66v-18c0 -42 -23 -71.333 -69 -88l-54 -5h-67v328zM2550 1334h53v-217c4 -40.667 19 -61 45 -61c19.333 0 34 13 44 39l3 30v203l4 6
h45l5 -6v-171c0 -78.667 -13.333 -123 -40 -133c-16 -17.333 -37.333 -26 -64 -26c-36.667 0 -67 25.333 -91 76l-4 54v206zM2805 1334h59c2.66699 0 43.334 -79 122 -237h4v237h50l4 -6v-322h-58c-19.333 32 -61 111.333 -125 238h-3v-238h-53v328zM3101 1334h54v-328h-54
v328zM3859 1334l8 0.000976562c103.333 0 161.333 -13.333 174 -40c15.333 -7.33301 31 -32.333 47 -75l4 -36v-11l3 -2c0 -62.667 -27.333 -112.334 -82 -149.001c-23.333 -10 -56.333 -15 -99 -15h-55v328zM4141 1334h153v-60h-103v-75h101v-57h-101v-74l4 -5h99v-57h-157
v322zM3563 1175v-10c0 -50.667 26.333 -86.667 79 -108l19 -1c45.333 0 77.333 28.667 96 86l3 20v15c0 40.667 -20 72 -60 94c-8 5.33301 -21 9 -39 11c-44 0 -76 -27.667 -96 -83zM770.002 1274v-67h9c36 0 54 9.33301 54 28l3 14c-7.33301 16.667 -17 25 -29 25h-37z
M3912 1274v-206.001l2 -3v-2c69.333 0 110 25.333 122 76l2 15v29c0 22.667 -10.667 45.334 -32 68.001c-16.667 15.333 -42.667 23 -78 23h-16zM1041 1259h5c25.333 0 49 -13.333 71 -40v32h49v-245h-49v32c-24 -26.667 -50.667 -40 -80 -40c-50 0 -83.667 32.333 -101 97
l-5 36c0 59.333 28.333 101 85 125zM1314 1259h3c49.333 0 77 -34 83 -102v-151h-51v128c0 44.667 -14 67 -42 67h-10c-22.667 0 -35.667 -20.667 -39 -62v-133h-52v245h47v-21c18.667 19.333 39 29 61 29zM1543 1259h5c30 0 53.667 -13.333 71 -40v32h47v-219
c0 -63.333 -34.667 -105.333 -104 -126h-16c-49.333 0 -85.333 27.333 -108 82h59c17.333 -16.667 32 -25 44 -25h14c34.667 0 56 25.667 64 77c-22 -28 -47.333 -42 -76 -42c-40 0 -73.667 27 -101 81l-7 44v16c0 52.667 28.333 91.667 85 117zM1912 1259l2 0.000976562
c28.667 0 49 -12.333 61 -37h2c21.333 24.667 44.333 37 69 37h4c38 0 64.333 -18.333 79 -55c5.33301 -16.667 8 -31.667 8 -45v-153h-52v138c0 29.333 -7.66699 47.666 -23 54.999l-12 2h-15c-21.333 0 -33.333 -21.667 -36 -65v-130h-52v136c0 39.333 -14.333 59 -43 59
h-8c-21.333 0 -33.333 -19 -36 -57v-138h-54v245h50v-21h2c4 16 22 25.667 54 29zM2282 1259c31.333 0 56.333 -14 75 -42v34h47v-245h-47v32c-24 -26.667 -50 -40 -78 -40c-49.333 0 -83.333 30.667 -102 92l-6 41c0 60 28.333 101.667 85 125zM985.002 1117
c0 -32 20.333 -52.333 61 -61h4c30 0 50.667 15.333 62 46l3 15v22c-8 41.333 -27 62 -57 62h-14c-27.333 0 -47 -19 -59 -57v-27zM1487 1128c0 -32 14.332 -54.667 42.999 -68l18 -4h5c31.333 0 52.333 19 63 57v23c-7.33301 43.333 -26.666 65 -57.999 65h-12
c-33.333 0 -53 -24.333 -59 -73zM2225 1131v-14.001c10 -40.667 29 -61 57 -61h14c38.667 8 58 29.333 58 64v11c0 30 -12.333 51.667 -37 65l-18 5h-10c-42.667 -5.33301 -64 -28.666 -64 -69.999zM770.001 1150v-82c0 -3.33301 2.33301 -5 7 -5c51.333 0 77 15 77 45
c0 22.667 -15.667 36.667 -47 42h-37zM2966 752.999l24 -28l-51 -55c-12 8 -21 16.667 -27 26zM1524 726.999l85 -54c0 -10 -7 -24 -21 -42l-87 54c12 27.333 19.667 41.333 23 42zM2850 692.999h38l55 -60h-54l-21 26l-23 -26h-54c36 40 55.667 60 59 60zM3422 692.999h40
l56 -60h-54l-24 26h-1c0 -3.33301 -6.33301 -12 -19 -26h-54zM622.001 684.999l52 0.00195312c5.33301 -2.66699 21 -48.334 47 -137.001l34 -110c6 5.33301 17.333 38.666 34 99.999l48 147h54v-2l-112 -326h-44zM1159 685.001h51v-54h-51v54zM1354 685.001h46l6 -5v-323
h-52v328zM2317 685.001h45l4 -5v-78h31v-52h-31v-193h-53v193h-26v52h26v78zM2425 685.001h52v-98h2c15.333 15.333 33.333 23 54 23h3c38 0 65 -23.667 81 -71l3 -38v-144h-52v115c0 54 -13 81 -39 81h-10c-28 0 -42 -29 -42 -87v-109h-52v328zM2664 685.001h52v-54h-52v54
zM3028 685.001h44l6 -5v-78h29v-52h-29v-193h-54v193h-27v52h27v78zM3234 685.001h52v-328h-52v328zM3957 685.001h52v-328h-52v328zM4316 685.001h51v-54h-51v54zM1555 610.001h5c55.333 0 92 -34 110 -102l3 -23v-11c0 -55.333 -28.333 -95.333 -85 -120l-35 -5
c-50.667 0 -87.667 32.333 -111 97l-4 32c0 64.667 31 108 93 130zM1811 610.001h4c35.333 0 61.333 -20 78 -60c4.66699 -16.667 7 -43.667 7 -81v-112h-54v146c-4.66699 33.333 -17 50 -37 50h-10c-25.333 0 -39.333 -19 -42 -57v-139h-54v245h49v-21
c17.333 19.333 37 29 59 29zM2046 610.001h4.00098c30 0 51 -13 63 -39h3v31h49v-206c0 -68 -29.667 -113 -89 -135l-28 -3h-5c-48.667 0 -84 27 -106 81h52l37 -20l15 -3h14c33.333 0 53.666 24 60.999 72c-22 -26 -46.333 -39 -73 -39c-41.333 0 -74 25.333 -98 76
c-7.33301 15.333 -11.333 35.333 -12 60c0 56.667 28.667 97.667 86 123zM2866 610.001l2 -0.000976562c54.667 0 91.667 -34.667 111 -104l2 -25l-2 -27h-172c10 -30 25 -45 45 -45l14 -3c19.333 0 35.666 7.33301 49 22h57v-3c-23.333 -50.667 -59.333 -76 -108 -76
c-51.333 0 -88.333 32.333 -111 97l-1 28v8c0 32.667 10.667 62.334 32 89.001c22.667 26 50 39 82 39zM3429 610h5c27.333 0 50.666 -13 70 -39h2v31h47v-245h-47v31h-2c-23.333 -26 -49 -39 -77 -39c-47.333 0 -81 29.667 -101 89l-5 36v14c0 57.333 28 97.333 84 120z
M3711 610l7 -0.000976562c58.667 0 94.334 -42.667 107 -128l-2 -1v-15c0 -43.333 -22 -78.666 -66 -105.999c-14 -7.33301 -29.333 -11 -46 -11c-22.667 0 -44 10.667 -64 32v-99l-5 -5h-49v325h49v-28c20.667 24 43.667 36 69 36zM4151 609.999
c29.334 0 54.334 -13 75 -39v31h49v-245h-49v31c-23.334 -26 -49 -39 -77 -39c-61.333 0 -97.333 44 -108 132c0 56 24.333 96.333 73 121c10 5.33301 22.334 8 37 8zM922.002 601.999h50v-136c2 -40 16 -60 42 -60h5c29.333 0 44 29 44 87v109h52v-245h-47v24h-5
c0 -15.333 -18.667 -26 -56 -32h-3c-36.667 0 -64 22.667 -82 68c-2.66699 23.333 -4 56.333 -4 99v81zM1159 601.999h51v-245h-51v245zM2664 601.999h52v-245h-52v245zM4316 601.999h51v-245h-51v245zM1492 487.999v-15.999c8.66699 -44 28.334 -66 59.001 -66h4
c39.333 0 61.333 25.333 66 76c-8.66699 47.333 -28.334 71 -59.001 71h-11c-39.333 -10.667 -59 -32.334 -59 -65.001zM1987 472c10 -44 29.667 -66 59 -66h11c32 0 51.667 25 59 75v1c-8.66699 47.333 -28.334 71 -59 71h-14c-26 0 -44.667 -19 -56 -57v-24zM2805 506h122
v2c-10.667 30 -30.334 45 -59 45h-7c-23.333 0 -42 -15.667 -56 -47zM3373 474c8.66699 -45.333 29 -68 61 -68h5c34.667 0 56.334 21 65 63v12c-6.66699 48 -25.667 72 -57 72h-16c-37.333 -9.33301 -56 -30.333 -56 -63zM3642 478c8 -48 28.333 -72.001 61 -72.001h3
c33.333 0 55 20 65 60v22c0 28.667 -16.333 50.334 -49 65.001h-22c-31.333 0 -50.666 -24 -58 -72v-3zM4095 471.999c6.66602 -44 28.666 -66 66 -66c28.666 0 49 16 61 48l2 15v16c0 36 -17.334 58.667 -52 68h-18c-28 0 -47.666 -20 -59 -60v-21zM3416 320.999h51v-52
h-51v52zM4137 320.999h51v-52h-51v52zM2733 132.999h4c23.333 0 37.666 -16.667 43 -50v-2c0 -10.667 -8 -24.334 -24 -41.001l-10 -17h-28c0 16.667 9.33301 35.334 28 56.001l3 2v2c-2 12.667 -5 19 -9 19h-10c-5.33301 0 -8.33301 -6.33301 -9 -19h-30
c4 33.333 18 50 42 50zM1546 115.999l52 -60l-26 -19l-52 52zM352.002 78.999h4c50 -32 78.333 -52 85 -60l-20 -37c-58.667 32.667 -88 52 -88 58zM3490 78.999l86 -58l-18 -39c-6.66699 0 -37 18.333 -91 55c10 24 17.667 38 23 42zM4578 75.999l19 -42l-91 -52l-20 39
l92 58v-3zM1204 52.999h51v-19l5 -5h14v-36h-14l-5 -5v-279h-46v31c-22.667 -26.667 -49.667 -40 -81 -40c-48 0 -82 35 -102 105l-3 26c0 68 33.667 111.667 101 131h14c22 0 44 -11 66 -33v59l-6 5h-43v36h49v24zM1480 44.999h40l56 -61h-53l-23 27l-23 -27h-53z
M2641 44.999h33c8 0 29 -20.333 63 -61h-54l-23 27c-12.667 -14 -19 -23 -19 -27h-58v4zM49.002 36.999h160v-60h-56v-268h-50l-4 5v245l2 3v2l-2 2l2 3l-2 2l2 3l-2 3h-54v54zM699.002 36.999h47v-73l2 -2l-2 -3v-3l2 -2l-2 -3v-3l2 -2v-2l-2 -3l2 -3h3
c11.333 16 28.333 24 51 24h3c35.333 0 61 -19.333 77 -58c4.66699 -11.333 7 -25.333 7 -42v-153h-52v127c0 45.333 -13.333 68 -40 68h-8c-28.667 0 -43 -28.667 -43 -86v-109h-52v322zM1297 36.999h47l5 -6v-49h-52v55zM1987 36.999h52v-198l70 115h62l-78 -118l90 -125
v-2h-70c-6.66699 14.667 -31.334 53 -74 115v-115h-52v328zM2271 36.999v-98.999c16 16 33.667 24 53 24c38 0 64.667 -18.667 80 -56c6.66699 -12.667 10 -38.334 10 -77.001v-120h-54v133c0 41.333 -13.667 62 -41 62h-11c-20.667 0 -33 -18.333 -37 -55v-140h-53v314
l-1 3v3l1 2l-1 3l1 3h53zM2458 37h51v-55h-51v55zM3148 37h51v-108c18 22 40.667 33 68 33h3c50 0 85 -31.333 105 -94l5 -37c0 -50 -21.333 -90 -64 -120c-20 -7.33301 -36.333 -11 -49 -11c-27.333 0 -51.333 13.333 -72 40v-31h-47v328zM4275 37h52v-99h2
c15.334 16 33.334 24 54 24h3c40 0 67.334 -24.667 82 -74l2 -41v-138h-52v111c0 54.667 -10.666 82 -32 82l-10 2h-12c-24.666 0 -37 -26.667 -37 -80v-115h-52v328zM329.002 -38h3v-58h-5c-28 0 -42 -19 -42 -57v-138h-53v245h47v-21c12 19.333 28.667 29 50 29z
M564.002 -38c47.333 0 75.999 -29 85.999 -87v-166h-51v136c-4 39.333 -17.667 59 -41 59h-6c-30 0 -45 -28 -45 -84v-111h-52v245h50v-21c16.667 19.333 36.334 29 59.001 29zM1504 -38c48 0 83 -31.333 105 -94l5 -39c-1.33301 -16 -3.66602 -24 -6.99902 -24h-169
c11.333 -31.333 32 -47 62 -47c16 0 32 7 48 21h57c-22 -52.667 -58 -79 -108 -79c-54.667 0 -92.334 35 -113.001 105v37c0 54 29.667 93 89 117zM2657 -38h5c51.333 0 87 -32.333 107 -97l3 -26v-21l-3 -13h-170c12 -31.333 29.667 -47 53 -47h12c14 0 28 7 42 21h59
c-22.667 -52.667 -57.667 -79 -105 -79c-56 0 -94.333 34 -115 102l-2 29c0 62 30.333 104.667 91 128zM2915 -38h3.99902c36 0 62 -20 78 -60c4.66699 -16.667 7 -44 7 -82v-111h-54v138c0 32 -11.667 51 -35 57h-11c-25.333 0 -39.666 -19 -42.999 -57v-138h-54v245h50
v-21c16.667 19.333 36 29 58 29zM3508 -38h6c26.667 0 50 -13.333 70 -40h2v32h47v-245h-47v31h-2c-22.667 -26.667 -48.667 -40 -78 -40c-47.333 0 -81 30 -101 90l-4 37v12c0 54.667 25.667 93.667 77 117c7.33301 4 17.333 6 30 6zM3781 -38h4
c41.333 0 68.666 -26 82 -78l3 -84v-91h-54v138c0 32 -12.667 51 -38 57h-9c-25.333 0 -39.333 -17.333 -42 -52v-143h-54v245h49v-21c17.333 19.333 37 29 59 29zM4133 -38h1c49.334 0 84 -31 104 -93l4 -40c0 -58.667 -28 -100.667 -84 -126l-25 -3
c-27.333 0 -50 11.333 -68 34v-106h-52v326h47v-29c20 24.667 44.334 37 73 37zM4714 -38h5c22.666 0 43.666 -12.333 63 -37c18 24.667 41 37 69 37h6c37.334 0 63.667 -22 79 -66l6 -51v-136h-52v122c0 48.667 -13 73 -39 73h-7c-23.334 0 -37 -16.667 -41 -50v-140l-5 -5
h-48v140c0 28 -10.334 46.333 -31 55h-17c-26.666 0 -40 -25.667 -40 -77v-118h-51v245h47v-21c14.666 19.333 33.333 29 56 29zM359 -46h49l5 -6v-234l-5 -5h-49v245zM1297 -46h52v-245h-52v245zM1649 -46h52v-136c2.66699 -40 17 -60 43 -60h4c29.333 0 44 27 44 81v115
h52v-245h-47v24h-5c-8 -22 -27.667 -33 -59 -33c-34.667 0 -61 21 -79 63c-3.33301 8 -5 19.333 -5 34v157zM2458 -46h51v-245h-51v245zM4515 -46h51v-245h-51v245zM1077 -169c0 -35.333 16.999 -59.666 50.999 -72.999h12c36 0 58 22 66 66v10
c0 35.333 -18 58.666 -54 69.999h-17c-25.333 0 -44.666 -19 -57.999 -57v-16zM1438 -143h122.001c-12 31.333 -29.667 47 -53 47h-7c-28.667 0 -49.334 -14.667 -62.001 -44v-3zM2599 -143h122c-14 31.333 -32 47 -54 47h-7c-30.667 0 -51 -15.667 -61 -47zM3196 -158v-11
c6.66699 -48.667 27 -73 61 -73h5c42.667 5.33301 64 29 64 71v5c0 30 -12.667 51.667 -38 65l-18 5h-14c-40 -9.33301 -60 -30 -60 -62zM3452 -173c9.33301 -46 30 -69 62 -69h11c27.333 0 47 20 59 60v13c-5.33301 48.667 -24 73 -56 73h-17
c-31.333 0 -51 -24.333 -59 -73v-4zM4062 -158v-22c0 -31.333 19.667 -52 59 -62h9c33.334 0 53.667 25.333 61 76c-8.66602 46.667 -28 70 -58 70h-15c-37.333 -11.333 -56 -32 -56 -62z" />
    <glyph glyph-name="space" unicode=" " horiz-adv-x="339" 
 />
    <glyph glyph-name="exclam" unicode="!" horiz-adv-x="514" 
d="M346 453l-142.999 -0.000976562v90c0 150 -13.667 273.333 -41 370l-33 127l-29 125l-10 107c0 70.667 13.667 124.5 41 161.5s56 61.667 86 74s58.667 18.5 86 18.5c69.333 0 123.333 -29.333 162 -88c26 -37.333 39 -84 39 -140c0 -16 -0.333008 -34 -1 -54
s-6 -45 -16 -75c-2.66699 -14.667 -7.33398 -34.667 -14.001 -60s-13.667 -48.333 -21 -69l-36 -120c-6 -18 -15.333 -51.667 -28 -101s-21.5 -87.166 -26.5 -113.499s-8.83301 -55.333 -11.5 -87s-4 -68.5 -4 -110.5v-55zM223.001 331.999l41.0029 6
c46.667 0 83.667 -12.667 111 -38s45.666 -49.5 54.999 -72.5s14 -46.833 14 -71.5c0 -16.667 -3 -40.667 -9 -72s-31.667 -57.333 -77 -78c-40.667 -16 -71.334 -24 -92.001 -24c-34 0 -65 10.167 -93 30.5s-48 45.5 -60 75.5c-4.66699 14 -8.33398 28.167 -11.001 42.5
s-4 29.5 -4 45.5c0 78 41.667 130 125 156z" />
    <glyph glyph-name="quotedbl" unicode="&#x22;" horiz-adv-x="534" 
d="M192 961h-41.002l-50 364l-12 80l-6 74c0 31.333 2.66699 55.833 8 73.5s14.5 31 27.5 40s29.167 13.5 48.5 13.5c14.667 0 29.334 -3.83301 44.001 -11.5s25.334 -20 32.001 -37s10 -43.833 10 -80.5l-6 -95l-8 -53zM426.998 961h-41.001l-45 364l-12 76l-8 84
c0 28.667 2.66699 52.167 8 70.5s13.833 30.666 25.5 36.999s27.5 10.833 47.5 13.5c15.333 0 30.5 -4.16699 45.5 -12.5s24.833 -21.333 29.5 -39s7.83398 -30 9.50098 -37s2.5 -19.167 2.5 -36.5c0 -27.333 -3 -56.666 -9 -87.999l-8 -64z" />
    <glyph glyph-name="numbersign" unicode="#" horiz-adv-x="1552" 
d="M739 1473h168l-152 -443h279l157 443h166l-147 -443h303l-47 -147h-307l-99 -293h303l-51 -146h-305l-158 -446h-168l148 442h-283l-155 -442h-168l153 438h-311l51 154h309l99 293h-305l51 147h311zM606 590h278l96 293h-278z" />
    <glyph glyph-name="dollar" unicode="$" horiz-adv-x="983" 
d="M428 1325l186.005 0.00195312v-90h23c76.667 -16.667 130.667 -31.667 162 -45c35.333 -12.667 81.666 -38.667 138.999 -78l-147 -199c-27.333 22 -55.333 43.333 -84 64l-89 57c-58.667 35.333 -109 53 -151 53c-22 0 -40.333 -4.66699 -55 -14
c-34.667 -17.333 -52 -46 -52 -86c0 -32.667 18.833 -58.5 56.5 -77.5s85.167 -37.5 142.5 -55.5l72 -25c83.333 -22.667 146.666 -50.667 189.999 -84c45.333 -30 76.666 -70 93.999 -120c3.33301 -10 8.66602 -28.333 15.999 -55s11 -50 11 -70c0 -32.667 -6 -69 -18 -109
c-7.33301 -23.333 -14.666 -42.166 -21.999 -56.499s-20 -32.833 -38 -55.5c-30 -38.667 -65.167 -69.167 -105.5 -91.5s-88.5 -39.833 -144.5 -52.5v-135h-186v125c-32.667 4 -63.667 10.167 -93 18.5s-60.333 19.833 -93 34.5c-62 28.667 -128.333 70.334 -199 125.001
l145 221c66 -73.333 136.167 -135 210.5 -185s141.5 -75 201.5 -75c24.667 2.66699 46.167 8.16699 64.5 16.5s33.166 22.166 44.499 41.499c12 16 18 35 18 57c0 14.667 -4.16699 35.667 -12.5 63s-30.833 49.666 -67.5 66.999s-83.667 36.666 -141 57.999l-60 21
c-78.667 27.333 -143.334 60 -194.001 98c-44 35.333 -70 74.333 -78 117l-8 84c0 47.333 12 96.666 36 147.999s54.333 90 91 116s64.667 43 84 51l51 21v102z" />
    <glyph glyph-name="percent" unicode="%" horiz-adv-x="1435" 
d="M1119 1276l117 -90l-868 -1176l-117 90zM331 1303l37.001 2c26 0 51.167 -2.16699 75.5 -6.5s50.166 -11.833 77.499 -22.5c52 -16.667 93.333 -43 124 -79s53.167 -74.167 67.5 -114.5s21.5 -78.166 21.5 -113.499c0 -30 -5.33301 -65.833 -16 -107.5
s-34.667 -81.167 -72 -118.5c-31.333 -32.667 -71.5 -57.834 -120.5 -75.501s-92.833 -26.5 -131.5 -26.5c-44.667 0 -87.834 6.16699 -129.501 18.5s-80.167 33.5 -115.5 63.5c-36 27.333 -64 65 -84 113c-4.66699 10.667 -10.334 30 -17.001 58s-10 55 -10 81v29
c0 26.667 3.83301 52 11.5 76s18.834 47.667 33.501 71c24.667 40.667 59.834 74 105.501 100s93.167 43.333 142.5 52zM1046 655l21.999 1.99902h19c25.333 0 50 -2 74 -6s49.667 -11.333 77 -22c52 -16.667 93 -42.334 123 -77.001s52.167 -72.5 66.5 -113.5
s21.5 -79.833 21.5 -116.5c0 -28.667 -4 -57.334 -12 -86.001c-12.667 -54.667 -37 -100.167 -73 -136.5s-74.667 -61.166 -116 -74.499l-84 -25l-59 -4c-40.667 0 -83 6 -127 18c-40.667 14 -79.167 35.333 -115.5 64s-64.166 70.334 -83.499 125.001
c-17.333 57.333 -26 108.333 -26 153c0 27.333 3.66699 52.333 11 75s19.333 46.334 36 71.001c24.667 39.333 65 77.333 121 114l61 23zM208 1071l-1.99609 -33.001c0 -26 2 -52.167 6 -78.5s11 -54.833 21 -85.5c17.333 -51.333 41.666 -90.666 72.999 -117.999
c31.333 -23.333 65.666 -35 102.999 -35c21.333 0 44 5.16699 68 15.5s42.167 26 54.5 47s20.5 42.5 24.5 64.5l6 53c0 52 -9.33301 106 -28 162c-16.667 56 -40.334 97 -71.001 123s-65 39 -103 39c-16.667 0 -28.834 -1 -36.501 -3s-20 -6.83301 -37 -14.5
s-33.333 -24.167 -49 -49.5s-25.5 -54.333 -29.5 -87zM923.004 423.998l-0.000976562 -29c0 -50.667 8.83301 -104.667 26.5 -162s41.834 -97.833 72.501 -121.5s65 -35.5 103 -35.5c23.333 0 46 4.33301 68 13s39.833 25 53.5 49s22.5 45.667 26.5 65l4 53
c0 53.333 -9.66699 106.666 -29 159.999c-16 56 -40.5 97.333 -73.5 124s-67.167 40 -102.5 40c-22 0 -52.333 -9.66699 -91 -29s-58 -61.666 -58 -126.999z" />
    <glyph glyph-name="ampersand" unicode="&#x26;" horiz-adv-x="1611" 
d="M796 915l33.0039 -77c14.667 -33.333 45.667 -85.833 93 -157.5s82.333 -121.167 105 -148.5l72 -77c28.667 36.667 53.667 79.834 75 129.501s32 88.167 32 115.5c0 14 -2.5 29.167 -7.5 45.5s-16.667 28.333 -35 36s-41.166 11.5 -68.499 11.5v131h436v-131h-162
l-2 -27c0 -102.667 -14 -185 -42 -247s-67 -124.333 -117 -187c40.667 -45.333 80.5 -78.833 119.5 -100.5s78.833 -32.5 119.5 -32.5l41 2c18 2.66699 32.167 6 42.5 10s21.5 12.333 33.5 25l59 -70c-48.667 -62.667 -100.667 -109 -156 -139s-112.333 -45 -171 -45
c-54.667 0 -99.834 8.83301 -135.501 26.5s-84.167 57.167 -145.5 118.5l-4 -4c-170.667 -112 -324.334 -168 -461.001 -168c-80.667 0 -158.834 18 -234.501 54s-135.334 87.833 -179.001 155.5s-65.5 141.167 -65.5 220.5c0 84.667 22.5 168.334 67.5 251.001
s107.833 150 188.5 202l127 80c-16.667 47.333 -29 89.166 -37 125.499s-12 73.5 -12 111.5c0 36.667 3.33301 68 10 94s14.5 47.5 23.5 64.5s23.833 40.5 44.5 70.5c34 50.667 88.5 92 163.5 124s144.5 48 208.5 48c52 0 104.667 -7.16699 158 -21.5
s97.666 -41.833 132.999 -82.5s53 -92.667 53 -156v-24l-4 -25c-16 -78 -58.333 -138.667 -127 -182c-60 -36.667 -127.333 -74.334 -202 -113.001zM898.004 1159c28.667 40 43.002 80.333 43.002 121c0 23.333 -7.33301 52 -22 86c-12.667 38 -47 57 -103 57
c-52.667 0 -90.667 -17.333 -114 -52s-35 -71 -35 -109c0 -33.333 6.16699 -69.333 18.5 -108s29.5 -76 51.5 -112c27.333 11.333 56.666 27.5 87.999 48.5s55.666 43.833 72.999 68.5zM489.006 731l-43 -49.002c-23.333 -27.333 -41.5 -58.666 -54.5 -93.999
s-19.5 -69.666 -19.5 -102.999c0 -28.667 4 -55 12 -79c12.667 -49.333 38.5 -92.833 77.5 -130.5s77.5 -64.5 115.5 -80.5c40.667 -15.333 76.667 -23 108 -23c38.667 0 76 6.16699 112 18.5s69.667 32.833 101 61.5l-96 108l-115 152l-98 147l-55 105l-27 -16z" />
    <glyph glyph-name="quotesingle" unicode="'" horiz-adv-x="442" 
d="M135 1012l-31.002 98c28.667 4 54.334 14.5 77.001 31.5s34 37.833 34 62.5c-30.667 0 -58.167 7.16699 -82.5 21.5s-42.833 34.5 -55.5 60.5c-8 24.667 -12 46 -12 64l6 49c2.66699 9.33301 5.66699 16.833 9 22.5s10 15.167 20 28.5
c14.667 19.333 35.334 34.666 62.001 45.999s54.334 17 83.001 17c24.667 0 49.667 -8.5 75 -25.5s46.166 -40.167 62.499 -69.5s24.5 -61 24.5 -95c0 -49.333 -14.667 -97.166 -44 -143.499s-60.333 -81.833 -93 -106.5c-32.667 -22 -77.667 -42.333 -135 -61z" />
    <glyph glyph-name="parenleft" unicode="(" horiz-adv-x="657" 
d="M481 1671l144.998 -102.002c-82 -148.667 -143.5 -293.667 -184.5 -435s-61.5 -280.333 -61.5 -417c0 -132.667 14.5 -252.167 43.5 -358.5s54.167 -184.833 75.5 -235.5c12.667 -31.333 26.834 -62.333 42.501 -93s37.834 -70.667 66.501 -120l-146 -103
c-142 138 -244.333 283.167 -307 435.5s-94 307.833 -94 466.5c0 46 2 90.833 6 134.5s11.667 92.167 23 145.5c20 98.667 63.167 210.334 129.5 335.001s153.5 240.334 261.5 347.001z" />
    <glyph glyph-name="parenright" unicode=")" horiz-adv-x="657" 
d="M606 963l15.999 -123l6 -129c0 -161.333 -31 -317.5 -93 -468.5s-164.667 -296.167 -308 -435.5l-144 103c45.333 82 80.333 152 105 210s51.334 140.167 80.001 246.5s43 223.166 43 350.499c0 268.667 -82 552.667 -246 852l143 102c104 -99.333 191.667 -214 263 -344
c65.333 -125.333 110.333 -246.666 135 -363.999z" />
    <glyph glyph-name="asterisk" unicode="*" horiz-adv-x="823" 
d="M458 1233c11.333 2.66699 19.6621 5.33691 24.9951 8.00391l33 25l20 18l45 68c26 38 56 64 90 78l33 4c19.333 0 39.5 -7.5 60.5 -22.5s31.5 -44.5 31.5 -88.5c0 -28.667 -10.5 -49.167 -31.5 -61.5s-45.167 -20.5 -72.5 -24.5l-84 -4c-84.667 -8 -129 -21 -133 -39
c6.66699 -6.66699 12.667 -11.334 18 -14.001l51 -21c15.333 -5.33301 52.333 -12.666 111 -21.999c27.333 0 47.833 -1.83301 61.5 -5.5s30.334 -11.167 50.001 -22.5s29.5 -38.333 29.5 -81c0 -27.333 -12.333 -49 -37 -65c-24.667 -12.667 -45 -19 -61 -19
c-12.667 0 -29 4 -49 12c-19.333 11.333 -36.666 28 -51.999 50l-36 57l-29 37l-19 14c-10.667 10.667 -22.667 19.667 -36 27c-2.66699 1.33301 -6.16699 2 -10.5 2h-8.5c-4 -4 -6 -11.667 -6 -23c0 -14.667 3.33301 -34.334 10 -59.001l33 -84l31 -70
c5.33301 -13.333 7.33301 -28.333 6 -45c-8 -31.333 -22.333 -52.333 -43 -63c-5.33301 -1.33301 -13.166 -3 -23.499 -5l-31.5 -6c-26 0 -48 5.66699 -66 17c-18 13.333 -27 38.666 -27 75.999c0 26 7.66699 56 23 90l35 84l14 57c2.66699 16.667 2 27 -2 31
c-5.33301 5.33301 -13.666 4 -24.999 -4l-36 -31l-70 -88c-32.667 -49.333 -69 -74 -109 -74c-17.333 0 -33.166 2.83301 -47.499 8.5s-27.833 16.5 -40.5 32.5c-10.667 11.333 -16 27.666 -16 48.999c0 14 4.16699 30.5 12.5 49.5s23.166 31.167 44.499 36.5l78 15l68 8
l39 6l45 14c16 6 24.667 13 26 21c-8 9.33301 -14.667 15.333 -20 18l-51 19c-11.333 2.66699 -21.666 4.66699 -30.999 6s-19.666 2.66602 -30.999 3.99902h-45c-16 0 -32 1 -48 3s-34 10.667 -54 26c-11.333 10.667 -19 23.167 -23 37.5s-6 29.833 -6 46.5
c0 14.667 6.5 29.834 19.5 45.501s27.833 26.167 44.5 31.5l41 11c24 0 44.333 -9 61 -27l68 -80l61 -76c10.667 -10.667 23.667 -16 39 -16c4 6.66699 6 12 6 16l-6 33l-10 41l-31 80c-12 35.333 -19.667 64.666 -23 87.999l5 31c10.667 32.667 25 51 43 55l45 8
c27.333 0 50.5 -8.5 69.5 -25.5s28.5 -39.833 28.5 -68.5v-18c-4 -26 -9.33301 -45.333 -16 -58c-4.66699 -13.333 -13 -30.333 -25 -51c-6.66699 -12 -16.334 -33 -29.001 -63l-10 -54c0 -6.66699 2 -12 6 -16z" />
    <glyph glyph-name="plus" unicode="+" horiz-adv-x="1671" 
d="M752 1333h251v-542h531v-252h-531v-539h-251v539h-535v252h535v542z" />
    <glyph glyph-name="comma" unicode="," horiz-adv-x="442" 
d="M127 -221l-29 98l39 12l41 25c18.667 12 28 31.667 28 59c-30 0 -56.833 6.83301 -80.5 20.5s-41.834 32.167 -54.501 55.5c-8 20.667 -12 42 -12 64c0 38 9.5 70 28.5 96s42.167 44.167 69.5 54.5s54 15.5 80 15.5c23.333 0 48.333 -7.66699 75 -23
s47.834 -38.333 63.501 -69s23.5 -63 23.5 -97c0 -48 -14 -95.5 -42 -142.5s-59.667 -82.167 -95 -105.5c-31.333 -23.333 -76.333 -44.333 -135 -63z" />
    <glyph glyph-name="hyphen" unicode="-" horiz-adv-x="696" 
d="M79 565h596v-155h-596v155z" />
    <glyph glyph-name="hyphen" unicode="&#x2010;" horiz-adv-x="696" 
d="M79 565h596v-155h-596v155z" />
    <glyph glyph-name="period" unicode="." horiz-adv-x="419" 
d="M190 305l34.999 6.00098c34 0 68 -15 102 -45s51 -68 51 -114l-4 -43c-2.66699 -18 -11.5 -36.833 -26.5 -56.5s-34.833 -35.834 -59.5 -48.501c-24.667 -9.33301 -48.334 -14 -71.001 -14c-27.333 0 -59.166 11.833 -95.499 35.5s-54.5 62.167 -54.5 115.5
c0 41.333 9.83301 76 29.5 104s50.834 48 93.501 60z" />
    <glyph glyph-name="slash" unicode="/" horiz-adv-x="1435" 
d="M1277 1712l166 -125l-1208 -1630l-166 125z" />
    <glyph glyph-name="zero" unicode="0" horiz-adv-x="1089" 
d="M497 1346l68.002 5.99805c53.333 0 107.166 -10.667 161.499 -32s108.5 -61.666 162.5 -120.999s96 -138.833 126 -238.5s45 -204.167 45 -313.5c0 -83.333 -8.5 -162.166 -25.5 -236.499s-54.167 -155.833 -111.5 -244.5c-52 -82 -107.333 -134.667 -166 -158l-129 -39
c-31.333 -6.66699 -60 -10 -86 -10c-40.667 0 -78.834 5.5 -114.501 16.5s-87.167 41.667 -154.5 92s-119.166 136 -155.499 257s-54.5 246.833 -54.5 377.5c0 89.333 24.167 196 72.5 320s99.166 202.5 152.499 235.5s94.333 55.5 123 67.5zM292.002 945.998
c0 -94 29.833 -232.168 89.5 -414.501s114.667 -290.5 165 -324.5s90.5 -51 120.5 -51c14 0 25 1 33 3s22 7 42 15s37.167 25.333 51.5 52s24.833 59.334 31.5 98.001c0 104.667 -29 248.834 -87 432.501s-107.833 293.667 -149.5 330s-71.5 57.166 -89.5 62.499l-45 8
c-14.667 0 -37 -5.5 -67 -16.5s-54 -35.5 -72 -73.5c-15.333 -36.667 -23 -77 -23 -121z" />
    <glyph glyph-name="one" unicode="1" horiz-adv-x="1089" 
d="M729 1303l-4 -72l-2 -51v-1071h119v-109h-560v109h130v923l-150 -43v113l82 26l43 22c19.333 10 38.5 21.167 57.5 33.5s31.833 20.5 38.5 24.5c22 15.333 40.333 30.333 55 45l52 50h139z" />
    <glyph glyph-name="two" unicode="2" horiz-adv-x="1089" 
d="M474 227l168.002 0.00195312c88.667 0 155.5 6.16699 200.5 18.5s73.833 45.833 86.5 100.5h102l-59 -399h-105l7 53h-664l-70 201c110.667 78.667 235 195.167 373 349.5s207 279.5 207 375.5c0 46 -12 92.667 -36 140s-52.333 79.833 -85 97.5s-62.667 26.5 -90 26.5
c-24.667 0 -51.667 -8.5 -81 -25.5s-44 -54.833 -44 -113.5c0 -41.333 14.667 -82.833 44 -124.5s68 -76.834 116 -105.501l-221 -227c-134 98 -201 207.333 -201 328v30c0 61.333 19 122.333 57 183c19.333 27.333 42.666 53.166 69.999 77.499s59.5 46.5 96.5 66.5
s75.5 34.667 115.5 44s86 14 138 14c91.333 0 170.166 -19 236.499 -57s115.166 -85 146.499 -141c32.667 -53.333 49 -118.333 49 -195c0 -83.333 -21.5 -160.833 -64.5 -232.5s-97.167 -139.167 -162.5 -202.5s-156.666 -142.333 -273.999 -237z" />
    <glyph glyph-name="three" unicode="3" horiz-adv-x="1089" 
d="M315 1372l105.002 -41.002l-9 -22h492l96 -168l-33 -25l-34 -31l-228 -227c90 -20.667 163.667 -51 221 -91s94.666 -92.167 111.999 -156.5s26 -110.833 26 -139.5c0 -58.667 -9.66699 -112 -29 -160c-16.667 -50 -49.5 -102.333 -98.5 -157
s-112.833 -98.834 -191.5 -132.501s-154.667 -50.5 -228 -50.5h-41l-109 15c-58.667 6.66699 -148.667 69.334 -270 188.001l211 217c28.667 -32.667 60 -66 94 -100c28.667 -28.667 56.667 -53.667 84 -75s53.666 -36.666 78.999 -45.999s53.666 -14 84.999 -14h25
c28.667 4 53.834 13.5 75.501 28.5s39.5 36.833 53.5 65.5c6.66699 13.333 12 27.5 16 42.5s6 30.833 6 47.5c0 49.333 -13.333 96.5 -40 141.5s-63.5 84.833 -110.5 119.5s-95.833 52 -146.5 52l-61 -2l-54 -20l-63 92l352 350h-74c-42 0 -79.667 -0.666992 -113 -2
s-65 -2.66602 -95 -3.99902c-46.667 0 -92.667 -30 -138 -90l-102 37z" />
    <glyph glyph-name="four" unicode="4" horiz-adv-x="1089" 
d="M903 1309l-13 -115l-4 -78v-602h47h33l53 2c19.333 0 37.333 2.66699 54 8l-50 -159h-137v-256h111v-109h-584v109h166v256h-420l-94 -7v156l614 795h224zM258 514h321v432z" />
    <glyph glyph-name="five" unicode="5" horiz-adv-x="1089" 
d="M907 1391l104.001 -0.000976562l-59 -295l-62 6l-67 2h-330l-41 -213l39 10l66 12l67 7c62.667 0 122 -11 178 -33c56 -19.333 103.833 -51.5 143.5 -96.5s67.667 -92.5 84 -142.5s24.5 -103 24.5 -159c0 -54 -10.5 -115.833 -31.5 -185.5s-58.5 -130.167 -112.5 -181.5
s-115.167 -87.166 -183.5 -107.499s-125.5 -30.5 -171.5 -30.5c-41.333 0 -80 3.33301 -116 10s-75.333 19 -118 37c-79.333 32.667 -151 78.334 -215 137.001l190 217c45.333 -54.667 88.333 -100.334 129 -137.001c37.333 -32.667 71 -55.334 101 -68.001l69 -20l56 -6
c39.333 0 75 9.83301 107 29.5s55.667 47.834 71 84.501c12 37.333 18 75 18 113c0 102.667 -40.833 177.5 -122.5 224.5s-149.167 70.5 -202.5 70.5c-58.667 0 -115.334 -15.667 -170.001 -47l-123 26l133 676h528z" />
    <glyph glyph-name="six" unicode="6" horiz-adv-x="1089" 
d="M1033 1169l-179.999 -173.998c-40.667 56 -85 99.667 -133 131c-44.667 33.333 -91 50 -139 50c-5.33301 0 -15.166 -0.833008 -29.499 -2.5s-31.833 -4.5 -52.5 -8.5c-38 -4 -72 -36 -102 -96c-14 -28.667 -24.333 -59 -31 -91s-10 -68.667 -10 -110
c0 -43.333 4 -85.666 12 -126.999c112 83.333 213 125 303 125c48 0 99.667 -11.167 155 -33.5s101.333 -58.833 138 -109.5s59.167 -100.167 67.5 -148.5s12.5 -87.5 12.5 -117.5c0 -66 -12.333 -131.667 -37 -197s-62.334 -121.333 -113.001 -168
c-44.667 -40.667 -95.667 -71.334 -153 -92.001c-34.667 -10.667 -65.667 -17.834 -93 -21.501s-53 -5.5 -77 -5.5c-45.333 0 -98.333 8.66699 -159 26s-120.334 57.666 -179.001 120.999s-100.334 137.333 -125.001 222c-11.333 45.333 -19.666 87 -24.999 125
s-8 81 -8 129c0 58.667 3.33301 112.167 10 160.5s19 100.5 37 156.5c32.667 102.667 79.5 186.5 140.5 251.5s124.833 111.167 191.5 138.5c34 12 67.333 21.333 100 28s67 10 103 10c14.667 0 32 -0.666992 52 -2s45 -4.33301 75 -9s66.5 -20 109.5 -46
s89.5 -64.333 139.5 -115zM411.001 449.002c0 -34.667 5.16895 -68.666 15.502 -101.999s24.166 -67.666 41.499 -102.999c32.667 -60 62.667 -98.333 90 -115c27.333 -10.667 52.666 -17.334 75.999 -20.001c26 0 52 8.16699 78 24.5s45.5 40.166 58.5 71.499
s19.5 63.333 19.5 96l-8 72c-4.66699 35.333 -20.167 83.333 -46.5 144s-52.5 98.5 -78.5 113.5s-47.333 24.5 -64 28.5l-41 5c-26 0 -50.167 -6.83301 -72.5 -20.5s-39.333 -36 -51 -67s-17.5 -64.167 -17.5 -99.5v-28z" />
    <glyph glyph-name="seven" unicode="7" horiz-adv-x="1089" 
d="M270 1362l101.997 0.00195312l-10 -51h555l90 -193c-129.333 -162.667 -225.5 -335.334 -288.5 -518.001s-94.5 -368.334 -94.5 -557.001l2 -43h-305l-2 39v31c0 143.333 34.833 288.333 104.5 435s174.834 315.667 315.501 507l51 71h-162
c-109.333 0 -183.666 -6.5 -222.999 -19.5s-79.666 -56.833 -120.999 -131.5l-96 22z" />
    <glyph glyph-name="eight" unicode="8" horiz-adv-x="1089" 
d="M839 723c70 -56 119.332 -108.668 147.999 -158.001c31.333 -47.333 47 -99.666 47 -156.999l-6 -84c-4 -38.667 -28 -91.334 -72 -158.001s-98.667 -117.5 -164 -152.5s-141.666 -52.5 -228.999 -52.5c-94.667 0 -175 18.167 -241 54.5s-120.333 83.833 -163 142.5
c-38 60 -57 115.333 -57 166c0 73.333 14.333 140.333 43 201s80 119 154 175c-84.667 82 -127 170.333 -127 265c0 27.333 6.5 65.833 19.5 115.5s44 96.334 93 140.001s104.833 75.167 167.5 94.5c67.333 17.333 119.333 26 156 26c57.333 0 112 -8.66699 164 -26
c54.667 -16.667 97.667 -42 129 -76c34 -34 58.833 -70.5 74.5 -109.5s23.5 -79.5 23.5 -121.5c0 -20.667 -3 -44 -9 -70s-12.167 -45.5 -18.5 -58.5s-16.833 -29.833 -31.5 -50.5c-22 -32.667 -55.667 -68 -101 -106zM826.999 976.999
c-9.33301 39.333 -32.665 75.333 -69.998 108c-32.667 33.333 -65.334 56 -98.001 68c-14.667 5.33301 -29.667 10.5 -45 15.5s-24.333 7.5 -27 7.5l-51 6c-32.667 0 -58.167 -6.16699 -76.5 -18.5s-32.5 -28.833 -42.5 -49.5c-4 -10.667 -7.33301 -29 -10 -55
c0 -49.333 29 -93.833 87 -133.5s111.667 -72.5 161 -98.5l74 -41c35.333 26 61.166 51.667 77.499 77s24.5 53 24.5 83zM315 443.999c8 -51.333 34.167 -98.499 78.5 -141.499s96.833 -78.833 157.5 -107.5c48.667 -20.667 97 -31 145 -31c38 0 68.667 6.66699 92 20
c41.333 31.333 62 69 62 113c0 40.667 -18.833 77.5 -56.5 110.5s-81.167 61.833 -130.5 86.5l-143 75l-113 58c-32.667 -30 -58 -61.667 -76 -95c-12 -22.667 -18 -44.334 -18 -65.001c1.33301 -9.33301 2 -17 2 -23z" />
    <glyph glyph-name="nine" unicode="9" horiz-adv-x="1089" 
d="M81 147l183.995 176.999c50.667 -63.333 96.834 -110.666 138.501 -141.999s88.5 -47 140.5 -47l26 2c70 0 122 35.167 156 105.5s51 148.5 51 234.5l-6 74c-52 -30 -104.667 -55.333 -158 -76c-55.333 -17.333 -105 -26 -149 -26c-56 0 -113.667 14.333 -173 43
s-107.5 73.667 -144.5 135s-55.5 123.333 -55.5 186c0 84.667 13 166.667 39 246s67.333 139 124 179s110.334 67.167 161.001 81.5s102.334 21.5 155.001 21.5c63.333 0 130.5 -14.667 201.5 -44s131.333 -84.833 181 -166.5s82.167 -160.834 97.5 -237.501
c5.33301 -30 10 -63.167 14 -99.5s6 -66.833 6 -91.5c0 -113.333 -18.667 -222.833 -56 -328.5s-90.166 -188.167 -158.499 -247.5s-133.166 -100.666 -194.499 -123.999c-66 -22 -127 -33 -183 -33c-52 0 -99.5 6.5 -142.5 19.5s-85.667 32.167 -128 57.5
s-84.5 59 -126.5 101zM350.995 1059l-6 -62c0 -28.667 2.83301 -58 8.5 -88s14.5 -61.333 26.5 -94c24.667 -62.667 54.667 -108 90 -136s71.666 -42 108.999 -42c21.333 0 44.666 4.5 69.999 13.5s44.833 28.833 58.5 59.5s20.5 64.334 20.5 101.001
c0 61.333 -12.667 129.166 -38 203.499s-61 128.833 -107 163.5c-27.333 16 -56.666 24 -87.999 24c-22 0 -44 -5.5 -66 -16.5s-38.667 -27 -50 -48s-20.666 -47.167 -27.999 -78.5z" />
    <glyph glyph-name="colon" unicode=":" horiz-adv-x="419" 
d="M190 303l35 5.99902c38 0 73 -14.667 105 -44s48 -67.666 48 -114.999l-4 -44c-2.66699 -17.333 -11.5 -36 -26.5 -56s-34.833 -36 -59.5 -48c-24.667 -9.33301 -47 -14 -67 -14c-30 0 -63.167 11.833 -99.5 35.5s-54.5 62.834 -54.5 117.501
c0 41.333 9.5 75.666 28.5 102.999s50.5 47 94.5 59zM190 806.999l30.999 4.00098c38 0 73.667 -14.667 107 -44s50 -68 50 -116l-8 -65c-4 -32.667 -24.5 -57 -61.5 -73s-68.5 -24 -94.5 -24c-27.333 0 -51.666 7 -72.999 21c-49.333 35.333 -74 79.666 -74 132.999
c0 42.667 9.5 77.5 28.5 104.5s50.5 46.833 94.5 59.5z" />
    <glyph glyph-name="semicolon" unicode=";" horiz-adv-x="442" 
d="M184 807l31 4c38 0 73.667 -14.667 107 -44s50 -67.333 50 -114l-8 -65c-4 -32.667 -25.167 -57.667 -63.5 -75s-68.833 -26 -91.5 -26c-29.333 0 -61.333 13 -96 39s-52 65 -52 117c0 42.667 9.5 77.5 28.5 104.5s50.5 46.833 94.5 59.5zM127 -221l-29.001 97.999
c22 0 42.333 8.33301 61 25c15.333 10.667 27 21.834 35 33.501s12 24.167 12 37.5c-28.667 0 -55.167 7.16699 -79.5 21.5s-42.833 32.5 -55.5 54.5c-8 20.667 -12 42 -12 64c0 38 9.5 70 28.5 96s42.167 44.167 69.5 54.5s54 15.5 80 15.5
c23.333 0 48.333 -7.66699 75 -23s47.834 -38.333 63.501 -69s23.5 -63 23.5 -97c0 -46.667 -14 -93.5 -42 -140.5s-58.333 -82 -91 -105s-79 -44.833 -139 -65.5z" />
    <glyph glyph-name="less" unicode="&#x3c;" horiz-adv-x="1105" 
d="M92 780l958 359v-258l-616 -219l616 -220v-256l-958 359v235z" />
    <glyph glyph-name="equal" unicode="=" horiz-adv-x="1783" 
d="M1721 467v-221h-1597v221h1597zM1721 1085v-223h-1597v223h1597z" />
    <glyph glyph-name="greater" unicode="&#x3e;" horiz-adv-x="1105" 
d="M1050 545l-958 -359v256l616 220l-616 219v258l958 -359v-235z" />
    <glyph glyph-name="question" unicode="?" horiz-adv-x="935" 
d="M550 459l-181.999 -0.000976562l-12 67l-4 66c0 40.667 6.83301 80.834 20.5 120.501s36.834 84.167 69.501 133.5l41 61c40.667 57.333 71.667 106.166 93 146.499s32 83.166 32 128.499c0 12 -1 25.5 -3 40.5s-8.66699 33.5 -20 55.5c-12 32.667 -28.667 59.667 -50 81
s-41.333 34 -60 38l-43 6c-18 0 -33.667 -3.33301 -47 -10c-10 -2.66699 -23.667 -13 -41 -31c-11.333 -10.667 -20.333 -27.667 -27 -51l-8 -62c0 -21.333 2.33301 -45 7 -71s11.667 -47.333 21 -64l41 -76l-252 -127c-8 16.667 -15.667 33.834 -23 51.501
s-15.333 38.167 -24 61.5c-10.667 39.333 -16 79.666 -16 120.999c0 42 5.5 80.833 16.5 116.5s33.167 75.334 66.5 119.001s87 82.5 161 116.5c35.333 15.333 70.666 27 105.999 35s72.333 12 111 12c23.333 0 60.166 -4 110.499 -12s103.5 -35 159.5 -81
s88.667 -92.667 98 -140c6 -24.667 10.333 -45.167 13 -61.5s4 -34.166 4 -53.499c0 -118.667 -71 -253 -213 -403l-37 -39c-39.333 -41.333 -68 -81.5 -86 -120.5s-27 -78.167 -27 -117.5l2 -31zM382.001 325.999c27.333 16 57.001 23.998 89.001 23.998
c25.333 0 57.833 -9.5 97.5 -28.5s64.5 -61.833 74.5 -128.5c0 -14 -0.333008 -27.167 -1 -39.5s-4.5 -28.666 -11.5 -48.999s-22.833 -42.833 -47.5 -67.5c-4 -4 -11.833 -9.16699 -23.5 -15.5l-37.5 -19.5c-23.333 -8 -46 -12 -68 -12h-18l-33 10
c-14 4 -31.833 16 -53.5 36s-36.667 41.167 -45 63.5s-12.5 44.5 -12.5 66.5c0 18 1.5 32.667 4.5 44s10.167 28.333 21.5 51s32.666 44.334 63.999 65.001z" />
    <glyph glyph-name="at" unicode="@" horiz-adv-x="1916" 
d="M1130 332c-43.333 -68.667 -91.6631 -118.671 -144.996 -150.004c-26 -13.333 -53.333 -24.166 -82 -32.499s-59.334 -12.5 -92.001 -12.5c-49.333 0 -99 12.333 -149 37s-90.667 63.667 -122 117s-47 118 -47 194c0 94.667 22.5 186.667 67.5 276
s104.5 161.333 178.5 216c38 28.667 74.167 49.5 108.5 62.5s71.166 19.5 110.499 19.5c84.667 0 145.334 -13.667 182.001 -41c37.333 -24.667 68.333 -64.334 93 -119.001l36 123h248l-131 -457l-31 -108c-8 -37.333 -12 -70.333 -12 -99c0 -27.333 6.33301 -49 19 -65
c12 -12.667 35 -19 69 -19l66 9c27.333 5.33301 61.333 29.666 102 72.999c35.333 41.333 68.166 97.833 98.499 169.5s45.5 153.834 45.5 246.501c0 60 -8 118.333 -24 175s-49.167 119.834 -99.5 189.501s-135.5 123.5 -255.5 161.5
c-63.333 19.333 -121.5 33.833 -174.5 43.5s-106.833 14.5 -161.5 14.5c-140.667 0 -268.334 -33.833 -383.001 -101.5s-201 -153.667 -259 -258s-95.667 -191.666 -113 -261.999s-26 -143.166 -26 -218.499c0 -68 6.16699 -132.5 18.5 -193.5
s42.166 -133.833 89.499 -218.5s128.666 -157.667 243.999 -219s233 -92 353 -92c121.333 0 238 15 350 45s224.667 80 338 150l51 -84c-114.667 -72.667 -237.5 -128.5 -368.5 -167.5s-258.5 -58.5 -382.5 -58.5c-154.667 0 -299.167 33.167 -433.5 99.5
s-242.166 163.666 -323.499 291.999s-122 260.166 -122 395.499l-2 39l-2 41c0 136.667 30.667 269.5 92 398.5s145.333 232 252 309s217.334 130.5 332.001 160.5c53.333 15.333 108.333 27 165 35s113.667 12 171 12c147.333 0 279.666 -25.167 396.999 -75.5
s206 -117.166 266 -200.499s95 -164 105 -242c5.33301 -36.667 9.33301 -68.667 12 -96s4 -50.666 4 -69.999c0 -96.667 -18.833 -196.167 -56.5 -298.5s-95.667 -184.666 -174 -246.999s-165.833 -93.5 -262.5 -93.5c-36 0 -71 6.83301 -105 20.5s-62.667 34.167 -86 61.5
c-18 26 -31 63.667 -39 113zM755.003 405.996c0 -58 15.666 -96.334 46.999 -115.001c32 -16.667 59.333 -25 82 -25c22 0 51.5 8.5 88.5 25.5s76 80.5 117 190.5s64.833 185.667 71.5 227l8 82c0 25.333 -2.66699 46.333 -8 63s-18 32.834 -38 48.501s-47 23.5 -81 23.5
c-16 0 -43.167 -6.5 -81.5 -19.5s-82.166 -85.833 -131.499 -218.5s-74 -226.667 -74 -282z" />
    <glyph glyph-name="A" unicode="A" horiz-adv-x="1536" 
d="M653 1501h342l6 -51l15 -53l422 -1276h116v-121h-569v121h98l-88 285h-530l-92 -285h129v-121h-455v121h123l459 1276l14 57zM741 1206l-231 -659h440z" />
    <glyph glyph-name="B" unicode="B" horiz-adv-x="1355" 
d="M714 1520c90 0 168.168 -7.83301 234.501 -23.5s121.166 -54.5 164.499 -116.5c19.333 -22.667 33.666 -50.667 42.999 -84c4 -16 7.5 -31.167 10.5 -45.5s4.5 -30.5 4.5 -48.5c0 -30 -6.5 -65.833 -19.5 -107.5s-35.333 -76.167 -67 -103.5s-76.167 -51 -133.5 -71
c98.667 -23.333 172.167 -52.166 220.5 -86.499s91 -81.5 128 -141.5s55.5 -130.333 55.5 -211s-24.667 -162.834 -74 -246.501s-123.166 -143.667 -221.499 -180s-201.833 -54.5 -310.5 -54.5h-668v121h141v1276h-141v123h633zM749.001 987
c72 19.333 115.167 52.167 129.5 98.5s21.5 80.5 21.5 102.5c0 50.667 -13.667 93 -41 127s-61.5 56.167 -102.5 66.5s-94.167 15.5 -159.5 15.5h-61v-432l120 2c23.333 0 54.333 6.66699 93 20zM820.001 152.001c53.333 18.667 95.998 46.501 127.998 83.501
s54.167 79 66.5 126s18.5 87.5 18.5 121.5c0 37.333 -5.66699 75 -17 113s-33.166 76.167 -65.499 114.5s-74.333 65.666 -126 81.999s-109.167 24.5 -172.5 24.5h-36h-80v-696h45h59h39c16.667 2.66699 28.334 4 35.001 4c34 4 69.333 13 106 27z" />
    <glyph glyph-name="C" unicode="C" horiz-adv-x="1511" 
d="M1357 1397l70.001 62.998l77 -88l-354 -321l-82 86c10 9.33301 19.333 25 28 47s13 43 13 63c0 22 -7.16699 45 -21.5 69s-37.166 46.667 -68.499 68c-26 16.667 -56.667 28.334 -92 35.001l-64 6c-56 0 -109.667 -11.333 -161 -34c-53.333 -20.667 -104 -57 -152 -109
s-86.333 -123.667 -115 -215c-13.333 -45.333 -23.5 -89.166 -30.5 -131.499s-10.5 -87.166 -10.5 -134.499c0 -64 8.66699 -132.333 26 -205s55.666 -149.5 114.999 -230.5s128.5 -137.667 207.5 -170s147.167 -48.5 204.5 -48.5c88.667 0 164 18.667 226 56l116 80l62 55
l84 -100c-84.667 -97.333 -180.334 -169.166 -287.001 -215.499s-214.667 -69.5 -324 -69.5l-57 2c-14.667 0 -36.667 2.66699 -66 8l-75 14c-82 12.667 -167.333 52.5 -256 119.5s-159.334 158.167 -212.001 273.5s-79 235 -79 359c0 84.667 9.16699 163.167 27.5 235.5
s58 155.666 119 249.999s152.5 175.666 274.5 243.999s243 102.5 363 102.5c90.667 0 174.834 -12 252.501 -36s158.167 -66.667 241.5 -128z" />
    <glyph glyph-name="D" unicode="D" horiz-adv-x="1527" 
d="M759 1520c154 0 287.667 -27.333 401 -82s203.833 -146.5 271.5 -275.5s101.5 -263.833 101.5 -404.5c0 -158.667 -41 -302.5 -123 -431.5s-187.167 -215.667 -315.5 -260s-274.833 -66.5 -439.5 -66.5h-580v121h141v1276h-141v123h684zM530 121l36.998 -0.00195312h96
c38 0 114.333 14.667 229 44s192.834 100.333 234.501 213s66.667 191.834 75 237.501s12.5 95.167 12.5 148.5c0 84.667 -10.667 163.5 -32 236.5s-62.333 145.667 -123 218s-132 120.833 -214 145.5c-42 10.667 -87.667 18.834 -137 24.501s-108.666 8.5 -177.999 8.5
v-1276z" />
    <glyph glyph-name="E" unicode="E" horiz-adv-x="1200" 
d="M1091 1528l130.998 -295.001l-96 -45c-63.333 92.667 -128.666 150.667 -195.999 174s-167.333 35 -300 35h-100v-445h471v131h125v-421h-125v151h-471v-692h37c156.667 0 271.834 17.333 345.501 52s129.167 75.334 166.5 122.001l65 84l18 37l97 -47l-180 -387l-50 14
l-77 4h-877v121h141v1276h-141v123h866h35h74z" />
    <glyph glyph-name="F" unicode="F" horiz-adv-x="1167" 
d="M698 0h-623.001v121h141v1276h-141v123h866h35h74l41 8l131 -295l-96 -45c-63.333 92.667 -128.666 150.667 -195.999 174s-167.333 35 -300 35h-100v-445h471v131h125v-421h-125v151h-471v-692h168v-121z" />
    <glyph glyph-name="G" unicode="G" horiz-adv-x="1591" 
d="M1420 1391l78.002 68.999l88 -86l-376 -340l-78 82c20 27.333 30 61.666 30 102.999c0 25.333 -7.16699 52.833 -21.5 82.5s-39.5 55 -75.5 76s-68.333 33.5 -97 37.5l-72 6c-32.667 0 -62 -2.66699 -88 -8s-56.667 -16.333 -92 -33
c-62.667 -27.333 -116.834 -67.166 -162.501 -119.499s-81.5 -121.5 -107.5 -207.5s-39 -172 -39 -258c0 -62 10.167 -134.167 30.5 -216.5s63 -166.833 128 -253.5s135.5 -144.334 211.5 -173.001c80.667 -26 144.334 -39 191.001 -39c40.667 0 74.667 3.66699 102 11
s53.333 20.666 78 39.999s45.167 48.333 61.5 87s24.5 94.334 24.5 167.001v43v280h-323v156h522h22c10 0 25.167 1.33301 45.5 4s34.5 6 42.5 10l52 -100c-32 -32.667 -51.667 -64.667 -59 -96s-11 -72.333 -11 -123v-324v-69c0 -19.333 3.33301 -41.333 10 -66
c-103.333 -53.333 -214.833 -96.333 -334.5 -129s-234.167 -49 -343.5 -49c-72 0 -138.833 6.5 -200.5 19.5s-134 41.333 -217 85s-159.667 119.834 -230 228.501s-110 200.167 -119 274.5s-13.5 128.5 -13.5 162.5c0 104 22.667 211.333 68 322
c21.333 54 48.5 105 81.5 153s70.5 91.667 112.5 131c83.333 79.333 176.5 137.5 279.5 174.5s207.167 55.5 312.5 55.5c45.333 0 77.166 -1.16699 95.499 -3.5s44.5 -6.83301 78.5 -13.5c53.333 -12 104.166 -29.667 152.499 -53s102.5 -56.666 162.5 -99.999z" />
    <glyph glyph-name="H" unicode="H" horiz-adv-x="1564" 
d="M1118 821h-596v-700h141v-121h-596v121h141v1276h-141v123h596v-123h-141v-436h596v436h-140v123h594v-123h-139v-1276h139v-121h-594v121h140v700z" />
    <glyph glyph-name="I" unicode="I" horiz-adv-x="704" 
d="M75 1520h594v-123h-139v-1276h139v-121h-594v121h141v1276h-141v123z" />
    <glyph glyph-name="J" unicode="J" horiz-adv-x="770" 
d="M282 1397l-142 0.00195312v123h598v-123h-141v-1004c0 -80.667 -7.5 -146.5 -22.5 -197.5s-46.333 -93 -94 -126s-90.834 -54.167 -129.501 -63.5c-18.667 -4 -38 -7.33301 -58 -10s-41.667 -4 -65 -4c-61.333 0 -118.666 10.333 -171.999 31l-18 180l57 -15l43 -4
c19.333 0 35.833 2.16699 49.5 6.5s26.5 11.833 38.5 22.5c22 18 37 44 45 78c6 31.333 9.33301 55.166 10 71.499s1 29.166 1 38.499v996z" />
    <glyph glyph-name="K" unicode="K" horiz-adv-x="1466" 
d="M530 567v-446h139v-121h-594v121h141v1276h-141v123h594v-123h-139v-600l506 600h-156v123h481v-123h-112l-396 -455l508 -821h115v-121h-584v121h117l-363 586z" />
    <glyph glyph-name="L" unicode="L" horiz-adv-x="1146" 
d="M693 1520v-123h-163v-1276h69c154.667 0 263.667 14.333 327 43s124.333 110 183 244l92 -29l-155 -467h-103l29 88h-897v121h141v1276h-141v123h618z" />
    <glyph glyph-name="M" unicode="M" horiz-adv-x="1845" 
d="M671 1520l6.00098 -53.999c1.33301 -16 2.83301 -26.833 4.5 -32.5s5.83398 -17.834 12.501 -36.501l268 -883l338 883l16 61l13 62h422v-123h-144l121 -1276h129v-121h-618v121h143l-55 864l-64 -137l-129 -318c-58.667 -147.333 -100.334 -260.5 -125.001 -339.5
s-42.334 -142.5 -53.001 -190.5h-182l-6 49l-19 72l-268 854l-113 -854h139v-121h-446v121h133l199 1276h-137v123h415z" />
    <glyph glyph-name="N" unicode="N" horiz-adv-x="1470" 
d="M450 1520l706 -969v846h-145v123h469v-123h-143v-1311v-41l6 -45h-213l-21 41l-37 53l-684 946v-919h142v-121h-455v121h141v1276h-141v123h375z" />
    <glyph glyph-name="O" unicode="O" 
d="M794 1554l117.003 6.99805c113.333 0 224.166 -20.167 332.499 -60.5s198 -103.166 269 -188.499s123.333 -179.166 157 -281.499s50.5 -202.833 50.5 -301.5c0 -76.667 -14.333 -162.334 -43 -257.001s-89.5 -189.834 -182.5 -285.501s-190.5 -158.5 -292.5 -188.5
c-46.667 -14 -96 -25 -148 -33s-102.333 -12 -151 -12c-108 0 -211.833 14.667 -311.5 44s-189.834 78.5 -270.501 147.5s-143.667 159.5 -189 271.5c-20 56 -35.5 111.667 -46.5 167s-16.5 110.333 -16.5 165c0 38 5.16699 99 15.5 183s50 177.5 119 280.5
s150.167 177.333 243.5 223s164.666 76.167 213.999 91.5c26 6.66699 50.833 12.334 74.5 17.001s43.167 8.33398 58.5 11.001zM692.003 1378c-86 -35.333 -152.335 -87.667 -199.002 -157c-41.333 -66 -68.666 -132.333 -81.999 -199s-20 -120 -20 -160
c0 -113.333 20.667 -229.666 62 -348.999s92.833 -207.333 154.5 -264s121.167 -97.334 178.5 -122.001c53.333 -20.667 105.666 -31 156.999 -31c24.667 0 47.334 1.33301 68.001 4s48.667 9 84 19c58.667 16 112.667 50 162 102s83.833 107 103.5 165
s32.167 107.667 37.5 149l8 122c0 101.333 -15.667 201.5 -47 300.5s-75 182.667 -131 251s-118.167 118.5 -186.5 150.5s-133.166 48 -194.499 48h-24l-35 -6l-37 -6z" />
    <glyph glyph-name="P" unicode="P" horiz-adv-x="1363" 
d="M79 1520l588 -0.00292969c189.333 0 328.833 -26.667 418.5 -80s158 -124.666 205 -213.999s70.5 -182.666 70.5 -279.999c0 -113.333 -30.667 -219.5 -92 -318.5s-152 -164.833 -272 -197.5c-56 -13.333 -118.833 -24.166 -188.5 -32.499s-143.5 -12.5 -221.5 -12.5h-53
v-264h153v-121h-608v121h141v1276h-141v123zM534 810.997c0 -94 2.66602 -157.168 7.99902 -189.501s23 -60 53 -83s70.333 -34.5 121 -34.5l45 2c9.33301 1.33301 19.5 3.33301 30.5 6s26.167 8 45.5 16c36.667 12.667 69.667 38.834 99 78.501s49.833 81.334 61.5 125.001
s18.834 78.5 21.501 104.5l4 75c0 67.333 -8.66699 130.333 -26 189c-16.667 61.333 -47 116.666 -91 165.999c-40.667 51.333 -92 86 -154 104s-134.667 27 -218 27v-586z" />
    <glyph glyph-name="Q" unicode="Q" 
d="M1071 -33c38 -4 83.667 -16.3311 137 -36.998l125 -51c69.333 -20.667 128.333 -35 177 -43s108.334 -12 179.001 -12l-229 -254c-40 0 -68.167 1.33301 -84.5 4s-38.166 8.66699 -65.499 18l-92 35l-158 70c-62.667 27.333 -121 48.166 -175 62.499
s-103.333 21.5 -148 21.5c-49.333 0 -96.166 -6.83301 -140.499 -20.5s-94.5 -36.167 -150.5 -67.5l-127 114c44 8.66699 100 30 168 64s126.667 70.333 176 109c-66.667 12 -126.334 30.667 -179.001 56s-114.834 67 -186.501 125s-128.834 143 -171.501 255
c-20 56 -35.5 111.667 -46.5 167s-16.5 110.333 -16.5 165c0 38 5.16699 99 15.5 183s50 177.5 119 280.5s150.167 177.333 243.5 223s162.166 75 206.499 88s89.833 22.833 136.5 29.5l123 9c113.333 0 223.833 -20.5 331.5 -61.5s197 -103.833 268 -188.5
s123.333 -178.167 157 -280.5s50.5 -202.833 50.5 -301.5c0 -76.667 -13.667 -162.334 -41 -257.001s-87.166 -188.167 -179.499 -280.5s-178.333 -152.833 -258 -181.5s-134.5 -43 -164.5 -43zM686 1378c-86 -35.333 -152.335 -87.667 -199.002 -157
c-41.333 -66 -68.666 -132.333 -81.999 -199s-20 -120 -20 -160c0 -113.333 20.667 -229.666 62 -348.999s92.833 -207.333 154.5 -264s121.167 -97.334 178.5 -122.001c53.333 -20.667 105.666 -31 156.999 -31c24.667 0 47.334 1.33301 68.001 4s48.667 9 84 19
c58.667 16 112.334 49 161.001 99s83.667 105.667 105 167c19.333 60 31.666 110 36.999 150l8 122c0 101.333 -15.667 201.5 -47 300.5s-75 182.667 -131 251s-118.167 118.5 -186.5 150.5s-133.166 48 -194.499 48h-24l-25 -4c-22 0 -42.333 -3.33301 -61 -10z" />
    <glyph glyph-name="R" unicode="R" horiz-adv-x="1441" 
d="M75 1520h675.999c61.333 0 119 -4.16699 173 -12.5s108.333 -22.166 163 -41.499c104.667 -32.667 183 -84.5 235 -155.5s85 -133.833 99 -188.5c6.66699 -24.667 12 -49.834 16 -75.501s6 -52.834 6 -81.501c0 -52 -10.5 -116.667 -31.5 -194
s-65.667 -144.666 -134 -201.999s-151.166 -98.333 -248.499 -123l242 -325h125v-121h-424l-18 35c-4.66699 12 -17 30.333 -37 55l-109 141l-139 181h-139v-291h139v-121h-594v121h141v1276h-141v123zM529.999 545c132 0 226.331 7.50293 282.998 22.5029
s110.334 43 161.001 84s84.834 90.167 102.501 147.5s26.5 109.666 26.5 156.999c0 37.333 -1 63.166 -3 77.499s-6 32.666 -12 54.999s-15.5 46.166 -28.5 71.499s-29.833 53 -50.5 83c-38 56 -93.333 96.333 -166 121c-36.667 10.667 -77.5 18.834 -122.5 24.501
s-99.833 8.5 -164.5 8.5h-26v-852z" />
    <glyph glyph-name="S" unicode="S" horiz-adv-x="1263" 
d="M1073 1452l63.001 85.998l101 -74l-191 -272c-126.667 139.333 -261 209 -403 209l-35 -2l-47 -4c-18 0 -40.667 -9.66699 -68 -29c-26 -15.333 -46.5 -35.5 -61.5 -60.5s-22.5 -51.167 -22.5 -78.5c0 -28.667 5 -52.667 15 -72c16 -45.333 45.333 -80.666 88 -105.999
c20 -11.333 43 -22.333 69 -33l90 -33l177 -55c91.333 -27.333 172.333 -66.333 243 -117c67.333 -45.333 109.166 -90.166 125.499 -134.499s26.5 -80.166 30.5 -107.499l6 -65c0 -102.667 -34.167 -201.834 -102.5 -297.501s-148.166 -161.834 -239.499 -198.501
s-185.666 -55 -282.999 -55c-81.333 0 -175 22.5 -281 67.5s-203.333 105.167 -292 180.5l201 270c94 -101.333 181.667 -178.833 263 -232.5s167.666 -80.5 258.999 -80.5c26 0 48.5 1.66699 67.5 5s43.5 13.166 73.5 29.499s55.333 42 76 77s31 72.167 31 111.5
c0 22 -6.5 51 -19.5 87s-39.333 65.333 -79 88s-97.167 45.667 -172.5 69l-149 43c-144.667 43.333 -246.667 92.666 -306 147.999s-93.5 108 -102.5 158s-13.5 89.333 -13.5 118c0 66.667 11.667 128.334 35 185.001s60.833 106.834 112.5 150.501
s109.167 77.167 172.5 100.5c32.667 10.667 64 18.834 94 24.501s63.333 8.5 100 8.5c68 0 130 -8 186 -24s98.667 -31.5 128 -46.5s49.666 -27.833 60.999 -38.5z" />
    <glyph glyph-name="T" unicode="T" horiz-adv-x="1212" 
d="M1068 1520l-10 57h105l80 -436h-107c-13.333 58.667 -29 105.667 -47 141s-43.667 59.5 -77 72.5s-68.333 21.5 -105 25.5l-115 4v-1263h166v-121h-647v121h166v1263l-99 -2c-36.667 0 -73.334 -8 -110.001 -24c-37.333 -12.667 -65.166 -36 -83.499 -70
s-34.833 -83 -49.5 -147h-109l80 436h106l-10 -57h866z" />
    <glyph glyph-name="U" unicode="U" horiz-adv-x="1568" 
d="M1423 121l125.001 -0.00195312v-121h-435l-10 57l-6 56c-66.667 -48 -137 -86.333 -211 -115s-145 -43 -213 -43c-75.333 0 -156.333 20.167 -243 60.5s-144 100 -172 179s-42 185.5 -42 319.5v883h-141v123h455v-967c0 -98 7.33301 -175 22 -231
c14 -59.333 46.5 -102.833 97.5 -130.5s107.833 -41.5 170.5 -41.5l86 6c19.333 4 49.166 18.333 89.499 43s69.333 64.834 87 120.501s26.5 125.834 26.5 210.501v867h-141v123h455v-1399z" />
    <glyph glyph-name="V" unicode="V" horiz-adv-x="1503" 
d="M1476 1520l63.999 -68.001l-78 -123c-18 -31.333 -37 -75.666 -57 -132.999l-394 -1075l-18 -62l-14 -59h-322l-10 41c-1.33301 8 -3.66602 18.5 -6.99902 31.5s-8.66602 29.167 -15.999 48.5l-456 1276h-115v123h547v-123h-88l73 -207
c72.667 113.333 140.667 196.333 204 249s132.666 79 207.999 79c45.333 0 100 -10.333 164 -31l39 -12l47 -13l47 -4c31.333 0 61.333 5 90 15c14 4 29.167 10 45.5 18s31.833 17.667 46.5 29zM1100 1251l-58.001 16.998l-71 16l-60 6c-43.333 0 -81 -7.33301 -113 -22
c-34 -12.667 -62.167 -33 -84.5 -61s-39.166 -51.333 -50.499 -70l-35 -82l263 -774l346 952l-64 2c-17.333 2.66699 -28.5 4.33398 -33.5 5.00098s-18.167 4.33398 -39.5 11.001z" />
    <glyph glyph-name="W" unicode="W" horiz-adv-x="2164" 
d="M2144 1530l66 -68.001l-54 -90c-17.333 -31.333 -33.666 -65.333 -48.999 -102l-395 -1102l-29 -80l-24 -88h-301l-11 47c-1.33301 10.667 -3.33301 20.834 -6 30.501s-8 24.167 -16 43.5l-158 452l-166 -452l-34 -121h-318l-6 45
c-1.33301 9.33301 -3.33301 19.5 -6 30.5s-8.33398 26.167 -17.001 45.5l-452 1276h-119v123h563v-123h-94l362 -1100l191 549l-195 551h-118v123h563v-123h-92l55 -170c70.667 110.667 133 187.167 187 229.5s119.333 63.5 196 63.5c48 0 108 -8.33301 180 -25l45 -10
c35.333 -8 66 -12 92 -12c46.667 0 100 19 160 57zM1853 1249l-35 4l-57 19l-78 22c-26 6 -44.667 9.33301 -56 10s-20.666 1 -27.999 1c-38 0 -72.333 -6.5 -103 -19.5s-58.334 -32.5 -83.001 -58.5c-14 -16.667 -23.667 -29 -29 -37l-24 -43
c-12.667 -24.667 -21 -48 -25 -70l250 -764l326 940l-27 -2z" />
    <glyph glyph-name="X" unicode="X" horiz-adv-x="1462" 
d="M87 1520h619v-123h-125l270 -457l264 457h-127v123h453v-123h-115l-383 -611l393 -665h142v-121h-641v121h127l-299 508l-301 -508h129v-121h-455v121h115l417 665l-362 611h-121v123z" />
    <glyph glyph-name="Y" unicode="Y" horiz-adv-x="1466" 
d="M49 1520h616v-123h-145l334 -619l325 619h-147v123h447v-123h-105l-584 -1161l25 2l29 2c26 0 57.333 -6.16699 94 -18.5s68 -18.5 94 -18.5c22 0 41.667 4.66699 59 14l41 33l35 49l64 -31c-20.667 -62.667 -50.167 -123 -88.5 -181s-71.833 -91 -100.5 -99l-65 -11
c-30 0 -78 8.33301 -144 25l-61 14c-34 8.66699 -58 13 -72 13l-37 -4l-43 -13c-13.333 -4 -35 -19 -65 -45l-90 64l211 409l-512 957h-115v123z" />
    <glyph glyph-name="Z" unicode="Z" horiz-adv-x="1148" 
d="M190 1579l112.002 0.000976562l-8 -59h631h27h37l53 8l116 -221l-110 -127l-729 -932h356c121.333 0 207.333 13 258 39s87 92.667 109 200h108l-61 -557h-123l8 70h-733c-24.667 0 -44.334 -1.33301 -59.001 -4l-43 -8l-111 202l33 33l45 53l807 1029h-285
c-134 0 -224.833 -11.333 -272.5 -34s-87.834 -91.334 -120.501 -206.001h-111z" />
    <glyph glyph-name="bracketleft" unicode="[" horiz-adv-x="630" 
d="M315 1460v-1704h260v-65h-477v1829h477v-60h-260z" />
    <glyph glyph-name="backslash" unicode="\" horiz-adv-x="1435" 
d="M1433 8l-164 -127l-1208 1630l162 127z" />
    <glyph glyph-name="bracketright" unicode="]" horiz-adv-x="630" 
d="M94 1520h477v-1827h-477v65h258v1704h-258v58z" />
    <glyph glyph-name="asciicircum" unicode="^" horiz-adv-x="798" 
d="M423 1354l-239 -148l-123 103l352 211l355 -211l-123 -103z" />
    <glyph glyph-name="underscore" unicode="_" horiz-adv-x="1050" 
d="M1142 -266h-1178v80h1178v-80z" />
    <glyph glyph-name="grave" unicode="`" horiz-adv-x="512" 
d="M174 1550l330 -241l-62 -113l-352 195z" />
    <glyph glyph-name="a" unicode="a" horiz-adv-x="1144" 
d="M286 1065l102 -29.001l-18 -53c94 54.667 195 82 303 82c44 0 81.333 -4.5 112 -13.5s66.5 -29.5 107.5 -61.5s70 -75.667 87 -131s25.5 -119 25.5 -191v-566h119v-102h-367c-13.333 32.667 -23.666 67.334 -30.999 104.001c-104.667 -96.667 -209 -145 -313 -145l-76 6
c-32.667 4 -72.834 21.333 -120.501 52s-86.5 74 -116.5 130c-20.667 44 -31 91.333 -31 142c0 72 22.5 143.5 67.5 214.5s115.333 118.5 211 142.5s202.167 36 319.5 36h68c0 23.333 -1.16699 45.5 -3.5 66.5s-8.83301 44.5 -19.5 70.5c-12 40 -36.667 66.667 -74 80
l-67 10c-46.667 0 -95.167 -16.333 -145.5 -49s-97.5 -77 -141.5 -133l-98 31zM411 488.999c-39.333 -36.667 -58.999 -85.001 -58.999 -145.001c0 -18 3 -38.167 9 -60.5s18.833 -45.166 38.5 -68.499s42.5 -41 68.5 -53c20.667 -6.66699 42 -11.667 64 -15
c40.667 0 77.334 11.667 110.001 35c45.333 32.667 73.166 81.167 83.499 145.5s15.5 141.5 15.5 231.5c-116 0 -192.833 -4.5 -230.5 -13.5s-70.834 -27.833 -99.501 -56.5z" />
    <glyph glyph-name="b" unicode="b" horiz-adv-x="1228" 
d="M581 1546l0.00585938 -120.999l-117 -34v-443l10 4c57.333 36 112.666 63.5 165.999 82.5s104.666 28.5 153.999 28.5c28.667 0 55.667 -2.66699 81 -8s55.666 -16.333 90.999 -33c61.333 -24.667 112.166 -67.334 152.499 -128.001s65.166 -115.667 74.499 -165l19 -108
l4 -72c0 -76.667 -11 -147.667 -33 -213s-61.667 -128.833 -119 -190.5s-127.333 -108.167 -210 -139.5s-164 -47 -244 -47c-15.333 0 -33.833 0.666992 -55.5 2s-53.334 4.33301 -95.001 9s-80.5 18.667 -116.5 42c-26 16.667 -82.667 59.667 -170 129
c8.66699 24.667 13 69.667 13 135v1027l-113 -35v116zM530.006 850.001c-34 -20.667 -56.001 -36.3311 -66.001 -46.998v-395c0 -79.333 4.16699 -138.5 12.5 -177.5s28.166 -69.833 59.499 -92.5s58 -37.334 80 -44.001l69 -8c33.333 0 66.333 6.66699 99 20
c35.333 12.667 65.333 37 90 73s42.334 72 53.001 108c8 35.333 12 73.333 12 114c0 70 -9.5 144.5 -28.5 223.5s-44.167 135.167 -75.5 168.5c-27.333 31.333 -58.166 54.833 -92.499 70.5s-64.833 23.5 -91.5 23.5l-37 -6c-20.667 -2.66699 -35 -6.33398 -43 -11.001z" />
    <glyph glyph-name="c" unicode="c" horiz-adv-x="1050" 
d="M1071 860l-221.999 -215.001c-20 65.333 -48.5 125.333 -85.5 180s-75.167 87.667 -114.5 99l-86 14c-27.333 0 -52 -4.5 -74 -13.5s-43.333 -23.5 -64 -43.5c-32.667 -31.333 -57 -75 -73 -131c-6.66699 -26 -12.167 -53.333 -16.5 -82s-6.5 -58 -6.5 -88
c0 -28.667 2 -51.334 6 -68.001c8.66699 -61.333 34.167 -124.5 76.5 -189.5s95.5 -113.167 159.5 -144.5c31.333 -16 69.666 -24 114.999 -24c62.667 0 109.667 10.667 141 32l57 39l70 62l88 -80c-70 -83.333 -144.5 -145.166 -223.5 -185.499s-161.5 -60.5 -247.5 -60.5
c-31.333 0 -75 4.66699 -131 14c-60 8.66699 -121.167 35.834 -183.5 81.501s-111.166 110.167 -146.499 193.5c-31.333 83.333 -47 164 -47 242c0 64 9.16699 126 27.5 186s51.166 121 98.499 183s112.5 111.5 195.5 148.5s167.5 55.5 253.5 55.5h33l78 -12
c38 -4 86.167 -21.167 144.5 -51.5s117.5 -77.5 177.5 -141.5z" />
    <glyph glyph-name="d" unicode="d" horiz-adv-x="1271" 
d="M866 1303l-115.003 -34.999v116l508 162v-121l-113 -34v-1289h113v-102h-373l-14 39c-4 22 -7.33301 34.333 -10 37c-68.667 -38.667 -131 -67.334 -187 -86.001c-53.333 -20.667 -107.666 -31 -162.999 -31c-58 0 -123.833 18.5 -197.5 55.5s-134 95 -181 174
s-70.5 158.167 -70.5 237.5c0 102.667 18.167 202.334 54.5 299.001s100.833 177.5 193.5 242.5s192.334 97.5 299.001 97.5c24.667 0 43.834 -0.666992 57.501 -2s32.667 -4.83301 57 -10.5s45.5 -10.834 63.5 -15.501s41.333 -13.667 70 -27l8 -4v297zM502.997 901.001
c-47.333 -36.667 -82.666 -89.832 -105.999 -159.499s-35 -135.834 -35 -198.501v-33l12 -92c7.33301 -50.667 28.333 -101.667 63 -153s71.667 -87 111 -107c42.667 -18 80.334 -27 113.001 -27c46.667 0 89.667 13 129 39s64.666 52.667 75.999 80v555
c-2.66699 9.33301 -6.83398 18.833 -12.501 28.5s-13.167 20.5 -22.5 32.5c-16.667 20.667 -38.5 39.5 -65.5 56.5s-65.833 25.5 -116.5 25.5c-28.667 0 -56.667 -4 -84 -12l-29 -14z" />
    <glyph glyph-name="e" unicode="e" horiz-adv-x="1099" 
d="M1079 662l-700.999 -267.001c32.667 -74.667 78.5 -133.834 137.5 -177.501s119.167 -65.5 180.5 -65.5c53.333 0 103.166 10.5 149.499 31.5s96.833 60.833 151.5 119.5l84 -70c-68.667 -87.333 -148.334 -154.833 -239.001 -202.5s-179 -71.5 -265 -71.5l-35 2l-90 10
c-23.333 0 -49.666 6.83301 -78.999 20.5s-61 32.834 -95 57.501c-65.333 46.667 -117.333 113.667 -156 201c-18.667 44.667 -32.834 87.167 -42.501 127.5s-14.5 81.833 -14.5 124.5c0 122.667 32.167 229 96.5 319s135.333 153.167 213 189.5s155.5 54.5 233.5 54.5
l100 -8c26 0 52.333 -6.16699 79 -18.5s56.334 -30.166 89.001 -53.499c60 -40.667 103 -89 129 -145l53 -113zM755.001 796.999c-60 86 -124.665 129 -193.998 129c-33.333 0 -64.333 -5.5 -93 -16.5s-53.834 -31.5 -75.501 -61.5s-38.834 -62 -51.501 -96
c-4 -18 -7.33301 -35.833 -10 -53.5s-4 -38.167 -4 -61.5c0 -45.333 4.66699 -84.333 14 -117l455 172l-14 56c-4 16 -13 32.333 -27 49z" />
    <glyph glyph-name="f" unicode="f" horiz-adv-x="638" 
d="M761 1460l-165.999 -155.001c-20 39.333 -42 70.666 -66 93.999s-51.667 35 -83 35c-19.333 0 -37.5 -4.5 -54.5 -13.5s-31.333 -24.167 -43 -45.5s-17.5 -47.666 -17.5 -78.999c0 -22.667 1 -38.167 3 -46.5s5.5 -19.333 10.5 -33s11.5 -27.834 19.5 -42.501
c14.667 -29.333 42 -59.666 82 -90.999c39.333 -28.667 82.333 -43 129 -43h131l-53 -151h-193v-787h135v-102h-526v102h113v787h-158l53 151h121c-50.667 71.333 -76 139 -76 203c0 31.333 8.16699 69.5 24.5 114.5s49.166 86.333 98.499 124s95.5 61.334 138.5 71.001
s78.167 14.5 105.5 14.5c48 0 95.5 -8.16699 142.5 -24.5s90.167 -43.833 129.5 -82.5z" />
    <glyph glyph-name="g" unicode="g" horiz-adv-x="1122" 
d="M1109 1200l-63.001 -191.998l-43 20l-39 10c-10 0 -21 -3.33301 -33 -10c-14 -4 -21 -16.333 -21 -37c0 -13.333 5.66699 -27.666 17 -42.999l31 -39l26 -32l29 -54c12 -24.667 22.167 -53.667 30.5 -87s12.5 -65 12.5 -95c0 -66.667 -18.5 -132.834 -55.5 -198.501
s-88.5 -113.5 -154.5 -143.5s-140 -50.333 -222 -61h-78h-31l-51 4l-6 -23l-19 -35l-24 -32l-23 -23l105 12l125 6c36.667 0 71.334 -2 104.001 -6s67 -10.667 103 -20c61.333 -16.667 110.666 -45.834 147.999 -87.501s56 -91.834 56 -150.501
c0 -18.667 -4.33301 -46.167 -13 -82.5s-34.834 -73 -78.501 -110s-92.5 -64.667 -146.5 -83s-111.667 -27.5 -173 -27.5c-46.667 0 -88.5 4.5 -125.5 13.5s-68.333 24.333 -94 46s-44.667 45.834 -57 72.501s-18.5 55.667 -18.5 87s8.83301 59.333 26.5 84
s48.5 52.667 92.5 84h-129c-41.333 0 -86.666 -6.66699 -135.999 -20l-49 -15l-94 121c54.667 22 104.167 48.333 148.5 79s87.833 76.667 130.5 138c-88 49.333 -149.667 101.333 -185 156s-53 124.334 -53 209.001c0 65.333 13 126.666 39 183.999
c24.667 60 64.334 109.833 119.001 149.5s106.167 67 154.5 82s99.166 22.5 152.499 22.5c35.333 0 75 -4 119 -12c48.667 -6.66699 75.334 -10.667 80.001 -12c25.333 -8.66699 44.333 -14.334 57 -17.001c10.667 45.333 30 87 58 125s62.667 57 104 57h28l66 -4
c22 0 39.667 -3.33301 53 -10zM350.999 807.002c-4 -18 -6.66797 -31.001 -8.00098 -39.001s-2 -21.667 -2 -41c0 -57.333 8.83301 -114.666 26.5 -171.999s43.167 -104.333 76.5 -141c42 -50.667 88.333 -76 139 -76l57 8c14 2.66699 26.667 7.16699 38 13.5
s24 15.5 38 27.5c22 19.333 39.667 42 53 68c4 8 8.16699 18.167 12.5 30.5s7.16602 22.5 8.49902 30.5l4 57c0 49.333 -8.16699 101 -24.5 155s-37.166 98.667 -62.499 134s-55.166 61 -89.499 77s-68.5 24 -102.5 24c-36.667 0 -69 -14 -97 -42s-50.333 -66 -67 -114z
M545.998 -198.999c14.667 -31.333 36.666 -56.5 65.999 -75.5s57.666 -28.5 84.999 -28.5c28.667 0 51.334 3 68.001 9s32.334 18 47.001 36c8 16.667 12 34.334 12 53.001c0 15.333 -5.33301 35.666 -16 60.999s-42 49.333 -94 72c-48 19.333 -98 32.333 -150 39
c-21.333 -35.333 -32 -68 -32 -98c0 -26 4.66699 -48.667 14 -68z" />
    <glyph glyph-name="h" unicode="h" horiz-adv-x="1228" 
d="M827 569c0 40 -1.49805 73.001 -4.49805 99.001s-8.5 51 -16.5 75c-12 42.667 -30.333 72 -55 88c-20.667 16.667 -47.334 25 -80.001 25c-19.333 0 -37.5 -2.33301 -54.5 -7s-35 -12.5 -54 -23.5s-36.167 -22.5 -51.5 -34.5l-41 -41v-648h117v-102h-508v102h113v1201
l-113 -35v116l508 162v-121l-117 -34v-471c64 43.333 126.167 78.333 186.5 105s114.833 40 163.5 40c49.333 0 98.333 -12.667 147 -38s83.667 -69.333 105 -132c11.333 -32.667 19.666 -66.834 24.999 -102.501s8 -78.5 8 -128.5v-562h113v-102h-508v102h117v467z" />
    <glyph glyph-name="i" unicode="i" horiz-adv-x="620" 
d="M480 1049l-8 -58l-2 -39v-850h117v-102h-508v102h113v727l-113 -28v121zM282 1464l30 3.99902c40 0 76 -14 108 -42s48 -67 48 -117l-6 -64c-4 -31.333 -33.333 -60 -88 -86c-10.667 -4 -19.5 -6.66699 -26.5 -8s-19.5 -2 -37.5 -2l-41 4
c-12 1.33301 -33.667 12.333 -65 33c-14 9.33301 -25 23.5 -33 42.5s-12 42.833 -12 71.5c0 84.667 41 139.334 123 164.001z" />
    <glyph glyph-name="j" unicode="j" horiz-adv-x="614" 
d="M186 829l-113 -28v121l402 127l-8 -58l-2 -39v-831c0 -100 -13.667 -184 -41 -252c-24.667 -71.333 -73.834 -127 -147.501 -167s-156.5 -60 -248.5 -60l-16 110c72.667 20.667 119.834 52.5 141.501 95.5s32.5 104.833 32.5 185.5v796zM278 1456l31.001 3.99902
c39.333 0 75.166 -14 107.499 -42s48.5 -67.333 48.5 -118v-24c-6 -57.333 -28 -94.166 -66 -110.499s-70 -24.5 -96 -24.5c-27.333 0 -58.833 11.5 -94.5 34.5s-53.5 61.833 -53.5 116.5c0 38.667 10 72.667 30 102s51 50 93 62z" />
    <glyph glyph-name="k" unicode="k" horiz-adv-x="1193" 
d="M470 379l-0.000976562 -276.999h117v-102h-508v102h113v1201l-113 -35v116l508 162v-121l-117 -34v-439l10 9c42.667 32.667 89.334 58.334 140.001 77.001c20 7.33301 43.667 13.666 71 18.999s52 8 74 8c54.667 0 108.667 -11 162 -33c53.333 -16 97 -41.333 131 -76
c31.333 -28.667 55.333 -66 72 -112c13.333 -45.333 20 -84.333 20 -117c0 -34 -4.5 -67.833 -13.5 -101.5s-24.833 -64.834 -47.5 -93.501c-23.333 -36.667 -55.5 -68 -96.5 -94s-87.5 -49 -139.5 -69l223 -267h119v-102h-432c-16.667 32.667 -40 66 -70 100z
M897.999 655.001c0 98.667 -31.333 162.666 -94 191.999s-109.667 44 -141 44c-67.333 0 -131.666 -22.667 -192.999 -68v-395l223 119l82 -90c45.333 26 77.166 55.333 95.499 88s27.5 69.334 27.5 110.001z" />
    <glyph glyph-name="l" unicode="l" horiz-adv-x="620" 
d="M468 102h117v-102h-508v102h113v1201l-113 -35v116l508 162v-121l-117 -34v-1289z" />
    <glyph glyph-name="m" unicode="m" horiz-adv-x="1808" 
d="M1087 102h112.002v-102h-505v102h114v473v46c0 47.333 -3.66699 88.5 -11 123.5s-24.333 64 -51 87s-63.334 34.5 -110.001 34.5c-18.667 0 -37.667 -3.33301 -57 -10c-23.333 -4 -44 -13.667 -62 -29c-17.333 -12 -35 -29.667 -53 -53v-672h117v-102h-508v102h113v727
l-113 -28v121l401 127l-8 -58l-2 -39v-28l4 4c30 23.333 57.667 42.5 83 57.5s53 29.833 83 44.5c50.667 23.333 101.334 35 152.001 35c40.667 0 85 -10.333 133 -31c31.333 -12 58 -29 80 -51c12 -12 24.833 -27 38.5 -45s23.167 -31 28.5 -39
c57.333 49.333 116.166 89.333 176.499 120s117.5 46 171.5 46l68 -6c16.667 -4 45 -15.667 85 -35s74 -55.5 102 -108.5s42 -139.167 42 -258.5v-555h113v-102h-508v102h115v473v29c0 50.667 -3.83301 95.167 -11.5 133.5s-24.834 69.333 -51.501 93
s-63.667 35.5 -111 35.5c-19.333 0 -44 -4.66699 -74 -14c-32.667 -8 -64.667 -34 -96 -78v-672z" />
    <glyph glyph-name="n" unicode="n" horiz-adv-x="1220" 
d="M468 920c64 43.333 126.169 78.334 186.502 105.001s114.833 40 163.5 40c49.333 0 98.333 -12.667 147 -38s83.667 -69.333 105 -132c11.333 -32.667 19.666 -66.834 24.999 -102.501s8 -78.5 8 -128.5v-562h113v-102h-508v102h117v467c0 40 -1.5 73 -4.5 99
s-8.5 51 -16.5 75c-12 42.667 -30.333 72 -55 88c-20.667 16.667 -47.334 25 -80.001 25c-19.333 0 -37.5 -2.33301 -54.5 -7s-35 -12.5 -54 -23.5s-36.167 -22.5 -51.5 -34.5l-41 -41v-648h117v-102h-508v102h113v727l-113 -28v121l401 127l-8 -58l-2 -39v-32z" />
    <glyph glyph-name="o" unicode="o" horiz-adv-x="1236" 
d="M550 1061l53.998 3.99805c77.333 0 162.5 -15.667 255.5 -47s166.167 -76.666 219.5 -135.999s90 -120.666 110 -183.999c11.333 -34 19.666 -65 24.999 -93s8 -59.667 8 -95c0 -44 -2.66699 -77.333 -8 -100l-29 -115c-12 -54.667 -46.667 -110 -104 -166
s-128.333 -98.333 -213 -127s-156.334 -43 -215.001 -43c-75.333 0 -147.166 10.667 -215.499 32s-133.166 57.5 -194.499 108.5s-107.666 118.833 -138.999 203.5c-27.333 86 -41 172.667 -41 260c8 92.667 33.833 175 77.5 247s104.834 128.667 183.501 170
s154 68.333 226 81zM343.998 671.998l-1.99512 -43.001c0 -90 16 -181.833 48 -275.5s68.333 -158.167 109 -193.5c41.333 -30 75.666 -49.333 102.999 -58c31.333 -6.66699 58.666 -10 81.999 -10c35.333 0 67.333 4.66699 96 14c47.333 20.667 82.666 53 105.999 97
c24.667 40.667 39 76.667 43 108l6 76c0 88.667 -14.667 180.834 -44 276.501s-64.833 159.834 -106.5 192.501s-76.834 53.167 -105.501 61.5s-55.667 12.5 -81 12.5c-38.667 0 -77.834 -8.5 -117.501 -25.5s-69.667 -44.333 -90 -82s-35.833 -87.834 -46.5 -150.501z" />
    <glyph glyph-name="p" unicode="p" horiz-adv-x="1267" 
d="M470 20l-0.000976562 -322.998h137v-105h-528v105h113v1132l-113 -28v121l401 127l-8 -45l-2 -41l10 4l78 35.5c23.333 10.333 53.333 22.166 90 35.499c60 18 115.333 27 166 27c60 0 124.167 -16.667 192.5 -50s125 -91 170 -173s73.833 -171 86.5 -267
c0 -92.667 -16.167 -185.334 -48.5 -278.001s-81.166 -163 -146.499 -211s-126 -80.833 -182 -98.5s-108.667 -26.5 -158 -26.5c-43.333 0 -84.833 4.5 -124.5 13.5s-82.167 23.5 -127.5 43.5zM522.999 850.002l-52.998 -38.999v-451
c0 -62.667 4.83301 -112.334 14.5 -149.001s35 -68 76 -94s83.833 -39 128.5 -39c31.333 0 68.5 8.16699 111.5 24.5s78.167 46 105.5 89s45.166 86.667 53.499 131s12.5 86.5 12.5 126.5c0 74.667 -10.667 144.5 -32 209.5s-50 114.5 -86 148.5s-69.667 57.167 -101 69.5
s-62 18.5 -92 18.5c-20.667 0 -43.334 -3.5 -68.001 -10.5s-48 -18.5 -70 -34.5z" />
    <glyph glyph-name="q" unicode="q" horiz-adv-x="1239" 
d="M931 989l196.997 60.001l-9 -56l-2 -41v-1255h115v-105h-508v105h113v364c-54.667 -32.667 -107.334 -57.667 -158.001 -75c-32.667 -11.333 -61 -18.666 -85 -21.999s-47.667 -5 -71 -5c-25.333 0 -44.166 0.666992 -56.499 2s-30.833 6 -55.5 14
c-35.333 8.66699 -82.166 28.667 -140.499 60s-105.833 88.666 -142.5 171.999c-34 86 -51 171.333 -51 256c0 112 23.5 216.167 70.5 312.5s120.333 168.666 220 216.999s191.834 72.5 276.501 72.5c98.667 0 194.334 -25.333 287.001 -76zM836.997 625.001
l-0.000976562 49.001c0 66.667 -6.5 118.167 -19.5 154.5s-39.333 66 -79 89s-79.834 34.5 -120.501 34.5c-45.333 0 -91.166 -15 -137.499 -45s-80.166 -78 -101.499 -144s-32 -132 -32 -198c0 -47.333 3.5 -89.5 10.5 -126.5s19.167 -75.833 36.5 -116.5
c33.333 -72.667 75 -121.334 125 -146.001c52 -22 94.333 -33 127 -33c66 0 129.667 26.667 191 80v402z" />
    <glyph glyph-name="r" unicode="r" horiz-adv-x="819" 
d="M751 1065l96 -35.0068l-110 -317c-12.667 6.66699 -24.334 12.334 -35.001 17.001s-23 9 -37 13c-24.667 8.66699 -47 13 -67 13c-20.667 0 -41.334 -6.16699 -62.001 -18.5s-35 -33.166 -43 -62.499s-12 -66.666 -12 -111.999v-61v-400h139v-102h-530v102h112v560
c0 18.667 -6 34.334 -18 47.001c-19.333 21.333 -33.666 34.333 -42.999 39l-39 -72l-84 57l166 299c52 -8 93 -22.667 123 -44s61.333 -53.666 94 -96.999c10.667 24.667 24.667 46.834 42 66.501s36.5 37.334 57.5 53.001s50.5 23.5 88.5 23.5
c28.667 0 51.334 -2.66699 68.001 -8c9.33301 -1.33301 19.833 -4 31.5 -8s24.5 -8.66699 38.5 -14z" />
    <glyph glyph-name="s" unicode="s" horiz-adv-x="958" 
d="M928 948l-141.996 -198.003c-48.667 40.667 -104.167 79.167 -166.5 115.5s-115.166 54.5 -158.499 54.5c-26 0 -46.667 -5.66699 -62 -17c-17.333 -8 -29.666 -19.667 -36.999 -35c-8 -10.667 -10.667 -27 -8 -49c6.66699 -43.333 30.667 -74 72 -92l123 -43l59 -16
c80.667 -24.667 147 -51.667 199 -81s87.5 -68.666 106.5 -117.999s28.5 -93 28.5 -131c0 -75.333 -21.5 -143.333 -64.5 -204s-98.333 -105 -166 -133s-134.834 -42 -201.501 -42c-76.667 0 -152.834 12.333 -228.501 37s-153.834 68.334 -234.501 131.001l143 219
c71.333 -73.333 143.166 -133 215.499 -179s140.5 -69 204.5 -69c40 0 70.167 14.333 90.5 43s30.5 56 30.5 82c0 12.667 -4.5 29.5 -13.5 50.5s-29.5 40.667 -61.5 59s-78 38.5 -138 60.5l-59 23c-100 32.667 -171.833 65.334 -215.5 98.001s-68.834 69.667 -75.501 111
l-8 92c0 52 10.5 101.833 31.5 149.5s51.333 86.5 91 116.5s82 51.167 127 63.5s93.5 18.5 145.5 18.5s100.167 -4.5 144.5 -13.5s86.166 -22.167 125.499 -39.5l45 -27z" />
    <glyph glyph-name="t" unicode="t" horiz-adv-x="761" 
d="M395 1284l97.999 -20.001l-8 -107l-2 -108v-21l213 -2l-41 -156h-172v-508c0 -64 2 -112 6 -144s16.667 -52.5 38 -61.5s40.333 -13.5 57 -13.5c17.333 0 35.666 5 54.999 15c17.333 6.66699 37 19 59 37l62 -78c-41.333 -45.333 -92.666 -83 -153.999 -113
s-119.333 -45 -174 -45c-20.667 0 -40.5 2 -59.5 6s-38.833 11.667 -59.5 23c-36.667 16 -64.667 50.667 -84 104c-16 53.333 -24 123 -24 209v569h-113v117c82 24.667 141.833 55.834 179.5 93.501s78.834 105.5 123.501 203.5z" />
    <glyph glyph-name="u" unicode="u" horiz-adv-x="1236" 
d="M829 829l-113.001 -28v121l403 127l-6 -45l-2 -52v-850h111v-102h-385l-6 45l-2 57c-63.333 -43.333 -127.333 -78 -192 -104s-123.667 -39 -177 -39c-45.333 0 -92.833 12.333 -142.5 37s-83 61.834 -100 111.501s-25.5 113.5 -25.5 191.5v49v481l-113 -28v121l401 127
l-8 -58l-2 -39v-528c0 -75.333 3.16699 -129.333 9.5 -162s24.5 -60 54.5 -82c30 -18.667 61.333 -28 94 -28l33 4l43 12c14.667 5.33301 35.334 17.166 62.001 35.499s47.667 38.5 63 60.5v565z" />
    <glyph glyph-name="v" unicode="v" horiz-adv-x="1120" 
d="M407 1059l39.001 -109.001l24 -53c48 52 93.167 89.5 135.5 112.5s83.833 34.5 124.5 34.5l60 -6c20 -1.33301 46.333 -7.33301 79 -18l29 -6l68 -8c17.333 0 34.166 2.33301 50.499 7s37.5 16 63.5 34l74 -62l-33 -49l-34 -70l-322 -757l-20 -60l-13 -49h-180l-18 55
c-3.33301 12.667 -7 24.334 -11 35.001s-12 27.667 -24 51l-316 670l-92 -51l-51 102zM828.001 802.999l-101.999 36.999c-40.667 14.667 -73.334 23.334 -98.001 26.001c-34 0 -75 -15 -123 -45l209 -485l188 457l-39 2z" />
    <glyph glyph-name="w" unicode="w" horiz-adv-x="1640" 
d="M1016 905c50 53.333 93.5 90.6689 130.5 112.002s74.5 32 112.5 32c41.333 0 88.666 -9.66699 141.999 -29l30 -8l54 -11c18.667 0 38.334 3.5 59.001 10.5s42 18.833 64 35.5l75 -64l-2 -6l-37 -64l-24 -47l-307 -764l-21 -47l-12 -55h-178l-21 55
c-4 15.333 -8 28.166 -12 38.499s-11.667 26.166 -23 47.499l-129 279l-143 -316l-23 -59l-10 -45h-180l-16 55c-7.33301 23.333 -20.333 52 -39 86l-314 670l-92 -51l-51 102l367 197l20 -68l25 -45l262 -610l37 90l69 176l-96 209l-92 -51l-53 102l366 197l31 -88z
M1388 797.003l-41 6l-100 33c-12 5.33301 -27.667 11 -47 17s-35 9.66699 -47 11c-30 0 -64.333 -13 -103 -39l205 -471l183 441z" />
    <glyph glyph-name="x" unicode="x" horiz-adv-x="1148" 
d="M127 1026h532v-104h-102l155 -260l152 260h-98v104h358v-104h-98l-234 -396l250 -424h107v-102h-551v102h112l-194 326l-189 -326h111v-102h-381v102h111l268 461l-215 359h-94v104z" />
    <glyph glyph-name="y" unicode="y" horiz-adv-x="1134" 
d="M399 1059l22.0029 -67.998l43 -94c46.667 50.667 91.667 89 135 115c41.333 21.333 80.333 32 117 32c24.667 0 50.667 -3.33301 78 -10l80 -16l28 -6l58 -6c17.333 0 34.666 2.33301 51.999 7s37.333 16 60 34l74 -62l-31 -51l-28 -51l-426 -996
c-22 -54.667 -43.167 -101.334 -63.5 -140.001s-39.5 -68.334 -57.5 -89.001c-31.333 -39.333 -70.333 -63.333 -117 -72l-92 -10c-40.667 0 -87.667 8.33301 -141 25l49 249c30 -14.667 64.667 -22 104 -22c31.333 0 60.666 4.5 87.999 13.5s49.166 23.333 65.499 43
s28.833 39.167 37.5 58.5l22 57l-379 811l-92 -51l-53 102zM820.003 803.002l-102 36.999c-40.667 14.667 -72.667 23.334 -96 26.001c-34 0 -75 -15 -123 -45l209 -485l186 457l-39 2z" />
    <glyph glyph-name="z" unicode="z" horiz-adv-x="882" 
d="M231 1083h115.001l-20 -57h471l86 -149l-33 -29l-31 -33l-491 -594l61 -8h51c71.333 0 138 12 200 36s117.667 67.333 167 130l100 -21l-102 -419h-113l17 61h-469l-64 -2l-43 -6l-88 178l37 35l43 47l479 577l-65 11l-68 4c-54.667 0 -102.834 -9.33301 -144.501 -28
s-80.167 -55 -115.5 -109l-111 10z" />
    <glyph glyph-name="braceleft" unicode="{" horiz-adv-x="1042" 
d="M931 1536l0.000976562 -78.001c-117.333 0 -202 -28.667 -254 -86c-47.333 -58.667 -71 -150 -71 -274v-133c0 -142 -29.167 -242 -87.5 -300s-166.5 -101.333 -324.5 -130l-29 -9c157.333 0 268.666 -34.5 333.999 -103.5s98 -185.167 98 -348.5v-103
c0 -92.667 7.83301 -162.167 23.5 -208.5s45.5 -81.833 89.5 -106.5s83.667 -41.5 119 -50.5s65.333 -13.5 90 -13.5v-77c-42.667 0 -82 2 -118 6s-74 11.333 -114 22c-73.333 18 -129.5 47.167 -168.5 87.5s-66.333 82 -82 125s-23.5 104.833 -23.5 185.5v43v122v37
c0 64.667 -7.66699 117.334 -23 158.001c-12 45.333 -37.667 79.333 -77 102c-36 23.333 -75.667 40.666 -119 51.999c-9.33301 2.66699 -27 6.33398 -53 11.001s-49.333 8.33398 -70 11.001v105c122.667 16 211.334 46.5 266.001 91.5s82 129.167 82 252.5v147
c0 96 8.5 173.667 25.5 233s53.833 105.666 110.5 138.999s117.167 56.833 181.5 70.5s129.166 20.5 194.499 20.5z" />
    <glyph glyph-name="bar" unicode="|" horiz-adv-x="425" 
d="M272 -164h-98v1829h98v-1829z" />
    <glyph glyph-name="braceright" unicode="}" horiz-adv-x="1056" 
d="M475 1462c72.667 -42 119.167 -95.5039 139.5 -160.504s30.5 -141.167 30.5 -228.5v-147c0 -120.667 26.667 -204.167 80 -250.5s142.666 -77.5 267.999 -93.5v-105c-49.333 -4 -91.666 -10.667 -126.999 -20c-38 -8.66699 -77.5 -26.667 -118.5 -54
s-67.667 -65.166 -80 -113.499s-18.5 -109.5 -18.5 -183.5v-122v-43c0 -67.333 -5.33301 -122 -16 -164c-10 -45.333 -35.833 -89.5 -77.5 -132.5s-101.334 -75.333 -179.001 -97s-156.167 -32.5 -235.5 -32.5v77c30 0 58.333 2.5 85 7.5s65 21.5 115 49.5
s83.167 66.167 99.5 114.5s24.5 117.5 24.5 207.5v103c0 163.333 32.333 279.5 97 348.5s176.334 103.5 335.001 103.5l-29 9c-155.333 26.667 -262.333 68.834 -321 126.501s-88 158.834 -88 303.501v133c0 122.667 -24.333 213.334 -73 272.001s-133.667 88 -255 88v78
c60 0 120.667 -6.16699 182 -18.5s115.333 -30.833 162 -55.5z" />
    <glyph glyph-name="asciitilde" unicode="~" horiz-adv-x="815" 
d="M665 1413l123 -101.999c-42 -44 -84.167 -76.833 -126.5 -98.5s-86.166 -32.5 -131.499 -32.5h-45c-15.333 4 -27.333 7 -36 9l-33.5 8c-13.667 3.33301 -28.834 7.66602 -45.501 12.999l-37 11l-67 10c-18 0 -33.667 -3.33301 -47 -10l-43 -21l-115 109
c10.667 10.667 26.667 23.5 48 38.5s38 25.833 50 32.5c32.667 15.333 65.667 23 99 23l55 -6l65 -19l35 -14c37.333 -14 68 -21 92 -21c50.667 0 104 23.333 160 70z" />
    <glyph glyph-name="dieresis" unicode="&#xa8;" horiz-adv-x="1024" 
 />
    <glyph glyph-name="copyright" unicode="&#xa9;" horiz-adv-x="1640" 
d="M1104 940c-13.333 59.333 -44.667 103 -94 131c-47.333 27.333 -104 41 -170 41c-98.667 -2 -174 -35.333 -226 -100c-51.333 -64.667 -77 -147.334 -77 -248.001c2 -62.667 15.667 -118 41 -166c25.333 -46 61.333 -82.333 108 -109c48 -26.667 104.667 -40 170 -40
c66.667 0 120.667 15 162 45c43.333 30 72 75 86 135h125c-8 -63.333 -30.667 -118.666 -68 -165.999c-36 -48 -81 -84.333 -135 -109c-54.667 -26 -111.334 -39 -170.001 -39c-79.333 0 -151.666 17.333 -216.999 52c-67.333 34 -122 85 -164 153
c-40.667 64.667 -64.667 144.667 -72 240c0 108.667 21.833 199.167 65.5 271.5s99.834 125.833 168.501 160.5c66 34 139 51 219 51c69.333 0 128.666 -13 177.999 -39c51.333 -24 94.333 -59.333 129 -106c34.667 -49.333 56.667 -102 66 -158h-125zM818.999 1577
c108 0 211.667 -20.334 311 -61.001c100 -42.667 187 -101 261 -175c72.667 -72.667 130.667 -158.667 174 -258c42 -96 63 -199.667 63 -311c0 -142 -36 -276.333 -108 -403c-74 -124.667 -173 -222.334 -297 -293.001c-59.333 -34.667 -123.333 -61.5 -192 -80.5
s-139.334 -28.5 -212.001 -28.5c-72 0 -141.5 9.16699 -208.5 27.5s-131.833 45.5 -194.5 81.5c-123.333 71.333 -221.666 169 -294.999 293c-36 62.667 -63.167 127.334 -81.5 194.001s-27.5 136.334 -27.5 209.001s9.33301 143 28 211s45.667 132.333 81 193
c74 124 172.333 221.333 295 292c126 72.667 260.333 109 403 109zM818.999 1448c-118.667 0 -231.332 -29.999 -337.999 -89.999c-51.333 -30.667 -97.333 -66.334 -138 -107.001s-76.334 -87.667 -107.001 -141c-62 -104 -93 -216.667 -93 -338
c0 -120 31 -232.667 93 -338c59.333 -102.667 141 -184 245 -244c56 -30.667 111.5 -53.334 166.5 -68.001s112.167 -22 171.5 -22c119.333 0 232 30 338 90c50 28 96 62.833 138 104.5s78.667 88.167 110 139.5c60 106.667 90 219.334 90 338.001c0 94 -17 180.667 -51 260
c-34 82 -82.833 154.833 -146.5 218.5s-136.5 112.5 -218.5 146.5c-79.333 34 -166 51 -260 51z" />
    <glyph glyph-name="registered" unicode="&#xae;" horiz-adv-x="1640" 
d="M508 1221h391c196.667 0 297 -79.333 301 -238c0 -82 -23.333 -144 -70 -186c-46 -44 -102.333 -66 -169 -66l227 -420h-148l-231 420h-168v-420h-133v910zM893 1087h-252v-223h270c106.667 0 160 35 160 105c0 78.667 -59.333 118 -178 118zM819 1448
c-118.667 0 -231.332 -29.999 -337.999 -89.999c-51.333 -30.667 -97.333 -66.334 -138 -107.001s-76.334 -87.667 -107.001 -141c-62 -104 -93 -216.667 -93 -338c0 -120 31 -232.667 93 -338c59.333 -102.667 141 -184 245 -244c56 -30.667 111.5 -53.334 166.5 -68.001
s112.167 -22 171.5 -22c119.333 0 232 30 338 90c50 28 96 62.833 138 104.5s78.667 88.167 110 139.5c60 106.667 90 219.334 90 338.001c0 94 -17 180.667 -51 260c-34 82 -82.833 154.833 -146.5 218.5s-136.5 112.5 -218.5 146.5c-79.333 34 -166 51 -260 51z
M819.002 1577c108 0 211.667 -20.334 311 -61.001c100 -42.667 187 -101 261 -175c72.667 -72.667 130.667 -158.667 174 -258c42 -96 63 -199.667 63 -311c0 -142 -36 -276.333 -108 -403c-74 -124.667 -173 -222.334 -297 -293.001
c-59.333 -34.667 -123.333 -61.5 -192 -80.5s-139.334 -28.5 -212.001 -28.5c-72 0 -141.5 9.16699 -208.5 27.5s-131.833 45.5 -194.5 81.5c-123.333 71.333 -221.666 169 -294.999 293c-36 62.667 -63.167 127.334 -81.5 194.001s-27.5 136.334 -27.5 209.001
s9.33301 143 28 211s45.667 132.333 81 193c74 124 172.333 221.333 295 292c126 72.667 260.333 109 403 109z" />
    <glyph glyph-name="acute" unicode="&#xb4;" horiz-adv-x="1024" 
 />
    <glyph glyph-name="paragraph" unicode="&#xb6;" horiz-adv-x="1024" 
d="M929 1435l-0.000976562 -70h-127v-1365h-82v1365h-166v-1365h-84v738c-116 5.33301 -207.833 39.5 -275.5 102.5s-101.5 144.833 -101.5 245.5c0 104.667 35.833 189 107.5 253s166.834 96 285.501 96h443z" />
    <glyph glyph-name="onequarter" unicode="&#xbc;" horiz-adv-x="1298" 
 />
    <glyph glyph-name="onehalf" unicode="&#xbd;" horiz-adv-x="1320" 
 />
    <glyph glyph-name="threequarters" unicode="&#xbe;" horiz-adv-x="1288" 
 />
    <glyph glyph-name="Agrave" unicode="&#xc0;" horiz-adv-x="1536" 
d="M646 1501l344 -0.00195312c0 -17.333 1.33301 -31.666 4 -42.999c0 -17.333 5.66699 -37.666 17 -60.999l422 -1276h114v-121h-569v121h98l-86 285h-530l-94 -285h129v-121h-455v121h123l461 1276l12 51zM726 1946l330 -240l-62 -113l-352 195zM734 1206l-229 -659h438z
" />
    <glyph glyph-name="Aacute" unicode="&#xc1;" horiz-adv-x="1536" 
d="M646 1501l344 -0.00195312c0 -17.333 1.33301 -31.666 4 -42.999c0 -17.333 5.66699 -37.666 17 -60.999l422 -1276h114v-121h-569v121h98l-86 285h-530l-94 -285h129v-121h-455v121h123l461 1276l12 51zM1017 1790l-352 -195l-62 113l330 240zM734 1206l-229 -659h438z
" />
    <glyph glyph-name="Acircumflex" unicode="&#xc2;" horiz-adv-x="1536" 
d="M655 1501h342l6 -51l15 -53l422 -1276h116v-121h-569v121h98l-88 285h-530l-92 -285h129v-121h-455v121h123l459 1276l14 57zM840 1743l-236 -146l-125 101l350 213l359 -213l-125 -101zM743 1206l-231 -659h440z" />
    <glyph glyph-name="Atilde" unicode="&#xc3;" horiz-adv-x="1536" 
d="M655 1501h342l6 -51l15 -53l422 -1276h116v-121h-569v121h98l-88 285h-530l-92 -285h129v-121h-455v121h123l459 1276l14 57zM1036 1839l123 -104.001c-40.667 -45.333 -82.167 -78.5 -124.5 -99.5s-85.5 -31.5 -129.5 -31.5c-46.667 0 -100.667 10.667 -162 32l-37 9
c-28.667 8 -51 12 -67 12c-12.667 0 -26.334 -3.33301 -41.001 -10l-51 -21l-113 107c32.667 32.667 65.834 56.834 99.501 72.501s65.5 23.5 95.5 23.5c32.667 0 72.667 -9 120 -27l37 -14c37.333 -14 68 -21 92 -21c52 0 104.667 24 158 72zM743 1206l-231 -659h440z" />
    <glyph glyph-name="Egrave" unicode="&#xc8;" horiz-adv-x="1200" 
d="M1085 1528l130.998 -295l-96 -45c-63.333 92.667 -128.666 150.667 -195.999 174s-166.666 35 -297.999 35h-102v-445h471v131h125v-421h-125v151h-471v-692h37c156.667 0 272.167 17.333 346.5 52s129.5 74.667 165.5 120l67 88l16 35l97 -47l-180 -387l-50 14l-75 4
h-879v121h141v1276h-141v123h866h35h74zM492.998 1946l332 -240l-64 -113l-352 195z" />
    <glyph glyph-name="Eacute" unicode="&#xc9;" horiz-adv-x="1200" 
d="M1091 1528l130.998 -295.001l-96 -45c-63.333 92.667 -128.666 150.667 -195.999 174s-167.333 35 -300 35h-100v-445h471v131h125v-421h-125v151h-471v-692h37c156.667 0 271.834 17.333 345.501 52s129.167 75.334 166.5 122.001l65 84l18 37l97 -47l-180 -387l-50 14
l-77 4h-877v121h141v1276h-141v123h866h35h74zM815.998 1788l-354 -195l-61 113l329 240z" />
    <glyph glyph-name="Ecircumflex" unicode="&#xca;" horiz-adv-x="1200" 
d="M1091 1528l130.998 -295.001l-96 -45c-63.333 92.667 -128.666 150.667 -195.999 174s-167.333 35 -300 35h-100v-445h471v131h125v-421h-125v151h-471v-692h37c156.667 0 271.834 17.333 345.501 52s129.167 75.334 166.5 122.001l65 84l18 37l97 -47l-180 -387l-50 14
l-77 4h-877v121h141v1276h-141v123h866h35h74zM627.998 1741l-238 -146l-122 101l352 213l354 -213l-125 -101z" />
    <glyph glyph-name="Igrave" unicode="&#xcc;" horiz-adv-x="704" 
d="M75 1520h594v-123h-139v-1276h139v-121h-594v121h141v1276h-141v123zM268 1946l329 -240l-61 -113l-355 195z" />
    <glyph glyph-name="Iacute" unicode="&#xcd;" horiz-adv-x="704" 
d="M75 1520h594v-123h-139v-1276h139v-121h-594v121h141v1276h-141v123zM538 1786l-354 -195l-62 113l332 240z" />
    <glyph glyph-name="Ograve" unicode="&#xd2;" 
d="M796 1554l117.002 6.99902c113.333 0 224.166 -20.167 332.499 -60.5s198 -103.166 269 -188.499s123.333 -179.666 157 -282.999s50.5 -204.666 50.5 -303.999c0 -80.667 -14.667 -167.334 -44 -260.001s-90.5 -186.167 -183.5 -280.5s-190.5 -156.5 -292.5 -186.5
c-46.667 -14 -96 -25 -148 -33s-102.333 -12 -151 -12c-108 0 -211.833 14.667 -311.5 44s-189.834 78.5 -270.501 147.5s-143.667 159.5 -189 271.5c-20 57.333 -35.5 113.666 -46.5 168.999s-16.5 111 -16.5 167c0 32.667 2 65.334 6 98.001l10 80
c11.333 86 51.833 180.167 121.5 282.5s149.5 175.666 239.5 219.999s162.333 75.5 217 93.5zM802.002 1982l328 -239l-62 -113l-352 195zM692.002 1378c-87.333 -32.667 -152.667 -84.498 -196 -155.498s-72.333 -139.167 -87 -204.5c-12 -64 -18 -115.333 -18 -154
c0 -112 21.833 -228.333 65.5 -349s95.5 -209 155.5 -265s118 -97 174 -123c53.333 -20.667 105.666 -31 156.999 -31c24.667 0 47.334 1.33301 68.001 4s48.667 9 84 19c58.667 16 113 49.667 163 101s87 116.666 111 195.999c12.667 39.333 22.334 78.5 29.001 117.5
s10 79.5 10 121.5c0 104 -17 206.167 -51 306.5s-78.333 183.666 -133 249.999s-115.834 115.5 -183.501 147.5s-131.5 48 -191.5 48h-24l-39 -8l-53 -6z" />
    <glyph glyph-name="Oacute" unicode="&#xd3;" 
d="M796 1554l117 7.00293c113.333 0 223.833 -20.5 331.5 -61.5s197 -103.833 268 -188.5s123.333 -178.167 157 -280.5s50.5 -202.833 50.5 -301.5c0 -76.667 -14.333 -162.334 -43 -257.001s-89.5 -189.834 -182.5 -285.501s-190.5 -158.5 -292.5 -188.5
c-46.667 -14 -96 -25 -148 -33s-102.333 -12 -151 -12c-108 0 -211.167 14.667 -309.5 44s-188.833 78.5 -271.5 147.5s-146 159.5 -190 271.5c-20 56 -35.5 111.667 -46.5 167s-16.5 110.333 -16.5 165c0 31.333 2 63.666 6 96.999l10 83
c11.333 87.333 51.5 181.5 120.5 282.5s151.167 176.833 246.5 227.5c90 43.333 159.667 72.666 209 87.999c23.333 6.66699 48 12.334 74 17.001zM1085 1825l-352 -195l-62 113l330 239zM692 1378c-87.333 -32.667 -152.668 -84.5 -196.001 -155.5
s-72.333 -139.167 -87 -204.5c-12 -64 -18 -116 -18 -156c0 -113.333 20.667 -229.666 62 -348.999s92.833 -207.333 154.5 -264s121.167 -97.334 178.5 -122.001c53.333 -20.667 105.666 -31 156.999 -31c24.667 0 47.334 1.33301 68.001 4s48.667 9 84 19
c58.667 16 112.334 49 161.001 99s83.667 105.667 105 167c19.333 60 31.666 110 36.999 150l8 122c0 101.333 -15.667 201.5 -47 300.5s-75 182.667 -131 251s-118.167 118.5 -186.5 150.5s-133.166 48 -194.499 48h-24l-35 -6l-37 -6z" />
    <glyph glyph-name="Ocircumflex" unicode="&#xd4;" 
d="M796 1554l117.002 6.99902c113.333 0 224.166 -20.167 332.499 -60.5s198 -103.166 269 -188.499s123.333 -179.666 157 -282.999s50.5 -204.666 50.5 -303.999c0 -80.667 -14.667 -167.334 -44 -260.001s-90.5 -186.167 -183.5 -280.5s-190.5 -156.5 -292.5 -186.5
c-46.667 -14 -96 -25 -148 -33s-102.333 -12 -151 -12c-108 0 -211.833 14.667 -311.5 44s-189.834 78.5 -270.501 147.5s-143.667 159.5 -189 271.5c-20 57.333 -35.5 113.666 -46.5 168.999s-16.5 111 -16.5 167c0 32.667 2 65.334 6 98.001l10 80
c11.333 86 51.833 180.167 121.5 282.5s149.5 175.666 239.5 219.999s162.333 75.5 217 93.5zM898.002 1765l-237 -143l-123 100l350 211l357 -211l-123 -100zM692.002 1378c-87.333 -32.667 -152.667 -84.498 -196 -155.498s-72.333 -139.167 -87 -204.5
c-12 -64 -18 -115.333 -18 -154c0 -112 21.833 -228.333 65.5 -349s95.5 -209 155.5 -265s118 -97 174 -123c53.333 -20.667 105.666 -31 156.999 -31c24.667 0 47.334 1.33301 68.001 4s48.667 9 84 19c58.667 16 113 49.667 163 101s87 116.666 111 195.999
c12.667 39.333 22.334 78.5 29.001 117.5s10 79.5 10 121.5c0 104 -17 206.167 -51 306.5s-78.333 183.666 -133 249.999s-115.834 115.5 -183.501 147.5s-131.5 48 -191.5 48h-24l-39 -8l-53 -6z" />
    <glyph glyph-name="Otilde" unicode="&#xd5;" 
d="M796 1554l117.001 7.00098c113.333 0 223.833 -20.5 331.5 -61.5s197 -103.833 268 -188.5s123.333 -178.167 157 -280.5s50.5 -202.833 50.5 -301.5c0 -76.667 -14.333 -162.334 -43 -257.001s-89.5 -189.834 -182.5 -285.501s-190.5 -158.5 -292.5 -188.5
c-46.667 -14 -96 -25 -148 -33s-102.333 -12 -151 -12c-108 0 -211.167 14.667 -309.5 44s-188.833 78.5 -271.5 147.5s-146 159.5 -190 271.5c-20 56 -35.5 111.667 -46.5 167s-16.5 110.333 -16.5 165c0 38 5.16699 99 15.5 183s50 177.5 119 280.5
s150.167 177.333 243.5 223s164.666 76.167 213.999 91.5c23.333 6.66699 48 12.334 74 17.001zM1126 1870l120.999 -106.999c-41.333 -44.667 -83.166 -77 -125.499 -97s-84.5 -30 -126.5 -30h-45l-37.5 9.5l-35 8.5c-13.667 3.33301 -28.5 7.66602 -44.5 12.999l-37 10
l-68 11c-20 0 -50.667 -10.333 -92 -31l-114 104c65.333 66 130 99 194 99c32.667 0 73 -9 121 -27l37 -14c40.667 -14 72 -21 94 -21c49.333 0 102 24 158 72zM692 1378c-86 -35.333 -152.335 -87.667 -199.002 -157c-41.333 -66 -68.666 -132.333 -81.999 -199
s-20 -120 -20 -160c0 -113.333 20.667 -229.666 62 -348.999s92.833 -207.333 154.5 -264s121.167 -97.334 178.5 -122.001c53.333 -20.667 105.666 -31 156.999 -31c24.667 0 47.334 1.33301 68.001 4s48.667 9 84 19c58.667 16 112.334 49 161.001 99
s83.667 105.667 105 167c19.333 60 31.666 110 36.999 150l8 122c0 101.333 -15.667 201.5 -47 300.5s-75 182.667 -131 251s-118.167 118.5 -186.5 150.5s-133.166 48 -194.499 48h-24l-35 -6l-37 -6z" />
    <glyph glyph-name="Ugrave" unicode="&#xd9;" horiz-adv-x="1568" 
d="M1423 121l125.001 -0.00195312v-121h-435l-10 57l-6 56c-66.667 -48 -137 -86.333 -211 -115s-145 -43 -213 -43c-75.333 0 -156.333 20.167 -243 60.5s-144 100 -172 179s-42 185.5 -42 319.5v883h-141v123h455v-967c0 -98 7.33301 -175 22 -231
c14 -59.333 46.5 -102.833 97.5 -130.5s107.833 -41.5 170.5 -41.5l86 6c19.333 4 49.166 18.333 89.499 43s69.333 64.834 87 120.501s26.5 125.834 26.5 210.501v867h-141v123h455v-1399zM679.001 1946l332 -240l-62 -113l-354 195z" />
    <glyph glyph-name="Uacute" unicode="&#xda;" horiz-adv-x="1568" 
d="M1423 121l125.001 -0.00195312v-121h-435l-10 57l-6 56c-66.667 -48 -137 -86.333 -211 -115s-145 -43 -213 -43c-75.333 0 -156.333 20.167 -243 60.5s-144 100 -172 179s-42 185.5 -42 319.5v883h-141v123h455v-967c0 -98 7.33301 -175 22 -231
c14 -59.333 46.5 -102.833 97.5 -130.5s107.833 -41.5 170.5 -41.5l86 6c19.333 4 49.166 18.333 89.499 43s69.333 64.834 87 120.501s26.5 125.834 26.5 210.501v867h-141v123h455v-1399zM970.001 1788l-352 -195l-64 113l330 240z" />
    <glyph glyph-name="Yacute" unicode="&#xdd;" horiz-adv-x="1466" 
d="M49 1520h616v-123h-145l334 -619l325 619h-147v123h447v-123h-105l-584 -1161l25 2l29 2c26 0 57.333 -6.16699 94 -18.5s68 -18.5 94 -18.5c22 0 41.667 4.66699 59 14l41 33l35 49l64 -31c-20.667 -62.667 -50.167 -123 -88.5 -181s-71.833 -91 -100.5 -99l-65 -11
c-30 0 -78 8.33301 -144 25l-61 14c-34 8.66699 -58 13 -72 13l-37 -4l-43 -13c-13.333 -4 -35 -19 -65 -45l-90 64l211 409l-512 957h-115v123zM1059 1788l-353 -195l-61 113l330 240z" />
    <glyph glyph-name="agrave" unicode="&#xe0;" horiz-adv-x="1144" 
d="M286 1065l102 -29.001l-18 -53c94 54.667 195 82 303 82c44 0 81.333 -4.5 112 -13.5s66.5 -29.5 107.5 -61.5s70 -75.667 87 -131s25.5 -119 25.5 -191v-566h119v-102h-367c-13.333 32.667 -23.666 67.334 -30.999 104.001c-104.667 -96.667 -209 -145 -313 -145l-76 6
c-32.667 4 -72.834 21.333 -120.501 52s-86.5 74 -116.5 130c-20.667 44 -31 91.333 -31 142c0 72 22.5 143.5 67.5 214.5s115.333 118.5 211 142.5s202.167 36 319.5 36h68c0 23.333 -1.16699 45.5 -3.5 66.5s-8.83301 44.5 -19.5 70.5c-12 40 -36.667 66.667 -74 80
l-67 10c-46.667 0 -95.167 -16.333 -145.5 -49s-97.5 -77 -141.5 -133l-98 31zM548 1522l330 -242l-59 -111l-355 195zM411 488.999c-39.333 -36.667 -58.999 -85.001 -58.999 -145.001c0 -18 3 -38.167 9 -60.5s18.833 -45.166 38.5 -68.499s42.5 -41 68.5 -53
c20.667 -6.66699 42 -11.667 64 -15c40.667 0 77.334 11.667 110.001 35c45.333 32.667 73.166 81.167 83.499 145.5s15.5 141.5 15.5 231.5c-116 0 -192.833 -4.5 -230.5 -13.5s-70.834 -27.833 -99.501 -56.5z" />
    <glyph glyph-name="aacute" unicode="&#xe1;" horiz-adv-x="1144" 
d="M286 1065l102 -29.001l-18 -53c94 54.667 195 82 303 82c44 0 81.333 -4.5 112 -13.5s66.5 -29.5 107.5 -61.5s70 -75.667 87 -131s25.5 -119 25.5 -191v-566h119v-102h-367c-13.333 32.667 -23.666 67.334 -30.999 104.001c-104.667 -96.667 -209 -145 -313 -145l-76 6
c-32.667 4 -72.834 21.333 -120.501 52s-86.5 74 -116.5 130c-20.667 44 -31 91.333 -31 142c0 72 22.5 143.5 67.5 214.5s115.333 118.5 211 142.5s202.167 36 319.5 36h68c0 23.333 -1.16699 45.5 -3.5 66.5s-8.83301 44.5 -19.5 70.5c-12 40 -36.667 66.667 -74 80
l-67 10c-46.667 0 -95.167 -16.333 -145.5 -49s-97.5 -77 -141.5 -133l-98 31zM847 1364l-352 -195l-61 111l329 242zM411 488.999c-39.333 -36.667 -58.999 -85.001 -58.999 -145.001c0 -18 3 -38.167 9 -60.5s18.833 -45.166 38.5 -68.499s42.5 -41 68.5 -53
c20.667 -6.66699 42 -11.667 64 -15c40.667 0 77.334 11.667 110.001 35c45.333 32.667 73.166 81.167 83.499 145.5s15.5 141.5 15.5 231.5c-116 0 -192.833 -4.5 -230.5 -13.5s-70.834 -27.833 -99.501 -56.5z" />
    <glyph glyph-name="acircumflex" unicode="&#xe2;" horiz-adv-x="1144" 
d="M286 1065l102 -29.001l-18 -53c94 54.667 195 82 303 82c44 0 81.333 -4.5 112 -13.5s66.5 -29.5 107.5 -61.5s70 -75.667 87 -131s25.5 -119 25.5 -191v-566h119v-102h-367c-13.333 32.667 -23.666 67.334 -30.999 104.001c-104.667 -96.667 -209 -145 -313 -145l-76 6
c-32.667 4 -72.834 21.333 -120.501 52s-86.5 74 -116.5 130c-20.667 44 -31 91.333 -31 142c0 72 22.5 143.5 67.5 214.5s115.333 118.5 211 142.5s202.167 36 319.5 36h68c0 23.333 -1.16699 45.5 -3.5 66.5s-8.83301 44.5 -19.5 70.5c-12 40 -36.667 66.667 -74 80
l-67 10c-46.667 0 -95.167 -16.333 -145.5 -49s-97.5 -77 -141.5 -133l-98 31zM620 1313l-238 -146l-123 101l351 211l354 -211l-125 -101zM411 488.999c-39.333 -36.667 -58.999 -85.001 -58.999 -145.001c0 -18 3 -38.167 9 -60.5s18.833 -45.166 38.5 -68.499
s42.5 -41 68.5 -53c20.667 -6.66699 42 -11.667 64 -15c40.667 0 77.334 11.667 110.001 35c45.333 32.667 73.166 81.167 83.499 145.5s15.5 141.5 15.5 231.5c-116 0 -192.833 -4.5 -230.5 -13.5s-70.834 -27.833 -99.501 -56.5z" />
    <glyph glyph-name="atilde" unicode="&#xe3;" horiz-adv-x="1144" 
d="M286 1065l102 -29.001l-18 -53c94 54.667 195 82 303 82c44 0 81.333 -4.5 112 -13.5s66.5 -29.5 107.5 -61.5s70 -75.667 87 -131s25.5 -119 25.5 -191v-566h119v-102h-367c-13.333 32.667 -23.666 67.334 -30.999 104.001c-104.667 -96.667 -209 -145 -313 -145l-76 6
c-32.667 4 -72.834 21.333 -120.501 52s-86.5 74 -116.5 130c-20.667 44 -31 91.333 -31 142c0 72 22.5 143.5 67.5 214.5s115.333 118.5 211 142.5s202.167 36 319.5 36h68c0 23.333 -1.16699 45.5 -3.5 66.5s-8.83301 44.5 -19.5 70.5c-12 40 -36.667 66.667 -74 80
l-67 10c-46.667 0 -95.167 -16.333 -145.5 -49s-97.5 -77 -141.5 -133l-98 31zM806 1380l121 -104c-40.667 -45.333 -81.834 -78.5 -123.501 -99.5s-84.5 -31.5 -128.5 -31.5c-49.333 0 -104.666 11 -165.999 33l-37 10l-61 8c-15.333 0 -33 -4 -53 -12l-43 -17l-113 107
c11.333 10.667 27.5 23.5 48.5 38.5s37.5 26.167 49.5 33.5c30 14.667 62.333 22 97 22l55 -6l66 -19l34 -14c41.333 -13.333 73 -20 95 -20c50 0 103 23.667 159 71zM411 488.999c-39.333 -36.667 -58.999 -85.001 -58.999 -145.001c0 -18 3 -38.167 9 -60.5
s18.833 -45.166 38.5 -68.499s42.5 -41 68.5 -53c20.667 -6.66699 42 -11.667 64 -15c40.667 0 77.334 11.667 110.001 35c45.333 32.667 73.166 81.167 83.499 145.5s15.5 141.5 15.5 231.5c-116 0 -192.833 -4.5 -230.5 -13.5s-70.834 -27.833 -99.501 -56.5z" />
    <glyph glyph-name="egrave" unicode="&#xe8;" horiz-adv-x="1099" 
d="M1079 662l-700.999 -267.001c32.667 -74.667 78.5 -133.834 137.5 -177.501s119.167 -65.5 180.5 -65.5c53.333 0 103.166 10.5 149.499 31.5s96.833 60.833 151.5 119.5l84 -70c-68.667 -87.333 -148.334 -154.833 -239.001 -202.5s-179 -71.5 -265 -71.5l-35 2l-90 10
c-23.333 0 -49.666 6.83301 -78.999 20.5s-61 32.834 -95 57.501c-65.333 46.667 -117.333 113.667 -156 201c-18.667 44.667 -32.834 87.167 -42.501 127.5s-14.5 81.833 -14.5 124.5c0 122.667 32.167 229 96.5 319s135.333 153.167 213 189.5s155.5 54.5 233.5 54.5
l100 -8c26 0 52.333 -6.16699 79 -18.5s56.334 -30.166 89.001 -53.499c60 -40.667 103 -89 129 -145l53 -113zM485.001 1522l332 -242l-64 -111l-352 195zM755.001 796.999c-60 86 -124.665 129 -193.998 129c-33.333 0 -64.333 -5.5 -93 -16.5
s-53.834 -31.5 -75.501 -61.5s-38.834 -62 -51.501 -96c-4 -18 -7.33301 -35.833 -10 -53.5s-4 -38.167 -4 -61.5c0 -45.333 4.66699 -84.333 14 -117l455 172l-14 56c-4 16 -13 32.333 -27 49z" />
    <glyph glyph-name="eacute" unicode="&#xe9;" horiz-adv-x="1099" 
d="M1079 662l-700.999 -267.001c32.667 -74.667 78.5 -133.834 137.5 -177.501s119.167 -65.5 180.5 -65.5c53.333 0 103.166 10.5 149.499 31.5s96.833 60.833 151.5 119.5l84 -70c-68.667 -87.333 -148.334 -154.833 -239.001 -202.5s-179 -71.5 -265 -71.5l-35 2l-90 10
c-23.333 0 -49.666 6.83301 -78.999 20.5s-61 32.834 -95 57.501c-65.333 46.667 -117.333 113.667 -156 201c-18.667 44.667 -32.834 87.167 -42.501 127.5s-14.5 81.833 -14.5 124.5c0 122.667 32.167 229 96.5 319s135.333 153.167 213 189.5s155.5 54.5 233.5 54.5
l100 -8c26 0 52.333 -6.16699 79 -18.5s56.334 -30.166 89.001 -53.499c60 -40.667 103 -89 129 -145l53 -113zM763.001 1360l-352 -195l-63 111l329 244zM755.001 796.999c-60 86 -124.665 129 -193.998 129c-33.333 0 -64.333 -5.5 -93 -16.5s-53.834 -31.5 -75.501 -61.5
s-38.834 -62 -51.501 -96c-4 -18 -7.33301 -35.833 -10 -53.5s-4 -38.167 -4 -61.5c0 -45.333 4.66699 -84.333 14 -117l455 172l-14 56c-4 16 -13 32.333 -27 49z" />
    <glyph glyph-name="ecircumflex" unicode="&#xea;" horiz-adv-x="1099" 
d="M1079 662l-700.999 -267.001c32.667 -74.667 78.5 -133.834 137.5 -177.501s119.167 -65.5 180.5 -65.5c53.333 0 103.166 10.5 149.499 31.5s96.833 60.833 151.5 119.5l84 -70c-68.667 -87.333 -148.334 -154.833 -239.001 -202.5s-179 -71.5 -265 -71.5l-35 2l-90 10
c-23.333 0 -49.666 6.83301 -78.999 20.5s-61 32.834 -95 57.501c-65.333 46.667 -117.333 113.667 -156 201c-18.667 44.667 -32.834 87.167 -42.501 127.5s-14.5 81.833 -14.5 124.5c0 122.667 32.167 229 96.5 319s135.333 153.167 213 189.5s155.5 54.5 233.5 54.5
l100 -8c26 0 52.333 -6.16699 79 -18.5s56.334 -30.166 89.001 -53.499c60 -40.667 103 -89 129 -145l53 -113zM628.001 1303l-239 -146l-123 100l352 213l354 -213l-125 -100zM755.001 796.999c-60 86 -124.665 129 -193.998 129c-33.333 0 -64.333 -5.5 -93 -16.5
s-53.834 -31.5 -75.501 -61.5s-38.834 -62 -51.501 -96c-4 -18 -7.33301 -35.833 -10 -53.5s-4 -38.167 -4 -61.5c0 -45.333 4.66699 -84.333 14 -117l455 172l-14 56c-4 16 -13 32.333 -27 49z" />
    <glyph glyph-name="igrave" unicode="&#xec;" horiz-adv-x="620" 
d="M480 1049l-8 -58l-2 -39v-850h117v-102h-508v102h113v727l-113 -28v121zM206 1518l330 -242l-64 -113l-352 195z" />
    <glyph glyph-name="iacute" unicode="&#xed;" horiz-adv-x="620" 
d="M481 1049l-9 -58l-2 -39v-850h117v-102h-508v102h113v727l-113 -28v121zM483 1362l-353 -195l-61 111l330 242z" />
    <glyph glyph-name="ograve" unicode="&#xf2;" horiz-adv-x="1236" 
d="M552 1061l53.999 3.99512c77.333 0 162.5 -15.667 255.5 -47s166.167 -76.666 219.5 -135.999s90 -120.666 110 -183.999c11.333 -34 19.666 -65 24.999 -93s8 -59.667 8 -95c0 -44 -2.66699 -77.333 -8 -100l-29 -115c-12 -54.667 -46.667 -110 -104 -166
s-128.333 -99 -213 -129c-42.667 -13.333 -81 -23.5 -115 -30.5s-68 -10.5 -102 -10.5c-75.333 0 -146.166 10.667 -212.499 32s-130.833 56.833 -193.5 106.5s-109.667 118.167 -141 205.5c-14 44 -24.333 86.833 -31 128.5s-10 85.5 -10 131.5
c8 92.667 33.833 175.334 77.5 248.001s104.834 129.334 183.501 170.001s154 67.334 226 80.001zM504.999 1513l328 -241l-59 -113l-353 197zM345.999 671.995l-1.99512 -43.001c0 -90 16 -181.833 48 -275.5s68.333 -158.167 109 -193.5
c41.333 -30 75.666 -49.333 102.999 -58c31.333 -6.66699 58.666 -10 81.999 -10c35.333 0 67.333 4.66699 96 14c47.333 20.667 82.666 53 105.999 97c24.667 40.667 39 76.667 43 108l6 76c0 88.667 -14.667 180.834 -44 276.501s-64.833 159.834 -106.5 192.501
s-76.834 53.167 -105.501 61.5s-55.667 12.5 -81 12.5c-38.667 0 -77.834 -8.5 -117.501 -25.5s-69.667 -44.333 -90 -82s-35.833 -87.834 -46.5 -150.501z" />
    <glyph glyph-name="oacute" unicode="&#xf3;" horiz-adv-x="1236" 
d="M552 1061l53.999 3.99512c77.333 0 162.5 -15.667 255.5 -47s166.167 -76.666 219.5 -135.999s90 -120.666 110 -183.999c11.333 -34 19.666 -65 24.999 -93s8 -59.667 8 -95c0 -44 -2.66699 -77.333 -8 -100l-29 -115c-12 -54.667 -46.667 -110 -104 -166
s-128.333 -99 -213 -129c-42.667 -13.333 -81 -23.5 -115 -30.5s-68 -10.5 -102 -10.5c-75.333 0 -146.166 10.667 -212.499 32s-130.833 56.833 -193.5 106.5s-109.667 118.167 -141 205.5c-14 44 -24.333 86.833 -31 128.5s-10 85.5 -10 131.5
c8 92.667 33.833 175.334 77.5 248.001s104.834 129.334 183.501 170.001s154 67.334 226 80.001zM793.999 1360l-352 -195l-62 111l328 244zM345.999 671.995l-1.99512 -43.001c0 -90 16 -181.833 48 -275.5s68.333 -158.167 109 -193.5
c41.333 -30 75.666 -49.333 102.999 -58c31.333 -6.66699 58.666 -10 81.999 -10c35.333 0 67.333 4.66699 96 14c47.333 20.667 82.666 53 105.999 97c24.667 40.667 39 76.667 43 108l6 76c0 88.667 -14.667 180.834 -44 276.501s-64.833 159.834 -106.5 192.501
s-76.834 53.167 -105.501 61.5s-55.667 12.5 -81 12.5c-38.667 0 -77.834 -8.5 -117.501 -25.5s-69.667 -44.333 -90 -82s-35.833 -87.834 -46.5 -150.501z" />
    <glyph glyph-name="ocircumflex" unicode="&#xf4;" horiz-adv-x="1236" 
d="M552 1061l53.999 3.99512c77.333 0 162.5 -15.667 255.5 -47s166.167 -76.666 219.5 -135.999s90 -120.666 110 -183.999c11.333 -34 19.666 -65 24.999 -93s8 -59.667 8 -95c0 -44 -2.66699 -77.333 -8 -100l-29 -115c-12 -54.667 -46.667 -110 -104 -166
s-128.333 -99 -213 -129c-42.667 -13.333 -81 -23.5 -115 -30.5s-68 -10.5 -102 -10.5c-75.333 0 -146.166 10.667 -212.499 32s-130.833 56.833 -193.5 106.5s-109.667 118.167 -141 205.5c-14 44 -24.333 86.833 -31 128.5s-10 85.5 -10 131.5
c8 92.667 33.833 175.334 77.5 248.001s104.834 129.334 183.501 170.001s154 67.334 226 80.001zM631.999 1311l-237 -146l-123 101l352 213l354 -213l-125 -101zM345.999 671.995l-1.99512 -43.001c0 -90 16 -181.833 48 -275.5s68.333 -158.167 109 -193.5
c41.333 -30 75.666 -49.333 102.999 -58c31.333 -6.66699 58.666 -10 81.999 -10c35.333 0 67.333 4.66699 96 14c47.333 20.667 82.666 53 105.999 97c24.667 40.667 39 76.667 43 108l6 76c0 88.667 -14.667 180.834 -44 276.501s-64.833 159.834 -106.5 192.501
s-76.834 53.167 -105.501 61.5s-55.667 12.5 -81 12.5c-38.667 0 -77.834 -8.5 -117.501 -25.5s-69.667 -44.333 -90 -82s-35.833 -87.834 -46.5 -150.501z" />
    <glyph glyph-name="otilde" unicode="&#xf5;" horiz-adv-x="1236" 
d="M552 1061l53.999 3.99512c77.333 0 162.5 -15.667 255.5 -47s166.167 -76.666 219.5 -135.999s90 -120.666 110 -183.999c11.333 -34 19.666 -65 24.999 -93s8 -59.667 8 -95c0 -44 -2.66699 -77.333 -8 -100l-29 -115c-12 -54.667 -46.667 -110 -104 -166
s-128.333 -99 -213 -129c-42.667 -13.333 -81 -23.5 -115 -30.5s-68 -10.5 -102 -10.5c-75.333 0 -146.166 10.667 -212.499 32s-130.833 56.833 -193.5 106.5s-109.667 118.167 -141 205.5c-14 44 -24.333 86.833 -31 128.5s-10 85.5 -10 131.5
c8 92.667 33.833 175.334 77.5 248.001s104.834 129.334 183.501 170.001s154 67.334 226 80.001zM857.999 1380l121.999 -104c-39.333 -44 -80.833 -76.833 -124.5 -98.5s-87.5 -32.5 -131.5 -32.5c-46 0 -99.667 11 -161 33l-37 10l-62 8c-16 0 -34.333 -4 -55 -12
l-41 -17l-113 107c11.333 10.667 27.5 23.5 48.5 38.5s37.833 26.167 50.5 33.5c30 14.667 62 22 96 22l55 -6l66 -19l35 -14c36.667 -13.333 67.334 -20 92.001 -20c50.667 0 104 23.667 160 71zM345.998 671.995l-1.99512 -43.001c0 -90 16 -181.833 48 -275.5
s68.333 -158.167 109 -193.5c41.333 -30 75.666 -49.333 102.999 -58c31.333 -6.66699 58.666 -10 81.999 -10c35.333 0 67.333 4.66699 96 14c47.333 20.667 82.666 53 105.999 97c24.667 40.667 39 76.667 43 108l6 76c0 88.667 -14.667 180.834 -44 276.501
s-64.833 159.834 -106.5 192.501s-76.834 53.167 -105.501 61.5s-55.667 12.5 -81 12.5c-38.667 0 -77.834 -8.5 -117.501 -25.5s-69.667 -44.333 -90 -82s-35.833 -87.834 -46.5 -150.501z" />
    <glyph glyph-name="divide" unicode="&#xf7;" horiz-adv-x="1706" 
 />
    <glyph glyph-name="glyph216" unicode="&#xf9;" horiz-adv-x="1236" 
d="M829 829l-113.001 -28v121l403 127l-6 -45l-2 -52v-850h111v-102h-385l-6 45l-2 57c-63.333 -43.333 -127.333 -78 -192 -104s-123.667 -39 -177 -39c-45.333 0 -92.833 12.333 -142.5 37s-83 61.834 -100 111.501s-25.5 113.5 -25.5 191.5v49v481l-113 -28v121l401 127
l-8 -58l-2 -39v-528c0 -75.333 3.16699 -129.333 9.5 -162s24.5 -60 54.5 -82c30 -18.667 61.333 -28 94 -28l33 4l43 12c14.667 5.33301 35.334 17.166 62.001 35.499s47.667 38.5 63 60.5v565zM590.999 1520l330 -244l-62 -111l-354 195z" />
    <glyph glyph-name="glyph217" unicode="&#xfa;" horiz-adv-x="1236" 
d="M829 829l-113.001 -28v121l403 127l-6 -45l-2 -52v-850h111v-102h-385l-6 45l-2 57c-63.333 -43.333 -127.333 -78 -192 -104s-123.667 -39 -177 -39c-45.333 0 -92.833 12.333 -142.5 37s-83 61.834 -100 111.501s-25.5 113.5 -25.5 191.5v49v481l-113 -28v121l401 127
l-8 -58l-2 -39v-528c0 -75.333 3.16699 -129.333 9.5 -162s24.5 -60 54.5 -82c30 -18.667 61.333 -28 94 -28l33 4l43 12c14.667 5.33301 35.334 17.166 62.001 35.499s47.667 38.5 63 60.5v565zM828.999 1354l-353 -197l-59 113l330 241z" />
    <glyph glyph-name="glyph234" unicode="&#xfd;" horiz-adv-x="1134" 
d="M399 1059l22.0029 -67.998l43 -94c46.667 50.667 91.667 89 135 115c41.333 21.333 80.333 32 117 32c24.667 0 50.667 -3.33301 78 -10l80 -16l28 -6l58 -6c17.333 0 34.666 2.33301 51.999 7s37.333 16 60 34l74 -62l-31 -51l-28 -51l-426 -996
c-22 -54.667 -43.167 -101.334 -63.5 -140.001s-39.5 -68.334 -57.5 -89.001c-31.333 -39.333 -70.333 -63.333 -117 -72l-92 -10c-40.667 0 -87.667 8.33301 -141 25l49 249c30 -14.667 64.667 -22 104 -22c31.333 0 60.666 4.5 87.999 13.5s49.166 23.333 65.499 43
s28.833 39.167 37.5 58.5l22 57l-379 811l-92 -51l-53 102zM820.003 803.002l-102 36.999c-40.667 14.667 -72.667 23.334 -96 26.001c-34 0 -75 -15 -123 -45l209 -485l186 457l-39 2zM828.003 1354l-352 -197l-59 113l330 241z" />
    <glyph glyph-name="Abreve" unicode="&#x102;" horiz-adv-x="1536" 
d="M653 1501h342l6 -51l15 -53l422 -1276h116v-121h-569v121h98l-88 285h-530l-92 -285h129v-121h-455v121h123l459 1276l14 57zM741 1206l-231 -659h440zM428 1781l44.002 62.998c64.667 -35.333 127.667 -61.833 189 -79.5s121.666 -26.5 180.999 -26.5
c57.333 0 109 6.16699 155 18.5s80 23.166 102 32.499c13.333 5.33301 26.666 11.5 39.999 18.5l52 28.5l45 -63c-60 -61.333 -123 -105.666 -189 -132.999s-133.333 -41 -202 -41c-20 0 -39.5 1 -58.5 3s-39.833 5.33301 -62.5 10
c-42.667 8.66699 -91.167 27.334 -145.5 56.001s-104.5 66.334 -150.5 113.001z" />
    <glyph glyph-name="abreve" unicode="&#x103;" horiz-adv-x="1144" 
d="M286 1065l102 -29.001l-18 -53c94 54.667 195 82 303 82c44 0 81.333 -4.5 112 -13.5s66.5 -29.5 107.5 -61.5s70 -75.667 87 -131s25.5 -119 25.5 -191v-566h119v-102h-367c-13.333 32.667 -23.666 67.334 -30.999 104.001c-104.667 -96.667 -209 -145 -313 -145l-76 6
c-32.667 4 -72.834 21.333 -120.501 52s-86.5 74 -116.5 130c-20.667 44 -31 91.333 -31 142c0 72 22.5 143.5 67.5 214.5s115.333 118.5 211 142.5s202.167 36 319.5 36h68c0 23.333 -1.16699 45.5 -3.5 66.5s-8.83301 44.5 -19.5 70.5c-12 40 -36.667 66.667 -74 80
l-67 10c-46.667 0 -95.167 -16.333 -145.5 -49s-97.5 -77 -141.5 -133l-98 31zM411 488.999c-39.333 -36.667 -58.999 -85.001 -58.999 -145.001c0 -18 3 -38.167 9 -60.5s18.833 -45.166 38.5 -68.499s42.5 -41 68.5 -53c20.667 -6.66699 42 -11.667 64 -15
c40.667 0 77.334 11.667 110.001 35c45.333 32.667 73.166 81.167 83.499 145.5s15.5 141.5 15.5 231.5c-116 0 -192.833 -4.5 -230.5 -13.5s-70.834 -27.833 -99.501 -56.5zM270.001 1341l41.002 62.998c58.667 -35.333 116 -61.833 172 -79.5s111 -26.5 165 -26.5
c52 0 99.167 6.16699 141.5 18.5s73.166 23.166 92.499 32.499c12.667 5.33301 25.167 11.5 37.5 18.5s28.166 16.5 47.499 28.5l40 -63c-54.667 -61.333 -112 -105.666 -172 -132.999s-121.333 -41 -184 -41c-18.667 0 -36.5 1 -53.5 3s-36.167 5.33301 -57.5 10
c-38.667 8.66699 -82.667 27.334 -132 56.001s-95.333 66.334 -138 113.001z" />
    <glyph glyph-name="Ccaron" unicode="&#x10c;" horiz-adv-x="1274" 
 />
    <glyph glyph-name="ccaron" unicode="&#x10d;" horiz-adv-x="922" 
 />
    <glyph glyph-name="Dslash" unicode="&#x110;" horiz-adv-x="1527" 
d="M529 807l-0.000976562 -686.002h134c38 0 114.333 14.667 229 44s192.834 100.333 234.501 213s66.5 191.834 74.5 237.501s12 95.167 12 148.5c0 84.667 -10.5 163.5 -31.5 236.5s-61.833 145.667 -122.5 218s-132 120.833 -214 145.5
c-42.667 10.667 -88.5 18.834 -137.5 24.501s-108.5 8.5 -178.5 8.5v-402h3c20 0 38.333 4.33301 55 13l38 30l32 45l59 -28c-19.333 -58 -45.333 -111.667 -78 -161c-30 -44.667 -66.333 -73.667 -109 -87zM215.999 1013l-0.000976562 384h-141v123h684
c154 0 287.667 -27.333 401 -82s203.833 -146.5 271.5 -275.5s101.5 -263.833 101.5 -404.5c0 -158.667 -41 -302.5 -123 -431.5s-187.167 -215.667 -315.5 -260s-275.166 -66.5 -440.499 -66.5h-579v121h141v712l-24 -3l-40 -11c-12.667 -4 -33 -18 -61 -42l-83 59l104 126
c38 22.667 72.667 39.667 104 51z" />
    <glyph glyph-name="dcroat" unicode="&#x111;" horiz-adv-x="1271" 
d="M504 901c-48 -36.667 -83.6689 -89.832 -107.002 -159.499s-35 -135.834 -35 -198.501v-33l13 -92c6.66699 -50.667 27.334 -101.667 62.001 -153s72 -87 112 -107c42 -18 79.667 -27 113 -27c46 0 88.833 13 128.5 39s64.834 52.667 75.501 80v555
c-2.66699 9.33301 -6.66699 18.833 -12 28.5s-13 20.5 -23 32.5c-16 20.667 -37.667 39.5 -65 56.5s-66.333 25.5 -117 25.5c-28.667 0 -56.667 -4 -84 -12l-28 -14zM865.998 1269l-0.00390625 139.001l-114 -35v116l508 162v-121l-113 -34v-227h112v-105h-112v-1062h113
v-102h-373l-15 39c-4 22 -7.33301 34.333 -10 37c-68 -38.667 -130 -67.334 -186 -86.001c-53.333 -20.667 -108 -31 -164 -31c-57.333 0 -122.833 18.5 -196.5 55.5s-134.167 95 -181.5 174s-71 158.167 -71 237.5c0 102.667 18.167 202.334 54.5 299.001
s101 177.5 194 242.5s192.5 97.5 298.5 97.5c24.667 0 43.834 -0.666992 57.501 -2s32.834 -4.83301 57.501 -10.5s45.834 -10.834 63.501 -15.501s40.834 -13.667 69.501 -27l8 -4v158h-383v105h383z" />
    <glyph glyph-name="Itilde" unicode="&#x128;" horiz-adv-x="704" 
d="M75 1520h594v-123h-139v-1276h139v-121h-594v121h141v1276h-141v123zM710 1870l121.003 -106.999c-40.667 -44.667 -82.167 -77 -124.5 -97s-84.833 -30 -127.5 -30h-45c-14.667 4 -26.834 7.16699 -36.501 9.5l-35 8.5c-13.667 3.33301 -28.5 7.66602 -44.5 12.999
l-37 10l-68 11c-20.667 0 -51.334 -10.333 -92.001 -31l-115 104c66 66 131 99 195 99c32.667 0 73 -9 121 -27l37 -14c40.667 -14 72 -21 94 -21c49.333 0 101.666 24 156.999 72z" />
    <glyph glyph-name="itilde" unicode="&#x129;" horiz-adv-x="620" 
d="M481 1049l-9 -58l-2 -39v-850h117v-102h-508v102h113v727l-113 -28v121zM659 1380l121.001 -104c-40.667 -45.333 -81.834 -78.5 -123.501 -99.5s-84.5 -31.5 -128.5 -31.5c-49.333 0 -104.666 11 -165.999 33l-37 10l-61 8c-15.333 0 -33 -4 -53 -12l-43 -17l-113 107
c10.667 10.667 26.667 23.5 48 38.5s38 26.167 50 33.5c30 14.667 62.333 22 97 22l55 -6l65 -19l35 -14c41.333 -13.333 72.666 -20 93.999 -20c50.667 0 104 23.667 160 71z" />
    <glyph glyph-name="Utilde" unicode="&#x168;" horiz-adv-x="1568" 
d="M1423 121l125.001 -0.00195312v-121h-435l-10 57l-6 56c-66.667 -48 -137 -86.333 -211 -115s-145 -43 -213 -43c-75.333 0 -156.333 20.167 -243 60.5s-144 100 -172 179s-42 185.5 -42 319.5v883h-141v123h455v-967c0 -98 7.33301 -175 22 -231
c14 -59.333 46.5 -102.833 97.5 -130.5s107.833 -41.5 170.5 -41.5l86 6c19.333 4 49.166 18.333 89.499 43s69.333 64.834 87 120.501s26.5 125.834 26.5 210.501v867h-141v123h455v-1399zM1119 1870l121.003 -106.999c-40.667 -44.667 -82.167 -77 -124.5 -97
s-84.833 -30 -127.5 -30h-45c-14.667 4 -26.834 7.16699 -36.501 9.5l-35 8.5c-13.667 3.33301 -28.5 7.66602 -44.5 12.999l-37 10l-68 11c-20.667 0 -51.334 -10.333 -92.001 -31l-115 104c66 66 131 99 195 99c32.667 0 73 -9 121 -27l37 -14c40.667 -14 72 -21 94 -21
c49.333 0 101.666 24 156.999 72z" />
    <glyph glyph-name="utilde" unicode="&#x169;" horiz-adv-x="1236" 
d="M829 829l-113.001 -28v121l403 127l-6 -45l-2 -52v-850h111v-102h-385l-6 45l-2 57c-63.333 -43.333 -127.333 -78 -192 -104s-123.667 -39 -177 -39c-45.333 0 -92.833 12.333 -142.5 37s-83 61.834 -100 111.501s-25.5 113.5 -25.5 191.5v49v481l-113 -28v121l401 127
l-8 -58l-2 -39v-528c0 -75.333 3.16699 -129.333 9.5 -162s24.5 -60 54.5 -82c30 -18.667 61.333 -28 94 -28l33 4l43 12c14.667 5.33301 35.334 17.166 62.001 35.499s47.667 38.5 63 60.5v565zM951.999 1380l123 -104c-39.333 -44 -80.833 -76.833 -124.5 -98.5
s-87.5 -32.5 -131.5 -32.5c-46.667 0 -100.667 11 -162 33l-37 10l-61 8c-16.667 0 -35 -4 -55 -12l-41 -17l-113 107c11.333 10.667 27.5 23.5 48.5 38.5s37.5 26.167 49.5 33.5c30 14.667 62.333 22 97 22l55 -6l66 -19l34 -14c37.333 -13.333 68 -20 92 -20
c50.667 0 104 23.667 160 71z" />
    <glyph glyph-name="Ohorn" unicode="&#x1a0;" 
d="M692 1378c-87.333 -32.667 -152.668 -84.5 -196.001 -155.5s-72.333 -139.167 -87 -204.5c-12 -64 -18 -116 -18 -156c0 -113.333 20.667 -229.666 62 -348.999s92.833 -207.333 154.5 -264s121.167 -97.334 178.5 -122.001c53.333 -20.667 105.666 -31 156.999 -31
c24.667 0 47.334 1.33301 68.001 4s48.667 9 84 19c58.667 16 112.334 49 161.001 99s83.667 105.667 105 167c19.333 60 31.666 110 36.999 150l8 122c0 101.333 -15.667 201.5 -47 300.5s-75 182.667 -131 251s-118.167 118.5 -186.5 150.5s-133.166 48 -194.499 48h-24
l-35 -6l-37 -6zM1556 1255c49.333 -69.333 87.333 -143.997 114 -223.997c33.333 -102.667 50 -203.334 50 -302.001c0 -76.667 -14.333 -162.334 -43 -257.001s-89.5 -189.834 -182.5 -285.501s-190.5 -158.5 -292.5 -188.5c-46.667 -14 -96 -25 -148 -33
s-102.333 -12 -151 -12c-108 0 -211.167 14.667 -309.5 44s-188.833 78.5 -271.5 147.5s-146 159.5 -190 271.5c-20 56 -35.5 111.667 -46.5 167s-16.5 110.333 -16.5 165c0 31.333 2 63.666 6 96.999l10 83c11.333 87.333 51.5 181.5 120.5 282.5
s151.167 176.833 246.5 227.5c90 43.333 159.667 72.666 209 87.999c23.333 6.66699 48 12.334 74 17.001l61 11l117 7c113.333 0 224 -20.333 332 -61c76.667 -29.333 144 -69.666 202 -120.999l59 11v98l-2 56l-5 51l244 49v-86l-49 -14v-262z" />
    <glyph glyph-name="ohorn" unicode="&#x1a1;" horiz-adv-x="1247" 
d="M354 672l-1.99805 -43.002c0 -90 16 -182.5 48 -277.5s68.333 -158.833 109 -191.5c41.333 -30 75.666 -49.333 102.999 -58c31.333 -6.66699 58.666 -10 81.999 -10c35.333 0 67.333 4.66699 96 14c46 20.667 83 53.834 111 99.501s42 89.834 42 132.501v43
c0 45.333 -3.33301 89.5 -10 132.5s-18.334 91.5 -35.001 145.5c-28.667 100 -62.667 165.333 -102 196s-74.166 50.834 -104.499 60.501s-58.166 14.5 -83.499 14.5c-38.667 0 -77.834 -8.5 -117.501 -25.5s-69.667 -44.333 -90 -82s-35.833 -87.834 -46.5 -150.501z
M1172 762.998c11.333 -21.333 20.3311 -42.998 26.998 -64.998c11.333 -34 19.666 -65 24.999 -93s8 -59.667 8 -95c0 -44 -2.66699 -77.333 -8 -100l-31 -115c-12 -52 -48 -108 -108 -168c-54.667 -54.667 -123.667 -96.334 -207 -125.001s-155.666 -43 -216.999 -43
c-75.333 0 -145.666 10.667 -210.999 32s-128.833 56.166 -190.5 104.499s-109.5 112.166 -143.5 191.499c-30 82 -45 159.667 -45 233l8 105c0 44.667 22.833 105 68.5 181s107.834 134.333 186.501 175s154 67.334 226 80.001l54 4c77.333 0 162.666 -15.667 255.999 -47
c88.667 -30 159.334 -72.667 212.001 -128l53 10v149l181 39v-86l-49 -14v-206z" />
    <glyph glyph-name="Uhorn" unicode="&#x1af;" horiz-adv-x="1568" 
d="M1423 1240l0.000976562 -1119h125v-121h-435l-10 57l-6 56c-66.667 -48 -137 -86.333 -211 -115s-145 -43 -213 -43c-75.333 0 -156.333 20.167 -243 60.5s-144 100 -172 179s-42 185.5 -42 319.5v883h-141v123h455v-967c0 -98 7.33301 -175 22 -231
c14 -59.333 46.5 -102.833 97.5 -130.5s107.833 -41.5 170.5 -41.5l86 6c19.333 4 49.166 18.333 89.499 43s69.333 64.834 87 120.501s26.5 125.834 26.5 210.501v867h-141v123h455v-134l22 4v98l-2 56l-5 51l244 49v-86l-49 -14v-262z" />
    <glyph glyph-name="uhorn" unicode="&#x1b0;" horiz-adv-x="1268" 
d="M1111 746l-0.000976562 -644h111v-102h-385l-6 45l-2 57c-63.333 -43.333 -127.333 -78 -192 -104s-123.667 -39 -177 -39c-45.333 0 -92.833 12.333 -142.5 37s-83 61.834 -100 111.501s-25.5 113.5 -25.5 191.5v530l-113 -28v121l401 127l-8 -58l-2 -39v-528
c0 -75.333 3.16699 -129.333 9.5 -162s24.5 -60 54.5 -82c30 -18.667 61.333 -28 94 -28l33 4l43 12c14.667 5.33301 35.334 17.166 62.001 35.499s47.667 38.5 63 60.5v565l-113 -28v121l403 127l-6 -45l-2 -52v-61l45 9v149l181 39v-86l-49 -14v-206z" />
    <glyph glyph-name="uni1EA0" unicode="&#x1ea0;" horiz-adv-x="1536" 
d="M655 1501h342l6 -51l15 -53l422 -1276h116v-121h-569v121h98l-88 285h-530l-92 -285h129v-121h-455v121h123l459 1276l14 57zM690 -126l45.001 6l43 -6c11.333 -1.33301 23.166 -6.5 35.499 -15.5s23.833 -24.167 34.5 -45.5
c6.66699 -16.667 11.334 -37.334 14.001 -62.001c0 -23.333 -5.33301 -43.666 -16 -60.999c-8 -18 -22 -32.167 -42 -42.5s-42.333 -16.833 -67 -19.5c-14.667 0 -36.334 6.33301 -65.001 19c-23.333 12 -39 33 -47 63l-6 54c0 22.667 5.66699 44 17 64s29.333 35.333 54 46
zM743.001 1206l-231 -659h440z" />
    <glyph glyph-name="uni1EA1" unicode="&#x1ea1;" horiz-adv-x="1144" 
d="M286 1065l102 -29.001l-18 -53c94 54.667 195 82 303 82c44 0 81.333 -4.5 112 -13.5s66.5 -29.5 107.5 -61.5s70 -75.667 87 -131s25.5 -119 25.5 -191v-566h119v-102h-367c-13.333 32.667 -23.666 67.334 -30.999 104.001c-104.667 -96.667 -209 -145 -313 -145l-76 6
c-32.667 4 -72.834 21.333 -120.501 52s-86.5 74 -116.5 130c-20.667 44 -31 91.333 -31 142c0 72 22.5 143.5 67.5 214.5s115.333 118.5 211 142.5s202.167 36 319.5 36h68c0 23.333 -1.16699 45.5 -3.5 66.5s-8.83301 44.5 -19.5 70.5c-12 40 -36.667 66.667 -74 80
l-67 10c-46.667 0 -95.167 -16.333 -145.5 -49s-97.5 -77 -141.5 -133l-98 31zM411 488.999c-39.333 -36.667 -58.999 -85.001 -58.999 -145.001c0 -18 3 -38.167 9 -60.5s18.833 -45.166 38.5 -68.499s42.5 -41 68.5 -53c20.667 -6.66699 42 -11.667 64 -15
c40.667 0 77.334 11.667 110.001 35c45.333 32.667 73.166 81.167 83.499 145.5s15.5 141.5 15.5 231.5c-116 0 -192.833 -4.5 -230.5 -13.5s-70.834 -27.833 -99.501 -56.5zM521.001 -126.002l45.002 6l43 -6c10.667 -1.33301 22.167 -6.5 34.5 -15.5
s24.166 -24.167 35.499 -45.5c6.66699 -16.667 11.334 -37.334 14.001 -62.001c0 -23.333 -5.33301 -43.666 -16 -60.999c-8.66699 -18 -22.834 -32.167 -42.501 -42.5s-41.834 -16.833 -66.501 -19.5c-14.667 0 -36.334 6.33301 -65.001 19c-23.333 12 -39.333 33 -48 63
l-6 54c0 22.667 5.83301 44 17.5 64s29.834 35.333 54.501 46z" />
    <glyph glyph-name="uni1EA2" unicode="&#x1ea2;" horiz-adv-x="1536" 
d="M655 1501h342l6 -51l15 -53l422 -1276h116v-121h-569v121h98l-88 285h-530l-92 -285h129v-121h-455v121h123l459 1276l14 57zM743 1206l-231 -659h440zM1033 1973l104.001 108.001c45.333 -36 78.5 -72.5 99.5 -109.5s31.5 -74.833 31.5 -113.5
c0 -40.667 -10.667 -87.667 -32 -141l-9 -33c-8 -24.667 -12 -44.334 -12 -59.001c0 -10.667 3.33301 -22.667 10 -36l21 -44l-107 -99c-32.667 28.667 -56.834 57.667 -72.501 87s-23.5 57 -23.5 83c0 28.667 9 64 27 106l14 32c13.333 32.667 20 59.667 20 81
c0 45.333 -23.667 91.333 -71 138z" />
    <glyph glyph-name="uni1EA3" unicode="&#x1ea3;" horiz-adv-x="1144" 
d="M286 1065l102 -29.001l-18 -53c94 54.667 195 82 303 82c44 0 81.333 -4.5 112 -13.5s66.5 -29.5 107.5 -61.5s70 -75.667 87 -131s25.5 -119 25.5 -191v-566h119v-102h-367c-13.333 32.667 -23.666 67.334 -30.999 104.001c-104.667 -96.667 -209 -145 -313 -145l-76 6
c-32.667 4 -72.834 21.333 -120.501 52s-86.5 74 -116.5 130c-20.667 44 -31 91.333 -31 142c0 72 22.5 143.5 67.5 214.5s115.333 118.5 211 142.5s202.167 36 319.5 36h68c0 23.333 -1.16699 45.5 -3.5 66.5s-8.83301 44.5 -19.5 70.5c-12 40 -36.667 66.667 -74 80
l-67 10c-46.667 0 -95.167 -16.333 -145.5 -49s-97.5 -77 -141.5 -133l-98 31zM411 488.999c-39.333 -36.667 -58.999 -85.001 -58.999 -145.001c0 -18 3 -38.167 9 -60.5s18.833 -45.166 38.5 -68.499s42.5 -41 68.5 -53c20.667 -6.66699 42 -11.667 64 -15
c40.667 0 77.334 11.667 110.001 35c45.333 32.667 73.166 81.167 83.499 145.5s15.5 141.5 15.5 231.5c-116 0 -192.833 -4.5 -230.5 -13.5s-70.834 -27.833 -99.501 -56.5zM665.001 1657l105.001 108.001c44.667 -36 77.667 -72.5 99 -109.5s32 -74.833 32 -113.5
c0 -40.667 -11 -87.667 -33 -141l-8 -33c-8 -24.667 -12 -44.334 -12 -59.001c0 -10.667 3.33301 -22.667 10 -36l20 -44l-106 -99c-32.667 28.667 -56.834 57.667 -72.501 87s-23.5 57 -23.5 83c0 28.667 8.66699 64 26 106l14 32c14 32.667 21 59.667 21 81
c0 45.333 -24 91.333 -72 138z" />
    <glyph glyph-name="uni1EA4" unicode="&#x1ea4;" horiz-adv-x="1536" 
d="M655 1501h342l6 -51l15 -53l422 -1276h116v-121h-569v121h98l-88 285h-530l-92 -285h129v-121h-455v121h123l459 1276l14 57zM840 1743l-236 -146l-125 101l350 213l359 -213l-125 -101zM743 1206l-231 -659h440zM1440 2020l-353 -195l-61 113l330 240z" />
    <glyph glyph-name="uni1EA5" unicode="&#x1ea5;" horiz-adv-x="1144" 
d="M286 1065l102 -29.001l-18 -53c94 54.667 195 82 303 82c44 0 81.333 -4.5 112 -13.5s66.5 -29.5 107.5 -61.5s70 -75.667 87 -131s25.5 -119 25.5 -191v-566h119v-102h-367c-13.333 32.667 -23.666 67.334 -30.999 104.001c-104.667 -96.667 -209 -145 -313 -145l-76 6
c-32.667 4 -72.834 21.333 -120.501 52s-86.5 74 -116.5 130c-20.667 44 -31 91.333 -31 142c0 72 22.5 143.5 67.5 214.5s115.333 118.5 211 142.5s202.167 36 319.5 36h68c0 23.333 -1.16699 45.5 -3.5 66.5s-8.83301 44.5 -19.5 70.5c-12 40 -36.667 66.667 -74 80
l-67 10c-46.667 0 -95.167 -16.333 -145.5 -49s-97.5 -77 -141.5 -133l-98 31zM411 488.999c-39.333 -36.667 -58.999 -85.001 -58.999 -145.001c0 -18 3 -38.167 9 -60.5s18.833 -45.166 38.5 -68.499s42.5 -41 68.5 -53c20.667 -6.66699 42 -11.667 64 -15
c40.667 0 77.334 11.667 110.001 35c45.333 32.667 73.166 81.167 83.499 145.5s15.5 141.5 15.5 231.5c-116 0 -192.833 -4.5 -230.5 -13.5s-70.834 -27.833 -99.501 -56.5zM1229 1590l-352 -195l-61 113l329 240zM620.001 1313l-238 -146l-123 101l351 211l354 -211
l-125 -101z" />
    <glyph glyph-name="uni1EA6" unicode="&#x1ea6;" horiz-adv-x="1536" 
d="M655 1501h342l6 -51l15 -53l422 -1276h116v-121h-569v121h98l-88 285h-530l-92 -285h129v-121h-455v121h123l459 1276l14 57zM840 1743l-236 -146l-125 101l350 213l359 -213l-125 -101zM743 1206l-231 -659h440zM784 2215l330 -240l-62 -113l-352 195z" />
    <glyph glyph-name="uni1EA7" unicode="&#x1ea7;" horiz-adv-x="1144" 
d="M286 1065l102 -29.001l-18 -53c94 54.667 195 82 303 82c44 0 81.333 -4.5 112 -13.5s66.5 -29.5 107.5 -61.5s70 -75.667 87 -131s25.5 -119 25.5 -191v-566h119v-102h-367c-13.333 32.667 -23.666 67.334 -30.999 104.001c-104.667 -96.667 -209 -145 -313 -145l-76 6
c-32.667 4 -72.834 21.333 -120.501 52s-86.5 74 -116.5 130c-20.667 44 -31 91.333 -31 142c0 72 22.5 143.5 67.5 214.5s115.333 118.5 211 142.5s202.167 36 319.5 36h68c0 23.333 -1.16699 45.5 -3.5 66.5s-8.83301 44.5 -19.5 70.5c-12 40 -36.667 66.667 -74 80
l-67 10c-46.667 0 -95.167 -16.333 -145.5 -49s-97.5 -77 -141.5 -133l-98 31zM411 488.999c-39.333 -36.667 -58.999 -85.001 -58.999 -145.001c0 -18 3 -38.167 9 -60.5s18.833 -45.166 38.5 -68.499s42.5 -41 68.5 -53c20.667 -6.66699 42 -11.667 64 -15
c40.667 0 77.334 11.667 110.001 35c45.333 32.667 73.166 81.167 83.499 145.5s15.5 141.5 15.5 231.5c-116 0 -192.833 -4.5 -230.5 -13.5s-70.834 -27.833 -99.501 -56.5zM574.001 1788l330 -240l-61 -113l-353 195zM620.001 1313l-238 -146l-123 101l351 211l354 -211
l-125 -101z" />
    <glyph glyph-name="uni1EA8" unicode="&#x1ea8;" horiz-adv-x="1536" 
d="M655 1501h342l6 -51l15 -53l422 -1276h116v-121h-569v121h98l-88 285h-530l-92 -285h129v-121h-455v121h123l459 1276l14 57zM840 1743l-236 -146l-125 101l350 213l359 -213l-125 -101zM743 1206l-231 -659h440zM956 2357l104.001 108.001
c45.333 -36 78.5 -72.5 99.5 -109.5s31.5 -74.833 31.5 -113.5c0 -40.667 -10.667 -87.667 -32 -141l-9 -33c-8 -24.667 -12 -44.334 -12 -59.001c0 -10.667 3.33301 -22.667 10 -36l21 -44l-107 -99c-32.667 28.667 -56.834 57.667 -72.501 87s-23.5 57 -23.5 83
c0 28.667 9 64 27 106l14 32c13.333 32.667 20 59.667 20 81c0 45.333 -23.667 91.333 -71 138z" />
    <glyph glyph-name="uni1EA9" unicode="&#x1ea9;" horiz-adv-x="1144" 
d="M286 1065l102 -29.001l-18 -53c94 54.667 195 82 303 82c44 0 81.333 -4.5 112 -13.5s66.5 -29.5 107.5 -61.5s70 -75.667 87 -131s25.5 -119 25.5 -191v-566h119v-102h-367c-13.333 32.667 -23.666 67.334 -30.999 104.001c-104.667 -96.667 -209 -145 -313 -145l-76 6
c-32.667 4 -72.834 21.333 -120.501 52s-86.5 74 -116.5 130c-20.667 44 -31 91.333 -31 142c0 72 22.5 143.5 67.5 214.5s115.333 118.5 211 142.5s202.167 36 319.5 36h68c0 23.333 -1.16699 45.5 -3.5 66.5s-8.83301 44.5 -19.5 70.5c-12 40 -36.667 66.667 -74 80
l-67 10c-46.667 0 -95.167 -16.333 -145.5 -49s-97.5 -77 -141.5 -133l-98 31zM411 488.999c-39.333 -36.667 -58.999 -85.001 -58.999 -145.001c0 -18 3 -38.167 9 -60.5s18.833 -45.166 38.5 -68.499s42.5 -41 68.5 -53c20.667 -6.66699 42 -11.667 64 -15
c40.667 0 77.334 11.667 110.001 35c45.333 32.667 73.166 81.167 83.499 145.5s15.5 141.5 15.5 231.5c-116 0 -192.833 -4.5 -230.5 -13.5s-70.834 -27.833 -99.501 -56.5zM735.001 1927l105.001 108.001c44.667 -36 77.667 -72.5 99 -109.5s32 -74.833 32 -113.5
c0 -40.667 -11 -87.667 -33 -141l-8 -33c-8 -24.667 -12 -44.334 -12 -59.001c0 -10.667 3.33301 -22.667 10 -36l20 -44l-106 -99c-32.667 28.667 -56.834 57.667 -72.501 87s-23.5 57 -23.5 83c0 28.667 8.66699 64 26 106l14 32c14 32.667 21 59.667 21 81
c0 45.333 -24 91.333 -72 138zM620.002 1313l-238 -146l-123 101l351 211l354 -211l-125 -101z" />
    <glyph glyph-name="uni1EAA" unicode="&#x1eaa;" horiz-adv-x="1536" 
d="M655 1501h342l6 -51l15 -53l422 -1276h116v-121h-569v121h98l-88 285h-530l-92 -285h129v-121h-455v121h123l459 1276l14 57zM840 1743l-236 -146l-125 101l350 213l359 -213l-125 -101zM743 1206l-231 -659h440zM1214 2143l123 -104
c-40.667 -45.333 -82.167 -78.5 -124.5 -99.5s-85.5 -31.5 -129.5 -31.5c-46.667 0 -100.667 10.667 -162 32l-37 9c-28.667 8 -51 12 -67 12c-12.667 0 -26.334 -3.33301 -41.001 -10l-51 -21l-113 107c32.667 32.667 65.834 56.834 99.501 72.5
c33.667 15.667 65.5 23.5 95.5 23.5c32.667 0 72.667 -9 120 -27l37 -14c37.333 -14 68 -21 92 -21c52 0 104.667 24 158 72z" />
    <glyph glyph-name="uni1EAB" unicode="&#x1eab;" horiz-adv-x="1144" 
d="M286 1065l102 -29.001l-18 -53c94 54.667 195 82 303 82c44 0 81.333 -4.5 112 -13.5s66.5 -29.5 107.5 -61.5s70 -75.667 87 -131s25.5 -119 25.5 -191v-566h119v-102h-367c-13.333 32.667 -23.666 67.334 -30.999 104.001c-104.667 -96.667 -209 -145 -313 -145l-76 6
c-32.667 4 -72.834 21.333 -120.501 52s-86.5 74 -116.5 130c-20.667 44 -31 91.333 -31 142c0 72 22.5 143.5 67.5 214.5s115.333 118.5 211 142.5s202.167 36 319.5 36h68c0 23.333 -1.16699 45.5 -3.5 66.5s-8.83301 44.5 -19.5 70.5c-12 40 -36.667 66.667 -74 80
l-67 10c-46.667 0 -95.167 -16.333 -145.5 -49s-97.5 -77 -141.5 -133l-98 31zM411 488.999c-39.333 -36.667 -58.999 -85.001 -58.999 -145.001c0 -18 3 -38.167 9 -60.5s18.833 -45.166 38.5 -68.499s42.5 -41 68.5 -53c20.667 -6.66699 42 -11.667 64 -15
c40.667 0 77.334 11.667 110.001 35c45.333 32.667 73.166 81.167 83.499 145.5s15.5 141.5 15.5 231.5c-116 0 -192.833 -4.5 -230.5 -13.5s-70.834 -27.833 -99.501 -56.5zM994.001 1712l122.998 -104.001c-41.333 -45.333 -83.166 -78.5 -125.499 -99.5
s-85.166 -31.5 -128.499 -31.5c-46.667 0 -100.667 10.667 -162 32l-37 9c-28.667 8 -51.334 12 -68.001 12c-12 0 -25.667 -3.33301 -41 -10l-51 -21l-112 107c32.667 32.667 65.667 56.834 99 72.501s65 23.5 95 23.5c32.667 0 73 -9 121 -27l37 -14
c36.667 -14 67.334 -21 92.001 -21c52 0 104.667 24 158 72zM619.999 1313l-238 -146l-123 101l351 211l354 -211l-125 -101z" />
    <glyph glyph-name="uni1EAC" unicode="&#x1eac;" horiz-adv-x="1536" 
d="M655 1501h342l6 -51l15 -53l422 -1276h116v-121h-569v121h98l-88 285h-530l-92 -285h129v-121h-455v121h123l459 1276l14 57zM840 1743l-236 -146l-125 101l350 213l359 -213l-125 -101zM743 1206l-231 -659h440zM690 -126l45.001 6l43 -6
c11.333 -1.33301 23.166 -6.5 35.499 -15.5s23.833 -24.167 34.5 -45.5c6.66699 -16.667 11.334 -37.334 14.001 -62.001c0 -23.333 -5.33301 -43.666 -16 -60.999c-8 -18 -22 -32.167 -42 -42.5s-42.333 -16.833 -67 -19.5c-14.667 0 -36.334 6.33301 -65.001 19
c-23.333 12 -39 33 -47 63l-6 54c0 22.667 5.66699 44 17 64s29.333 35.333 54 46z" />
    <glyph glyph-name="uni1EAD" unicode="&#x1ead;" horiz-adv-x="1144" 
d="M286 1065l102 -29.001l-18 -53c94 54.667 195 82 303 82c44 0 81.333 -4.5 112 -13.5s66.5 -29.5 107.5 -61.5s70 -75.667 87 -131s25.5 -119 25.5 -191v-566h119v-102h-367c-13.333 32.667 -23.666 67.334 -30.999 104.001c-104.667 -96.667 -209 -145 -313 -145l-76 6
c-32.667 4 -72.834 21.333 -120.501 52s-86.5 74 -116.5 130c-20.667 44 -31 91.333 -31 142c0 72 22.5 143.5 67.5 214.5s115.333 118.5 211 142.5s202.167 36 319.5 36h68c0 23.333 -1.16699 45.5 -3.5 66.5s-8.83301 44.5 -19.5 70.5c-12 40 -36.667 66.667 -74 80
l-67 10c-46.667 0 -95.167 -16.333 -145.5 -49s-97.5 -77 -141.5 -133l-98 31zM620 1313l-238 -146l-123 101l351 211l354 -211l-125 -101zM411 488.999c-39.333 -36.667 -58.999 -85.001 -58.999 -145.001c0 -18 3 -38.167 9 -60.5s18.833 -45.166 38.5 -68.499
s42.5 -41 68.5 -53c20.667 -6.66699 42 -11.667 64 -15c40.667 0 77.334 11.667 110.001 35c45.333 32.667 73.166 81.167 83.499 145.5s15.5 141.5 15.5 231.5c-116 0 -192.833 -4.5 -230.5 -13.5s-70.834 -27.833 -99.501 -56.5zM521.001 -126.002l45.002 6l43 -6
c10.667 -1.33301 22.167 -6.5 34.5 -15.5s24.166 -24.167 35.499 -45.5c6.66699 -16.667 11.334 -37.334 14.001 -62.001c0 -23.333 -5.33301 -43.666 -16 -60.999c-8.66699 -18 -22.834 -32.167 -42.501 -42.5s-41.834 -16.833 -66.501 -19.5
c-14.667 0 -36.334 6.33301 -65.001 19c-23.333 12 -39.333 33 -48 63l-6 54c0 22.667 5.83301 44 17.5 64s29.834 35.333 54.501 46z" />
    <glyph glyph-name="uni1EAE" unicode="&#x1eae;" horiz-adv-x="1536" 
d="M653 1501h342l6 -51l15 -53l422 -1276h116v-121h-569v121h98l-88 285h-530l-92 -285h129v-121h-455v121h123l459 1276l14 57zM741 1206l-231 -659h440zM428 1781l44.002 62.998c64.667 -35.333 127.667 -61.833 189 -79.5s121.666 -26.5 180.999 -26.5
c57.333 0 109 6.16699 155 18.5s80 23.166 102 32.499c13.333 5.33301 26.666 11.5 39.999 18.5l52 28.5l45 -63c-60 -61.333 -123 -105.666 -189 -132.999s-133.333 -41 -202 -41c-20 0 -39.5 1 -58.5 3s-39.833 5.33301 -62.5 10
c-42.667 8.66699 -91.167 27.334 -145.5 56.001s-104.5 66.334 -150.5 113.001zM1172 1997l-353 -195l-61 113l330 240z" />
    <glyph glyph-name="uni1EAF" unicode="&#x1eaf;" horiz-adv-x="1144" 
d="M286 1065l102 -29.001l-18 -53c94 54.667 195 82 303 82c44 0 81.333 -4.5 112 -13.5s66.5 -29.5 107.5 -61.5s70 -75.667 87 -131s25.5 -119 25.5 -191v-566h119v-102h-367c-13.333 32.667 -23.666 67.334 -30.999 104.001c-104.667 -96.667 -209 -145 -313 -145l-76 6
c-32.667 4 -72.834 21.333 -120.501 52s-86.5 74 -116.5 130c-20.667 44 -31 91.333 -31 142c0 72 22.5 143.5 67.5 214.5s115.333 118.5 211 142.5s202.167 36 319.5 36h68c0 23.333 -1.16699 45.5 -3.5 66.5s-8.83301 44.5 -19.5 70.5c-12 40 -36.667 66.667 -74 80
l-67 10c-46.667 0 -95.167 -16.333 -145.5 -49s-97.5 -77 -141.5 -133l-98 31zM411 488.999c-39.333 -36.667 -58.999 -85.001 -58.999 -145.001c0 -18 3 -38.167 9 -60.5s18.833 -45.166 38.5 -68.499s42.5 -41 68.5 -53c20.667 -6.66699 42 -11.667 64 -15
c40.667 0 77.334 11.667 110.001 35c45.333 32.667 73.166 81.167 83.499 145.5s15.5 141.5 15.5 231.5c-116 0 -192.833 -4.5 -230.5 -13.5s-70.834 -27.833 -99.501 -56.5zM270.001 1341l41.002 62.998c58.667 -35.333 116 -61.833 172 -79.5s111 -26.5 165 -26.5
c52 0 99.167 6.16699 141.5 18.5s73.166 23.166 92.499 32.499c12.667 5.33301 25.167 11.5 37.5 18.5s28.166 16.5 47.499 28.5l40 -63c-54.667 -61.333 -112 -105.666 -172 -132.999s-121.333 -41 -184 -41c-18.667 0 -36.5 1 -53.5 3s-36.167 5.33301 -57.5 10
c-38.667 8.66699 -82.667 27.334 -132 56.001s-95.333 66.334 -138 113.001zM1005 1573l-352 -195l-61 111l329 242z" />
    <glyph glyph-name="uni1EB0" unicode="&#x1eb0;" horiz-adv-x="1536" 
d="M653 1501h342l6 -51l15 -53l422 -1276h116v-121h-569v121h98l-88 285h-530l-92 -285h129v-121h-455v121h123l459 1276l14 57zM741 1206l-231 -659h440zM428 1781l44.002 62.998c64.667 -35.333 127.667 -61.833 189 -79.5s121.666 -26.5 180.999 -26.5
c57.333 0 109 6.16699 155 18.5s80 23.166 102 32.499c13.333 5.33301 26.666 11.5 39.999 18.5l52 28.5l45 -63c-60 -61.333 -123 -105.666 -189 -132.999s-133.333 -41 -202 -41c-20 0 -39.5 1 -58.5 3s-39.833 5.33301 -62.5 10
c-42.667 8.66699 -91.167 27.334 -145.5 56.001s-104.5 66.334 -150.5 113.001zM601.002 2155l330 -240l-62 -113l-352 195z" />
    <glyph glyph-name="uni1EB1" unicode="&#x1eb1;" horiz-adv-x="1144" 
d="M286 1065l102 -29.001l-18 -53c94 54.667 195 82 303 82c44 0 81.333 -4.5 112 -13.5s66.5 -29.5 107.5 -61.5s70 -75.667 87 -131s25.5 -119 25.5 -191v-566h119v-102h-367c-13.333 32.667 -23.666 67.334 -30.999 104.001c-104.667 -96.667 -209 -145 -313 -145l-76 6
c-32.667 4 -72.834 21.333 -120.501 52s-86.5 74 -116.5 130c-20.667 44 -31 91.333 -31 142c0 72 22.5 143.5 67.5 214.5s115.333 118.5 211 142.5s202.167 36 319.5 36h68c0 23.333 -1.16699 45.5 -3.5 66.5s-8.83301 44.5 -19.5 70.5c-12 40 -36.667 66.667 -74 80
l-67 10c-46.667 0 -95.167 -16.333 -145.5 -49s-97.5 -77 -141.5 -133l-98 31zM411 488.999c-39.333 -36.667 -58.999 -85.001 -58.999 -145.001c0 -18 3 -38.167 9 -60.5s18.833 -45.166 38.5 -68.499s42.5 -41 68.5 -53c20.667 -6.66699 42 -11.667 64 -15
c40.667 0 77.334 11.667 110.001 35c45.333 32.667 73.166 81.167 83.499 145.5s15.5 141.5 15.5 231.5c-116 0 -192.833 -4.5 -230.5 -13.5s-70.834 -27.833 -99.501 -56.5zM270.001 1341l41.002 62.998c58.667 -35.333 116 -61.833 172 -79.5s111 -26.5 165 -26.5
c52 0 99.167 6.16699 141.5 18.5s73.166 23.166 92.499 32.499c12.667 5.33301 25.167 11.5 37.5 18.5s28.166 16.5 47.499 28.5l40 -63c-54.667 -61.333 -112 -105.666 -172 -132.999s-121.333 -41 -184 -41c-18.667 0 -36.5 1 -53.5 3s-36.167 5.33301 -57.5 10
c-38.667 8.66699 -82.667 27.334 -132 56.001s-95.333 66.334 -138 113.001zM422.003 1711l330 -242l-59 -111l-355 195z" />
    <glyph glyph-name="uni1EB2" unicode="&#x1eb2;" horiz-adv-x="1536" 
d="M653 1501h342l6 -51l15 -53l422 -1276h116v-121h-569v121h98l-88 285h-530l-92 -285h129v-121h-455v121h123l459 1276l14 57zM741 1206l-231 -659h440zM428 1781l44.002 62.998c64.667 -35.333 127.667 -61.833 189 -79.5s121.666 -26.5 180.999 -26.5
c57.333 0 109 6.16699 155 18.5s80 23.166 102 32.499c13.333 5.33301 26.666 11.5 39.999 18.5l52 28.5l45 -63c-60 -61.333 -123 -105.666 -189 -132.999s-133.333 -41 -202 -41c-20 0 -39.5 1 -58.5 3s-39.833 5.33301 -62.5 10
c-42.667 8.66699 -91.167 27.334 -145.5 56.001s-104.5 66.334 -150.5 113.001zM750.002 2340l104.001 108.001c45.333 -36 78.5 -72.5 99.5 -109.5s31.5 -74.833 31.5 -113.5c0 -40.667 -10.667 -87.667 -32 -141l-9 -33c-8 -24.667 -12 -44.334 -12 -59.001
c0 -10.667 3.33301 -22.667 10 -36l21 -44l-107 -99c-32.667 28.667 -56.834 57.667 -72.501 87s-23.5 57 -23.5 83c0 28.667 9 64 27 106l14 32c13.333 32.667 20 59.667 20 81c0 45.333 -23.667 91.333 -71 138z" />
    <glyph glyph-name="uni1EB3" unicode="&#x1eb3;" horiz-adv-x="1144" 
d="M286 1065l102 -29.001l-18 -53c94 54.667 195 82 303 82c44 0 81.333 -4.5 112 -13.5s66.5 -29.5 107.5 -61.5s70 -75.667 87 -131s25.5 -119 25.5 -191v-566h119v-102h-367c-13.333 32.667 -23.666 67.334 -30.999 104.001c-104.667 -96.667 -209 -145 -313 -145l-76 6
c-32.667 4 -72.834 21.333 -120.501 52s-86.5 74 -116.5 130c-20.667 44 -31 91.333 -31 142c0 72 22.5 143.5 67.5 214.5s115.333 118.5 211 142.5s202.167 36 319.5 36h68c0 23.333 -1.16699 45.5 -3.5 66.5s-8.83301 44.5 -19.5 70.5c-12 40 -36.667 66.667 -74 80
l-67 10c-46.667 0 -95.167 -16.333 -145.5 -49s-97.5 -77 -141.5 -133l-98 31zM411 488.999c-39.333 -36.667 -58.999 -85.001 -58.999 -145.001c0 -18 3 -38.167 9 -60.5s18.833 -45.166 38.5 -68.499s42.5 -41 68.5 -53c20.667 -6.66699 42 -11.667 64 -15
c40.667 0 77.334 11.667 110.001 35c45.333 32.667 73.166 81.167 83.499 145.5s15.5 141.5 15.5 231.5c-116 0 -192.833 -4.5 -230.5 -13.5s-70.834 -27.833 -99.501 -56.5zM270.001 1341l41.002 62.998c58.667 -35.333 116 -61.833 172 -79.5s111 -26.5 165 -26.5
c52 0 99.167 6.16699 141.5 18.5s73.166 23.166 92.499 32.499c12.667 5.33301 25.167 11.5 37.5 18.5s28.166 16.5 47.499 28.5l40 -63c-54.667 -61.333 -112 -105.666 -172 -132.999s-121.333 -41 -184 -41c-18.667 0 -36.5 1 -53.5 3s-36.167 5.33301 -57.5 10
c-38.667 8.66699 -82.667 27.334 -132 56.001s-95.333 66.334 -138 113.001zM602.003 1877l105.001 108.001c44.667 -36 77.667 -72.5 99 -109.5s32 -74.833 32 -113.5c0 -40.667 -11 -87.667 -33 -141l-8 -33c-8 -24.667 -12 -44.334 -12 -59.001
c0 -10.667 3.33301 -22.667 10 -36l20 -44l-106 -99c-32.667 28.667 -56.834 57.667 -72.501 87s-23.5 57 -23.5 83c0 28.667 8.66699 64 26 106l14 32c14 32.667 21 59.667 21 81c0 45.333 -24 91.333 -72 138z" />
    <glyph glyph-name="uni1EB4" unicode="&#x1eb4;" horiz-adv-x="1536" 
d="M653 1501h342l6 -51l15 -53l422 -1276h116v-121h-569v121h98l-88 285h-530l-92 -285h129v-121h-455v121h123l459 1276l14 57zM741 1206l-231 -659h440zM428 1781l44.002 62.998c64.667 -35.333 127.667 -61.833 189 -79.5s121.666 -26.5 180.999 -26.5
c57.333 0 109 6.16699 155 18.5s80 23.166 102 32.499c13.333 5.33301 26.666 11.5 39.999 18.5l52 28.5l45 -63c-60 -61.333 -123 -105.666 -189 -132.999s-133.333 -41 -202 -41c-20 0 -39.5 1 -58.5 3s-39.833 5.33301 -62.5 10
c-42.667 8.66699 -91.167 27.334 -145.5 56.001s-104.5 66.334 -150.5 113.001zM1151 2076l123 -104.001c-40.667 -45.333 -82.167 -78.5 -124.5 -99.5s-85.5 -31.5 -129.5 -31.5c-46.667 0 -100.667 10.667 -162 32l-37 9c-28.667 8 -51 12 -67 12
c-12.667 0 -26.334 -3.33301 -41.001 -10l-51 -21l-113 107c32.667 32.667 65.834 56.834 99.501 72.501s65.5 23.5 95.5 23.5c32.667 0 72.667 -9 120 -27l37 -14c37.333 -14 68 -21 92 -21c52 0 104.667 24 158 72z" />
    <glyph glyph-name="uni1EB5" unicode="&#x1eb5;" horiz-adv-x="1144" 
d="M286 1065l102 -29.001l-18 -53c94 54.667 195 82 303 82c44 0 81.333 -4.5 112 -13.5s66.5 -29.5 107.5 -61.5s70 -75.667 87 -131s25.5 -119 25.5 -191v-566h119v-102h-367c-13.333 32.667 -23.666 67.334 -30.999 104.001c-104.667 -96.667 -209 -145 -313 -145l-76 6
c-32.667 4 -72.834 21.333 -120.501 52s-86.5 74 -116.5 130c-20.667 44 -31 91.333 -31 142c0 72 22.5 143.5 67.5 214.5s115.333 118.5 211 142.5s202.167 36 319.5 36h68c0 23.333 -1.16699 45.5 -3.5 66.5s-8.83301 44.5 -19.5 70.5c-12 40 -36.667 66.667 -74 80
l-67 10c-46.667 0 -95.167 -16.333 -145.5 -49s-97.5 -77 -141.5 -133l-98 31zM411 488.999c-39.333 -36.667 -58.999 -85.001 -58.999 -145.001c0 -18 3 -38.167 9 -60.5s18.833 -45.166 38.5 -68.499s42.5 -41 68.5 -53c20.667 -6.66699 42 -11.667 64 -15
c40.667 0 77.334 11.667 110.001 35c45.333 32.667 73.166 81.167 83.499 145.5s15.5 141.5 15.5 231.5c-116 0 -192.833 -4.5 -230.5 -13.5s-70.834 -27.833 -99.501 -56.5zM270.001 1341l41.002 62.998c58.667 -35.333 116 -61.833 172 -79.5s111 -26.5 165 -26.5
c52 0 99.167 6.16699 141.5 18.5s73.166 23.166 92.499 32.499c12.667 5.33301 25.167 11.5 37.5 18.5s28.166 16.5 47.499 28.5l40 -63c-54.667 -61.333 -112 -105.666 -172 -132.999s-121.333 -41 -184 -41c-18.667 0 -36.5 1 -53.5 3s-36.167 5.33301 -57.5 10
c-38.667 8.66699 -82.667 27.334 -132 56.001s-95.333 66.334 -138 113.001zM932.003 1649l121 -104c-40.667 -45.333 -81.834 -78.5 -123.501 -99.5s-84.5 -31.5 -128.5 -31.5c-49.333 0 -104.666 11 -165.999 33l-37 10l-61 8c-15.333 0 -33 -4 -53 -12l-43 -17l-113 107
c11.333 10.667 27.5 23.5 48.5 38.5s37.5 26.167 49.5 33.5c30 14.667 62.333 22 97 22l55 -6l66 -19l34 -14c41.333 -13.333 73 -20 95 -20c50 0 103 23.667 159 71z" />
    <glyph glyph-name="uni1EB6" unicode="&#x1eb6;" horiz-adv-x="1536" 
d="M653 1501h342l6 -51l15 -53l422 -1276h116v-121h-569v121h98l-88 285h-530l-92 -285h129v-121h-455v121h123l459 1276l14 57zM741 1206l-231 -659h440zM428 1781l44.002 62.998c64.667 -35.333 127.667 -61.833 189 -79.5s121.666 -26.5 180.999 -26.5
c57.333 0 109 6.16699 155 18.5s80 23.166 102 32.499c13.333 5.33301 26.666 11.5 39.999 18.5l52 28.5l45 -63c-60 -61.333 -123 -105.666 -189 -132.999s-133.333 -41 -202 -41c-20 0 -39.5 1 -58.5 3s-39.833 5.33301 -62.5 10
c-42.667 8.66699 -91.167 27.334 -145.5 56.001s-104.5 66.334 -150.5 113.001zM690.002 -126.002l45.001 6l43 -6c11.333 -1.33301 23.166 -6.5 35.499 -15.5s23.833 -24.167 34.5 -45.5c6.66699 -16.667 11.334 -37.334 14.001 -62.001
c0 -23.333 -5.33301 -43.666 -16 -60.999c-8 -18 -22 -32.167 -42 -42.5s-42.333 -16.833 -67 -19.5c-14.667 0 -36.334 6.33301 -65.001 19c-23.333 12 -39 33 -47 63l-6 54c0 22.667 5.66699 44 17 64s29.333 35.333 54 46z" />
    <glyph glyph-name="uni1EB7" unicode="&#x1eb7;" horiz-adv-x="1144" 
d="M286 1065l102 -29.001l-18 -53c94 54.667 195 82 303 82c44 0 81.333 -4.5 112 -13.5s66.5 -29.5 107.5 -61.5s70 -75.667 87 -131s25.5 -119 25.5 -191v-566h119v-102h-367c-13.333 32.667 -23.666 67.334 -30.999 104.001c-104.667 -96.667 -209 -145 -313 -145l-76 6
c-32.667 4 -72.834 21.333 -120.501 52s-86.5 74 -116.5 130c-20.667 44 -31 91.333 -31 142c0 72 22.5 143.5 67.5 214.5s115.333 118.5 211 142.5s202.167 36 319.5 36h68c0 23.333 -1.16699 45.5 -3.5 66.5s-8.83301 44.5 -19.5 70.5c-12 40 -36.667 66.667 -74 80
l-67 10c-46.667 0 -95.167 -16.333 -145.5 -49s-97.5 -77 -141.5 -133l-98 31zM411 488.999c-39.333 -36.667 -58.999 -85.001 -58.999 -145.001c0 -18 3 -38.167 9 -60.5s18.833 -45.166 38.5 -68.499s42.5 -41 68.5 -53c20.667 -6.66699 42 -11.667 64 -15
c40.667 0 77.334 11.667 110.001 35c45.333 32.667 73.166 81.167 83.499 145.5s15.5 141.5 15.5 231.5c-116 0 -192.833 -4.5 -230.5 -13.5s-70.834 -27.833 -99.501 -56.5zM270.001 1341l41.002 62.998c58.667 -35.333 116 -61.833 172 -79.5s111 -26.5 165 -26.5
c52 0 99.167 6.16699 141.5 18.5s73.166 23.166 92.499 32.499c12.667 5.33301 25.167 11.5 37.5 18.5s28.166 16.5 47.499 28.5l40 -63c-54.667 -61.333 -112 -105.666 -172 -132.999s-121.333 -41 -184 -41c-18.667 0 -36.5 1 -53.5 3s-36.167 5.33301 -57.5 10
c-38.667 8.66699 -82.667 27.334 -132 56.001s-95.333 66.334 -138 113.001zM521.003 -126.004l45.002 6l43 -6c10.667 -1.33301 22.167 -6.5 34.5 -15.5s24.166 -24.167 35.499 -45.5c6.66699 -16.667 11.334 -37.334 14.001 -62.001
c0 -23.333 -5.33301 -43.666 -16 -60.999c-8.66699 -18 -22.834 -32.167 -42.501 -42.5s-41.834 -16.833 -66.501 -19.5c-14.667 0 -36.334 6.33301 -65.001 19c-23.333 12 -39.333 33 -48 63l-6 54c0 22.667 5.83301 44 17.5 64s29.834 35.333 54.501 46z" />
    <glyph glyph-name="uni1EB8" unicode="&#x1eb8;" horiz-adv-x="1200" 
d="M1091 1528l130.998 -295.001l-96 -45c-63.333 92.667 -128.666 150.667 -195.999 174s-167.333 35 -300 35h-100v-445h471v131h125v-421h-125v151h-471v-692h37c156.667 0 271.834 17.333 345.501 52s129.167 75.334 166.5 122.001l65 84l18 37l97 -47l-180 -387l-50 14
l-77 4h-877v121h141v1276h-141v123h866h35h74zM626.998 -126.001l45 6l43 -6c10.667 -1.33301 22.167 -6.5 34.5 -15.5s23.833 -24.167 34.5 -45.5c7.33301 -16.667 12.333 -37.334 15 -62.001c0 -23.333 -5.66699 -43.666 -17 -60.999c-8 -18 -21.833 -32.167 -41.5 -42.5
s-41.834 -16.833 -66.501 -19.5c-15.333 0 -37.333 6.33301 -66 19c-23.333 12 -39 33 -47 63l-6 54c0 22.667 5.83301 44 17.5 64s29.834 35.333 54.501 46z" />
    <glyph glyph-name="uni1EB9" unicode="&#x1eb9;" horiz-adv-x="1099" 
d="M1079 662l-700.999 -267.001c32.667 -74.667 78.5 -133.834 137.5 -177.501s119.167 -65.5 180.5 -65.5c53.333 0 103.166 10.5 149.499 31.5s96.833 60.833 151.5 119.5l84 -70c-68.667 -87.333 -148.334 -154.833 -239.001 -202.5s-179 -71.5 -265 -71.5l-35 2l-90 10
c-23.333 0 -49.666 6.83301 -78.999 20.5s-61 32.834 -95 57.501c-65.333 46.667 -117.333 113.667 -156 201c-18.667 44.667 -32.834 87.167 -42.501 127.5s-14.5 81.833 -14.5 124.5c0 122.667 32.167 229 96.5 319s135.333 153.167 213 189.5s155.5 54.5 233.5 54.5
l100 -8c26 0 52.333 -6.16699 79 -18.5s56.334 -30.166 89.001 -53.499c60 -40.667 103 -89 129 -145l53 -113zM755.001 796.999c-60 86 -124.665 129 -193.998 129c-33.333 0 -64.333 -5.5 -93 -16.5s-53.834 -31.5 -75.501 -61.5s-38.834 -62 -51.501 -96
c-4 -18 -7.33301 -35.833 -10 -53.5s-4 -38.167 -4 -61.5c0 -45.333 4.66699 -84.333 14 -117l455 172l-14 56c-4 16 -13 32.333 -27 49zM521.003 -126.001l45.001 6l43 -6c11.333 -1.33301 23 -6.5 35 -15.5s23.667 -24.167 35 -45.5
c6.66699 -16.667 11.334 -37.334 14.001 -62.001c0 -23.333 -5.33301 -43.666 -16 -60.999c-8.66699 -18 -22.834 -32.167 -42.501 -42.5s-41.834 -16.833 -66.501 -19.5c-14.667 0 -36.334 6.33301 -65.001 19c-23.333 12 -39 33 -47 63l-7 54c0 22.667 5.83301 44 17.5 64
s29.834 35.333 54.501 46z" />
    <glyph glyph-name="uni1EBA" unicode="&#x1eba;" horiz-adv-x="1200" 
d="M1091 1528l130.998 -295.001l-96 -45c-63.333 92.667 -128.666 150.667 -195.999 174s-167.333 35 -300 35h-100v-445h471v131h125v-421h-125v151h-471v-692h37c156.667 0 271.834 17.333 345.501 52s129.167 75.334 166.5 122.001l65 84l18 37l97 -47l-180 -387l-50 14
l-77 4h-877v121h141v1276h-141v123h866h35h74zM622.998 2120l105 108.001c44.667 -36 77.667 -72.5 99 -109.5s32 -74.833 32 -113.5c0 -40.667 -11 -87.667 -33 -141l-8 -33c-8.66699 -24.667 -13 -44.334 -13 -59.001c0 -10.667 3.66699 -22.667 11 -36l20 -44l-106 -99
c-33.333 28.667 -57.833 57.667 -73.5 87s-23.5 57 -23.5 83c0 28.667 9 64 27 106l14 32c14 32.667 21 59.667 21 81c0 45.333 -24 91.333 -72 138z" />
    <glyph glyph-name="uni1EBB" unicode="&#x1ebb;" horiz-adv-x="1099" 
d="M1079 662l-700.999 -267.001c32.667 -74.667 78.5 -133.834 137.5 -177.501s119.167 -65.5 180.5 -65.5c53.333 0 103.166 10.5 149.499 31.5s96.833 60.833 151.5 119.5l84 -70c-68.667 -87.333 -148.334 -154.833 -239.001 -202.5s-179 -71.5 -265 -71.5l-35 2l-90 10
c-23.333 0 -49.666 6.83301 -78.999 20.5s-61 32.834 -95 57.501c-65.333 46.667 -117.333 113.667 -156 201c-18.667 44.667 -32.834 87.167 -42.501 127.5s-14.5 81.833 -14.5 124.5c0 122.667 32.167 229 96.5 319s135.333 153.167 213 189.5s155.5 54.5 233.5 54.5
l100 -8c26 0 52.333 -6.16699 79 -18.5s56.334 -30.166 89.001 -53.499c60 -40.667 103 -89 129 -145l53 -113zM755.001 796.999c-60 86 -124.665 129 -193.998 129c-33.333 0 -64.333 -5.5 -93 -16.5s-53.834 -31.5 -75.501 -61.5s-38.834 -62 -51.501 -96
c-4 -18 -7.33301 -35.833 -10 -53.5s-4 -38.167 -4 -61.5c0 -45.333 4.66699 -84.333 14 -117l455 172l-14 56c-4 16 -13 32.333 -27 49zM665.003 1657l105.001 108.001c44.667 -36 77.667 -72.5 99 -109.5s32 -74.833 32 -113.5c0 -40.667 -11 -87.667 -33 -141l-8 -33
c-8 -24.667 -12 -44.334 -12 -59.001c0 -10.667 3.33301 -22.667 10 -36l20 -44l-106 -99c-32.667 28.667 -56.834 57.667 -72.501 87s-23.5 57 -23.5 83c0 28.667 8.66699 64 26 106l15 32c13.333 32.667 20 59.667 20 81c0 45.333 -24 91.333 -72 138z" />
    <glyph glyph-name="uni1EBC" unicode="&#x1ebc;" horiz-adv-x="1200" 
d="M1091 1528l130.998 -295.001l-96 -45c-63.333 92.667 -128.666 150.667 -195.999 174s-167.333 35 -300 35h-100v-445h471v131h125v-421h-125v151h-471v-692h37c156.667 0 271.834 17.333 345.501 52s129.167 75.334 166.5 122.001l65 84l18 37l97 -47l-180 -387l-50 14
l-77 4h-877v121h141v1276h-141v123h866h35h74zM908.998 1839l122.001 -104.001c-40.667 -45.333 -82.167 -78.5 -124.5 -99.5s-85.5 -31.5 -129.5 -31.5c-46 0 -99.667 10.667 -161 32l-37 9c-28.667 8 -51.334 12 -68.001 12c-12 0 -25.667 -3.33301 -41 -10l-51 -21
l-113 107c33.333 32.667 66.666 56.834 99.999 72.501s65 23.5 95 23.5c32.667 0 73 -9 121 -27l37 -14c36.667 -14 67.334 -21 92.001 -21c52 0 104.667 24 158 72z" />
    <glyph glyph-name="uni1EBD" unicode="&#x1ebd;" horiz-adv-x="1099" 
d="M1079 662l-700.999 -267.001c32.667 -74.667 78.5 -133.834 137.5 -177.501s119.167 -65.5 180.5 -65.5c53.333 0 103.166 10.5 149.499 31.5s96.833 60.833 151.5 119.5l84 -70c-68.667 -87.333 -148.334 -154.833 -239.001 -202.5s-179 -71.5 -265 -71.5l-35 2l-90 10
c-23.333 0 -49.666 6.83301 -78.999 20.5s-61 32.834 -95 57.501c-65.333 46.667 -117.333 113.667 -156 201c-18.667 44.667 -32.834 87.167 -42.501 127.5s-14.5 81.833 -14.5 124.5c0 122.667 32.167 229 96.5 319s135.333 153.167 213 189.5s155.5 54.5 233.5 54.5
l100 -8c26 0 52.333 -6.16699 79 -18.5s56.334 -30.166 89.001 -53.499c60 -40.667 103 -89 129 -145l53 -113zM755.001 796.999c-60 86 -124.665 129 -193.998 129c-33.333 0 -64.333 -5.5 -93 -16.5s-53.834 -31.5 -75.501 -61.5s-38.834 -62 -51.501 -96
c-4 -18 -7.33301 -35.833 -10 -53.5s-4 -38.167 -4 -61.5c0 -45.333 4.66699 -84.333 14 -117l455 172l-14 56c-4 16 -13 32.333 -27 49zM806.003 1380l121.002 -104c-40.667 -45.333 -81.834 -78.5 -123.501 -99.5s-84.5 -31.5 -128.5 -31.5c-48.667 0 -104 11 -166 33
l-36 10l-62 8c-14.667 0 -32.334 -4 -53.001 -12l-43 -17l-113 107c11.333 10.667 27.5 23.5 48.5 38.5s37.833 26.167 50.5 33.5c30 14.667 62 22 96 22l55 -6l66 -19l34 -14c41.333 -13.333 73 -20 95 -20c50 0 103 23.667 159 71z" />
    <glyph glyph-name="uni1EBE" unicode="&#x1ebe;" horiz-adv-x="1200" 
d="M1091 1528l130.998 -295.001l-96 -45c-63.333 92.667 -128.666 150.667 -195.999 174s-167.333 35 -300 35h-100v-445h471v131h125v-421h-125v151h-471v-692h37c156.667 0 271.834 17.333 345.501 52s129.167 75.334 166.5 122.001l65 84l18 37l97 -47l-180 -387l-50 14
l-77 4h-877v121h141v1276h-141v123h866h35h74zM1229 2020l-352 -195l-62 113l330 240zM627.998 1741l-238 -146l-122 101l352 213l354 -213l-125 -101z" />
    <glyph glyph-name="uni1EBF" unicode="&#x1ebf;" horiz-adv-x="1099" 
d="M1079 662l-700.999 -267.001c32.667 -74.667 78.5 -133.834 137.5 -177.501s119.167 -65.5 180.5 -65.5c53.333 0 103.166 10.5 149.499 31.5s96.833 60.833 151.5 119.5l84 -70c-68.667 -87.333 -148.334 -154.833 -239.001 -202.5s-179 -71.5 -265 -71.5l-35 2l-90 10
c-23.333 0 -49.666 6.83301 -78.999 20.5s-61 32.834 -95 57.501c-65.333 46.667 -117.333 113.667 -156 201c-18.667 44.667 -32.834 87.167 -42.501 127.5s-14.5 81.833 -14.5 124.5c0 122.667 32.167 229 96.5 319s135.333 153.167 213 189.5s155.5 54.5 233.5 54.5
l100 -8c26 0 52.333 -6.16699 79 -18.5s56.334 -30.166 89.001 -53.499c60 -40.667 103 -89 129 -145l53 -113zM628.001 1303l-239 -146l-123 100l352 213l354 -213l-125 -100zM755.001 796.999c-60 86 -124.665 129 -193.998 129c-33.333 0 -64.333 -5.5 -93 -16.5
s-53.834 -31.5 -75.501 -61.5s-38.834 -62 -51.501 -96c-4 -18 -7.33301 -35.833 -10 -53.5s-4 -38.167 -4 -61.5c0 -45.333 4.66699 -84.333 14 -117l455 172l-14 56c-4 16 -13 32.333 -27 49zM1229 1590l-352 -195l-61 113l329 240z" />
    <glyph glyph-name="uni1EC0" unicode="&#x1ec0;" horiz-adv-x="1200" 
d="M1091 1528l130.998 -295.001l-96 -45c-63.333 92.667 -128.666 150.667 -195.999 174s-167.333 35 -300 35h-100v-445h471v131h125v-421h-125v151h-471v-692h37c156.667 0 271.834 17.333 345.501 52s129.167 75.334 166.5 122.001l65 84l18 37l97 -47l-180 -387l-50 14
l-77 4h-877v121h141v1276h-141v123h866h35h74zM573.998 2218l330 -240l-61 -113l-353 195zM627.998 1741l-238 -146l-122 101l352 213l354 -213l-125 -101z" />
    <glyph glyph-name="uni1EC1" unicode="&#x1ec1;" horiz-adv-x="1099" 
d="M1079 662l-700.999 -267.001c32.667 -74.667 78.5 -133.834 137.5 -177.501s119.167 -65.5 180.5 -65.5c53.333 0 103.166 10.5 149.499 31.5s96.833 60.833 151.5 119.5l84 -70c-68.667 -87.333 -148.334 -154.833 -239.001 -202.5s-179 -71.5 -265 -71.5l-35 2l-90 10
c-23.333 0 -49.666 6.83301 -78.999 20.5s-61 32.834 -95 57.501c-65.333 46.667 -117.333 113.667 -156 201c-18.667 44.667 -32.834 87.167 -42.501 127.5s-14.5 81.833 -14.5 124.5c0 122.667 32.167 229 96.5 319s135.333 153.167 213 189.5s155.5 54.5 233.5 54.5
l100 -8c26 0 52.333 -6.16699 79 -18.5s56.334 -30.166 89.001 -53.499c60 -40.667 103 -89 129 -145l53 -113zM755.001 796.999c-60 86 -124.665 129 -193.998 129c-33.333 0 -64.333 -5.5 -93 -16.5s-53.834 -31.5 -75.501 -61.5s-38.834 -62 -51.501 -96
c-4 -18 -7.33301 -35.833 -10 -53.5s-4 -38.167 -4 -61.5c0 -45.333 4.66699 -84.333 14 -117l455 172l-14 56c-4 16 -13 32.333 -27 49zM575.003 1788l329 -240l-61 -113l-352 195zM628.003 1303l-239 -146l-123 100l352 213l354 -213l-125 -100z" />
    <glyph glyph-name="uni1EC2" unicode="&#x1ec2;" horiz-adv-x="1200" 
d="M1091 1528l130.998 -295.001l-96 -45c-63.333 92.667 -128.666 150.667 -195.999 174s-167.333 35 -300 35h-100v-445h471v131h125v-421h-125v151h-471v-692h37c156.667 0 271.834 17.333 345.501 52s129.167 75.334 166.5 122.001l65 84l18 37l97 -47l-180 -387l-50 14
l-77 4h-877v121h141v1276h-141v123h866h35h74zM745.998 2357l105 108.001c44.667 -36 77.667 -72.5 99 -109.5s32 -74.833 32 -113.5c0 -40.667 -11 -87.667 -33 -141l-8 -33c-8.66699 -24.667 -13 -44.334 -13 -59.001c0 -10.667 3.66699 -22.667 11 -36l20 -44l-106 -99
c-33.333 28.667 -57.833 57.667 -73.5 87s-23.5 57 -23.5 83c0 28.667 9 64 27 106l14 32c14 32.667 21 59.667 21 81c0 45.333 -24 91.333 -72 138zM627.998 1741l-238 -146l-122 101l352 213l354 -213l-125 -101z" />
    <glyph glyph-name="uni1EC3" unicode="&#x1ec3;" horiz-adv-x="1099" 
d="M1079 662l-700.999 -267.001c32.667 -74.667 78.5 -133.834 137.5 -177.501s119.167 -65.5 180.5 -65.5c53.333 0 103.166 10.5 149.499 31.5s96.833 60.833 151.5 119.5l84 -70c-68.667 -87.333 -148.334 -154.833 -239.001 -202.5s-179 -71.5 -265 -71.5l-35 2l-90 10
c-23.333 0 -49.666 6.83301 -78.999 20.5s-61 32.834 -95 57.501c-65.333 46.667 -117.333 113.667 -156 201c-18.667 44.667 -32.834 87.167 -42.501 127.5s-14.5 81.833 -14.5 124.5c0 122.667 32.167 229 96.5 319s135.333 153.167 213 189.5s155.5 54.5 233.5 54.5
l100 -8c26 0 52.333 -6.16699 79 -18.5s56.334 -30.166 89.001 -53.499c60 -40.667 103 -89 129 -145l53 -113zM628.001 1303l-239 -146l-123 100l352 213l354 -213l-125 -100zM755.001 796.999c-60 86 -124.665 129 -193.998 129c-33.333 0 -64.333 -5.5 -93 -16.5
s-53.834 -31.5 -75.501 -61.5s-38.834 -62 -51.501 -96c-4 -18 -7.33301 -35.833 -10 -53.5s-4 -38.167 -4 -61.5c0 -45.333 4.66699 -84.333 14 -117l455 172l-14 56c-4 16 -13 32.333 -27 49zM735.003 1927l105.001 108.001c44.667 -36 77.667 -72.5 99 -109.5
s32 -74.833 32 -113.5c0 -40.667 -11 -87.667 -33 -141l-8 -33c-8 -24.667 -12 -44.334 -12 -59.001c0 -10.667 3.33301 -22.667 10 -36l20 -44l-106 -99c-32.667 28.667 -56.834 57.667 -72.501 87s-23.5 57 -23.5 83c0 28.667 8.66699 64 26 106l15 32
c13.333 32.667 20 59.667 20 81c0 45.333 -24 91.333 -72 138z" />
    <glyph glyph-name="uni1EC4" unicode="&#x1ec4;" horiz-adv-x="1200" 
d="M1091 1528l130.998 -295.001l-96 -45c-63.333 92.667 -128.666 150.667 -195.999 174s-167.333 35 -300 35h-100v-445h471v131h125v-421h-125v151h-471v-692h37c156.667 0 271.834 17.333 345.501 52s129.167 75.334 166.5 122.001l65 84l18 37l97 -47l-180 -387l-50 14
l-77 4h-877v121h141v1276h-141v123h866h35h74zM1004 2143l122.001 -104.001c-40.667 -45.333 -82.167 -78.5 -124.5 -99.5s-85.5 -31.5 -129.5 -31.5c-46 0 -99.667 10.667 -161 32l-37 9c-28.667 8 -51.334 12 -68.001 12c-12 0 -25.667 -3.33301 -41 -10l-51 -21l-113 107
c33.333 32.667 66.666 56.834 99.999 72.501s65 23.5 95 23.5c32.667 0 73 -9 121 -27l37 -14c36.667 -14 67.334 -21 92.001 -21c52 0 104.667 24 158 72zM627.999 1741l-238 -146l-122 101l352 213l354 -213l-125 -101z" />
    <glyph glyph-name="uni1EC5" unicode="&#x1ec5;" horiz-adv-x="1099" 
d="M1079 662l-700.999 -267.001c32.667 -74.667 78.5 -133.834 137.5 -177.501s119.167 -65.5 180.5 -65.5c53.333 0 103.166 10.5 149.499 31.5s96.833 60.833 151.5 119.5l84 -70c-68.667 -87.333 -148.334 -154.833 -239.001 -202.5s-179 -71.5 -265 -71.5l-35 2l-90 10
c-23.333 0 -49.666 6.83301 -78.999 20.5s-61 32.834 -95 57.501c-65.333 46.667 -117.333 113.667 -156 201c-18.667 44.667 -32.834 87.167 -42.501 127.5s-14.5 81.833 -14.5 124.5c0 122.667 32.167 229 96.5 319s135.333 153.167 213 189.5s155.5 54.5 233.5 54.5
l100 -8c26 0 52.333 -6.16699 79 -18.5s56.334 -30.166 89.001 -53.499c60 -40.667 103 -89 129 -145l53 -113zM628.001 1303l-239 -146l-123 100l352 213l354 -213l-125 -100zM755.001 796.999c-60 86 -124.665 129 -193.998 129c-33.333 0 -64.333 -5.5 -93 -16.5
s-53.834 -31.5 -75.501 -61.5s-38.834 -62 -51.501 -96c-4 -18 -7.33301 -35.833 -10 -53.5s-4 -38.167 -4 -61.5c0 -45.333 4.66699 -84.333 14 -117l455 172l-14 56c-4 16 -13 32.333 -27 49zM994.003 1712l122.998 -104.001
c-41.333 -45.333 -83.166 -78.5 -125.499 -99.5s-85.166 -31.5 -128.499 -31.5c-46.667 0 -100.667 10.667 -162 32l-37 9c-28.667 8 -51.334 12 -68.001 12c-12 0 -25.667 -3.33301 -41 -10l-51 -21l-112 107c32.667 32.667 65.667 56.834 99 72.501s65 23.5 95 23.5
c32.667 0 73 -9 121 -27l37 -14c36.667 -14 67.334 -21 92.001 -21c52 0 104.667 24 158 72z" />
    <glyph glyph-name="uni1EC6" unicode="&#x1ec6;" horiz-adv-x="1200" 
d="M1091 1528l130.998 -295.001l-96 -45c-63.333 92.667 -128.666 150.667 -195.999 174s-167.333 35 -300 35h-100v-445h471v131h125v-421h-125v151h-471v-692h37c156.667 0 271.834 17.333 345.501 52s129.167 75.334 166.5 122.001l65 84l18 37l97 -47l-180 -387l-50 14
l-77 4h-877v121h141v1276h-141v123h866h35h74zM627.998 1741l-238 -146l-122 101l352 213l354 -213l-125 -101zM626.998 -126.001l45 6l43 -6c10.667 -1.33301 22.167 -6.5 34.5 -15.5s23.833 -24.167 34.5 -45.5c7.33301 -16.667 12.333 -37.334 15 -62.001
c0 -23.333 -5.66699 -43.666 -17 -60.999c-8 -18 -21.833 -32.167 -41.5 -42.5s-41.834 -16.833 -66.501 -19.5c-15.333 0 -37.333 6.33301 -66 19c-23.333 12 -39 33 -47 63l-6 54c0 22.667 5.83301 44 17.5 64s29.834 35.333 54.501 46z" />
    <glyph glyph-name="uni1EC7" unicode="&#x1ec7;" horiz-adv-x="1099" 
d="M1079 662l-700.999 -267.001c32.667 -74.667 78.5 -133.834 137.5 -177.501s119.167 -65.5 180.5 -65.5c53.333 0 103.166 10.5 149.499 31.5s96.833 60.833 151.5 119.5l84 -70c-68.667 -87.333 -148.334 -154.833 -239.001 -202.5s-179 -71.5 -265 -71.5l-35 2l-90 10
c-23.333 0 -49.666 6.83301 -78.999 20.5s-61 32.834 -95 57.501c-65.333 46.667 -117.333 113.667 -156 201c-18.667 44.667 -32.834 87.167 -42.501 127.5s-14.5 81.833 -14.5 124.5c0 122.667 32.167 229 96.5 319s135.333 153.167 213 189.5s155.5 54.5 233.5 54.5
l100 -8c26 0 52.333 -6.16699 79 -18.5s56.334 -30.166 89.001 -53.499c60 -40.667 103 -89 129 -145l53 -113zM628.001 1303l-239 -146l-123 100l352 213l354 -213l-125 -100zM755.001 796.999c-60 86 -124.665 129 -193.998 129c-33.333 0 -64.333 -5.5 -93 -16.5
s-53.834 -31.5 -75.501 -61.5s-38.834 -62 -51.501 -96c-4 -18 -7.33301 -35.833 -10 -53.5s-4 -38.167 -4 -61.5c0 -45.333 4.66699 -84.333 14 -117l455 172l-14 56c-4 16 -13 32.333 -27 49zM521.003 -126.001l45.001 6l43 -6c11.333 -1.33301 23 -6.5 35 -15.5
s23.667 -24.167 35 -45.5c6.66699 -16.667 11.334 -37.334 14.001 -62.001c0 -23.333 -5.33301 -43.666 -16 -60.999c-8.66699 -18 -22.834 -32.167 -42.501 -42.5s-41.834 -16.833 -66.501 -19.5c-14.667 0 -36.334 6.33301 -65.001 19c-23.333 12 -39 33 -47 63l-7 54
c0 22.667 5.83301 44 17.5 64s29.834 35.333 54.501 46z" />
    <glyph glyph-name="uni1EC8" unicode="&#x1ec8;" horiz-adv-x="704" 
d="M75 1520h594v-123h-139v-1276h139v-121h-594v121h141v1276h-141v123zM277 2161l105 108.001c44.667 -36 77.667 -72.5 99 -109.5s32 -74.833 32 -113.5c0 -40.667 -11 -87.667 -33 -141l-8 -33c-8.66699 -24.667 -13 -44.334 -13 -59.001
c0 -10.667 3.66699 -22.667 11 -36l20 -44l-106 -99c-33.333 28.667 -57.833 57.667 -73.5 87s-23.5 57 -23.5 83c0 28.667 9 64 27 106l14 32c14 32.667 21 59.667 21 81c0 45.333 -24 91.333 -72 138z" />
    <glyph glyph-name="uni1EC9" unicode="&#x1ec9;" horiz-adv-x="620" 
d="M480 1049l-8 -58l-2 -39v-850h117v-102h-508v102h113v727l-113 -28v121zM246 1657l104.001 108.001c45.333 -36 78.666 -72.5 99.999 -109.5s32 -74.833 32 -113.5c0 -40.667 -11 -87.667 -33 -141l-8 -33c-8.66699 -24.667 -13 -44.334 -13 -59.001
c0 -10.667 3.66699 -22.667 11 -36l20 -44l-106 -99c-33.333 28.667 -57.833 57.667 -73.5 87s-23.5 57 -23.5 83c0 28.667 9 64 27 106l14 32c14 32.667 21 59.667 21 81c0 45.333 -24 91.333 -72 138z" />
    <glyph glyph-name="uni1ECA" unicode="&#x1eca;" horiz-adv-x="704" 
d="M75 1520h594v-123h-139v-1276h139v-121h-594v121h141v1276h-141v123zM322 -126l45.001 6l43 -6c10.667 -1.33301 22.167 -6.5 34.5 -15.5s23.833 -24.167 34.5 -45.5c7.33301 -16.667 12.333 -37.334 15 -62.001c0 -23.333 -5.66699 -43.666 -17 -60.999
c-8 -18 -21.833 -32.167 -41.5 -42.5s-41.834 -16.833 -66.501 -19.5c-15.333 0 -37.333 6.33301 -66 19c-22.667 12 -38.334 33 -47.001 63l-6 54c0 22.667 5.83301 44 17.5 64s29.834 35.333 54.501 46z" />
    <glyph glyph-name="uni1ECB" unicode="&#x1ecb;" horiz-adv-x="620" 
d="M480 1049l-8 -58l-2 -39v-850h117v-102h-508v102h113v727l-113 -28v121zM282 1464l30 3.99902c40 0 76 -14 108 -42s48 -67 48 -117l-6 -64c-4 -31.333 -33.333 -60 -88 -86c-10.667 -4 -19.5 -6.66699 -26.5 -8s-19.5 -2 -37.5 -2l-41 4
c-12 1.33301 -33.667 12.333 -65 33c-14 9.33301 -25 23.5 -33 42.5s-12 42.833 -12 71.5c0 84.667 41 139.334 123 164.001zM269 -126.001l45 6l43 -6c10.667 -1.33301 22.167 -6.5 34.5 -15.5s23.833 -24.167 34.5 -45.5c7.33301 -16.667 12.333 -37.334 15 -62.001
c0 -23.333 -5.66699 -43.666 -17 -60.999c-8 -18 -21.833 -32.167 -41.5 -42.5s-41.834 -16.833 -66.501 -19.5c-15.333 0 -37.333 6.33301 -66 19c-23.333 12 -39 33 -47 63l-6 54c0 22.667 5.83301 44 17.5 64s29.834 35.333 54.501 46z" />
    <glyph glyph-name="uni1ECC" unicode="&#x1ecc;" 
d="M796 1554l117 7.00293c113.333 0 223.833 -20.5 331.5 -61.5s197 -103.833 268 -188.5s123.333 -178.167 157 -280.5s50.5 -202.833 50.5 -301.5c0 -76.667 -14.333 -162.334 -43 -257.001s-89.5 -189.834 -182.5 -285.501s-190.5 -158.5 -292.5 -188.5
c-46.667 -14 -96 -25 -148 -33s-102.333 -12 -151 -12c-108 0 -211.167 14.667 -309.5 44s-188.833 78.5 -271.5 147.5s-146 159.5 -190 271.5c-20 56 -35.5 111.667 -46.5 167s-16.5 110.333 -16.5 165c0 31.333 2 63.666 6 96.999l10 83
c11.333 87.333 51.5 181.5 120.5 282.5s151.167 176.833 246.5 227.5c90 43.333 159.667 72.666 209 87.999c23.333 6.66699 48 12.334 74 17.001zM692 1378c-87.333 -32.667 -152.668 -84.5 -196.001 -155.5s-72.333 -139.167 -87 -204.5c-12 -64 -18 -116 -18 -156
c0 -113.333 20.667 -229.666 62 -348.999s92.833 -207.333 154.5 -264s121.167 -97.334 178.5 -122.001c53.333 -20.667 105.666 -31 156.999 -31c24.667 0 47.334 1.33301 68.001 4s48.667 9 84 19c58.667 16 112.334 49 161.001 99s83.667 105.667 105 167
c19.333 60 31.666 110 36.999 150l8 122c0 101.333 -15.667 201.5 -47 300.5s-75 182.667 -131 251s-118.167 118.5 -186.5 150.5s-133.166 48 -194.499 48h-24l-35 -6l-37 -6zM843.998 -125.997l44.999 6l43 -6c11.333 -1.33301 23 -6.5 35 -15.5s23.667 -24.167 35 -45.5
c6.66699 -16.667 11.334 -37.334 14.001 -62.001c0 -23.333 -5.33301 -43.666 -16 -60.999c-8 -18 -22 -32.167 -42 -42.5s-42.333 -16.833 -67 -19.5c-14.667 0 -36.334 6.33301 -65.001 19c-23.333 12 -39 33 -47 63l-7 54c0 22.667 5.83301 44 17.5 64
s29.834 35.333 54.501 46z" />
    <glyph glyph-name="uni1ECD" unicode="&#x1ecd;" horiz-adv-x="1236" 
d="M560 1061l53.998 4c77.333 0 162.5 -15.667 255.5 -47s166.167 -76.666 219.5 -135.999s90 -120.666 110 -183.999c11.333 -34 19.666 -65 24.999 -93s8 -59.667 8 -95c0 -44 -2.66699 -77.333 -8 -100l-31 -115c-12 -52 -48 -108 -108 -168
c-54.667 -54.667 -123.667 -96.334 -207 -125.001s-155.666 -43 -216.999 -43c-75.333 0 -145.666 10.667 -210.999 32s-128.833 56.166 -190.5 104.499s-109.5 112.166 -143.5 191.499c-30 82 -45 159.667 -45 233l8 105c0 44.667 22.833 105 68.5 181
s107.834 134.333 186.501 175s154 67.334 226 80.001zM353.998 672l-1.99805 -43.002c0 -90 16 -182.5 48 -277.5s68.333 -158.833 109 -191.5c41.333 -30 75.666 -49.333 102.999 -58c31.333 -6.66699 58.666 -10 81.999 -10c35.333 0 67.333 4.66699 96 14
c46 20.667 83 53.834 111 99.501s42 89.834 42 132.501v43c0 45.333 -3.33301 89.5 -10 132.5s-18.334 91.5 -35.001 145.5c-28.667 100 -62.667 165.333 -102 196s-74.166 50.834 -104.499 60.501s-58.166 14.5 -83.499 14.5c-38.667 0 -77.834 -8.5 -117.501 -25.5
s-69.667 -44.333 -90 -82s-35.833 -87.834 -46.5 -150.501zM601 -126.002l45 6l43 -6c11.333 -1.33301 23.166 -6.5 35.499 -15.5s23.833 -24.167 34.5 -45.5c6.66699 -16.667 11.334 -37.334 14.001 -62.001c0 -23.333 -5.33301 -43.666 -16 -60.999
c-8 -18 -22 -32.167 -42 -42.5s-42 -16.833 -66 -19.5c-15.333 0 -37.333 6.33301 -66 19c-23.333 12 -39 33 -47 63l-6 54c0 22.667 5.83301 44 17.5 64s29.5 35.333 53.5 46z" />
    <glyph glyph-name="uni1ECE" unicode="&#x1ece;" 
d="M796 1554l117.002 6.99902c113.333 0 224.166 -20.167 332.499 -60.5s198 -103.166 269 -188.499s123.333 -179.666 157 -282.999s50.5 -204.666 50.5 -303.999c0 -80.667 -14.667 -167.334 -44 -260.001s-90.5 -186.167 -183.5 -280.5s-190.5 -156.5 -292.5 -186.5
c-46.667 -14 -96 -25 -148 -33s-102.333 -12 -151 -12c-108 0 -211.833 14.667 -311.5 44s-189.834 78.5 -270.501 147.5s-143.667 159.5 -189 271.5c-20 57.333 -35.5 113.666 -46.5 168.999s-16.5 111 -16.5 167c0 32.667 2 65.334 6 98.001l10 80
c11.333 86 51.833 180.167 121.5 282.5s149.5 175.666 239.5 219.999s162.333 75.5 217 93.5zM692.002 1378c-87.333 -32.667 -152.667 -84.498 -196 -155.498s-72.333 -139.167 -87 -204.5c-12 -64 -18 -115.333 -18 -154c0 -112 21.833 -228.333 65.5 -349
s95.5 -209 155.5 -265s118 -97 174 -123c53.333 -20.667 105.666 -31 156.999 -31c24.667 0 47.334 1.33301 68.001 4s48.667 9 84 19c58.667 16 113 49.667 163 101s87 116.666 111 195.999c12.667 39.333 22.334 78.5 29.001 117.5s10 79.5 10 121.5
c0 104 -17 206.167 -51 306.5s-78.333 183.666 -133 249.999s-115.834 115.5 -183.501 147.5s-131.5 48 -191.5 48h-24l-39 -8l-53 -6zM1015 2161l104.001 108.001c45.333 -36 78.5 -72.5 99.5 -109.5s31.5 -74.833 31.5 -113.5c0 -40.667 -11 -87.667 -33 -141l-8 -33
c-8 -24.667 -12 -44.334 -12 -59.001c0 -10.667 3.33301 -22.667 10 -36l21 -44l-107 -99c-32.667 28.667 -56.834 57.667 -72.501 87s-23.5 57 -23.5 83c0 28.667 8.66699 64 26 106l15 32c13.333 32.667 20 59.667 20 81c0 45.333 -23.667 91.333 -71 138z" />
    <glyph glyph-name="uni1ECF" unicode="&#x1ecf;" horiz-adv-x="1236" 
d="M560 1061l53.998 4c77.333 0 162.5 -15.667 255.5 -47s166.167 -76.666 219.5 -135.999s90 -120.666 110 -183.999c11.333 -34 19.666 -65 24.999 -93s8 -59.667 8 -95c0 -44 -2.66699 -77.333 -8 -100l-31 -115c-12 -52 -48 -108 -108 -168
c-54.667 -54.667 -123.667 -96.334 -207 -125.001s-155.666 -43 -216.999 -43c-75.333 0 -145.666 10.667 -210.999 32s-128.833 56.166 -190.5 104.499s-109.5 112.166 -143.5 191.499c-30 82 -45 159.667 -45 233l8 105c0 44.667 22.833 105 68.5 181
s107.834 134.333 186.501 175s154 67.334 226 80.001zM353.998 672l-1.99805 -43.002c0 -90 16 -182.5 48 -277.5s68.333 -158.833 109 -191.5c41.333 -30 75.666 -49.333 102.999 -58c31.333 -6.66699 58.666 -10 81.999 -10c35.333 0 67.333 4.66699 96 14
c46 20.667 83 53.834 111 99.501s42 89.834 42 132.501v43c0 45.333 -3.33301 89.5 -10 132.5s-18.334 91.5 -35.001 145.5c-28.667 100 -62.667 165.333 -102 196s-74.166 50.834 -104.499 60.501s-58.166 14.5 -83.499 14.5c-38.667 0 -77.834 -8.5 -117.501 -25.5
s-69.667 -44.333 -90 -82s-35.833 -87.834 -46.5 -150.501zM665 1657l105 108.001c44.667 -36 77.667 -72.5 99 -109.5s32 -74.833 32 -113.5c0 -40.667 -11 -87.667 -33 -141l-8 -33c-8 -24.667 -12 -44.334 -12 -59.001c0 -10.667 3.33301 -22.667 10 -36l20 -44l-106 -99
c-32.667 28.667 -57 57.667 -73 87s-24 57 -24 83c0 28.667 9 64 27 106l14 32c14 32.667 21 59.667 21 81c0 45.333 -24 91.333 -72 138z" />
    <glyph glyph-name="uni1ED0" unicode="&#x1ed0;" 
d="M796 1554l117.002 6.99902c113.333 0 224.166 -20.167 332.499 -60.5s198 -103.166 269 -188.499s123.333 -179.666 157 -282.999s50.5 -204.666 50.5 -303.999c0 -80.667 -14.667 -167.334 -44 -260.001s-90.5 -186.167 -183.5 -280.5s-190.5 -156.5 -292.5 -186.5
c-46.667 -14 -96 -25 -148 -33s-102.333 -12 -151 -12c-108 0 -211.833 14.667 -311.5 44s-189.834 78.5 -270.501 147.5s-143.667 159.5 -189 271.5c-20 57.333 -35.5 113.666 -46.5 168.999s-16.5 111 -16.5 167c0 32.667 2 65.334 6 98.001l10 80
c11.333 86 51.833 180.167 121.5 282.5s149.5 175.666 239.5 219.999s162.333 75.5 217 93.5zM692.002 1378c-87.333 -32.667 -152.667 -84.498 -196 -155.498s-72.333 -139.167 -87 -204.5c-12 -64 -18 -115.333 -18 -154c0 -112 21.833 -228.333 65.5 -349
s95.5 -209 155.5 -265s118 -97 174 -123c53.333 -20.667 105.666 -31 156.999 -31c24.667 0 47.334 1.33301 68.001 4s48.667 9 84 19c58.667 16 113 49.667 163 101s87 116.666 111 195.999c12.667 39.333 22.334 78.5 29.001 117.5s10 79.5 10 121.5
c0 104 -17 206.167 -51 306.5s-78.333 183.666 -133 249.999s-115.834 115.5 -183.501 147.5s-131.5 48 -191.5 48h-24l-39 -8l-53 -6zM1496 2041l-353 -195l-61 113l330 240zM898.001 1765l-237 -143l-123 100l350 211l357 -211l-123 -100z" />
    <glyph glyph-name="uni1ED1" unicode="&#x1ed1;" horiz-adv-x="1236" 
d="M552 1061l53.999 3.99512c77.333 0 162.5 -15.667 255.5 -47s166.167 -76.666 219.5 -135.999s90 -120.666 110 -183.999c11.333 -34 19.666 -65 24.999 -93s8 -59.667 8 -95c0 -44 -2.66699 -77.333 -8 -100l-29 -115c-12 -54.667 -46.667 -110 -104 -166
s-128.333 -99 -213 -129c-42.667 -13.333 -81 -23.5 -115 -30.5s-68 -10.5 -102 -10.5c-75.333 0 -146.166 10.667 -212.499 32s-130.833 56.833 -193.5 106.5s-109.667 118.167 -141 205.5c-14 44 -24.333 86.833 -31 128.5s-10 85.5 -10 131.5
c8 92.667 33.833 175.334 77.5 248.001s104.834 129.334 183.501 170.001s154 67.334 226 80.001zM631.999 1311l-237 -146l-123 101l352 213l354 -213l-125 -101zM345.999 671.995l-1.99512 -43.001c0 -90 16 -181.833 48 -275.5s68.333 -158.167 109 -193.5
c41.333 -30 75.666 -49.333 102.999 -58c31.333 -6.66699 58.666 -10 81.999 -10c35.333 0 67.333 4.66699 96 14c47.333 20.667 82.666 53 105.999 97c24.667 40.667 39 76.667 43 108l6 76c0 88.667 -14.667 180.834 -44 276.501s-64.833 159.834 -106.5 192.501
s-76.834 53.167 -105.501 61.5s-55.667 12.5 -81 12.5c-38.667 0 -77.834 -8.5 -117.501 -25.5s-69.667 -44.333 -90 -82s-35.833 -87.834 -46.5 -150.501zM1229 1589.99l-352 -195l-61 113l329 240z" />
    <glyph glyph-name="uni1ED2" unicode="&#x1ed2;" 
d="M796 1554l117.002 6.99902c113.333 0 224.166 -20.167 332.499 -60.5s198 -103.166 269 -188.499s123.333 -179.666 157 -282.999s50.5 -204.666 50.5 -303.999c0 -80.667 -14.667 -167.334 -44 -260.001s-90.5 -186.167 -183.5 -280.5s-190.5 -156.5 -292.5 -186.5
c-46.667 -14 -96 -25 -148 -33s-102.333 -12 -151 -12c-108 0 -211.833 14.667 -311.5 44s-189.834 78.5 -270.501 147.5s-143.667 159.5 -189 271.5c-20 57.333 -35.5 113.666 -46.5 168.999s-16.5 111 -16.5 167c0 32.667 2 65.334 6 98.001l10 80
c11.333 86 51.833 180.167 121.5 282.5s149.5 175.666 239.5 219.999s162.333 75.5 217 93.5zM692.002 1378c-87.333 -32.667 -152.667 -84.498 -196 -155.498s-72.333 -139.167 -87 -204.5c-12 -64 -18 -115.333 -18 -154c0 -112 21.833 -228.333 65.5 -349
s95.5 -209 155.5 -265s118 -97 174 -123c53.333 -20.667 105.666 -31 156.999 -31c24.667 0 47.334 1.33301 68.001 4s48.667 9 84 19c58.667 16 113 49.667 163 101s87 116.666 111 195.999c12.667 39.333 22.334 78.5 29.001 117.5s10 79.5 10 121.5
c0 104 -17 206.167 -51 306.5s-78.333 183.666 -133 249.999s-115.834 115.5 -183.501 147.5s-131.5 48 -191.5 48h-24l-39 -8l-53 -6zM841.001 2239l329 -240l-61 -113l-352 195zM898.001 1765l-237 -143l-123 100l350 211l357 -211l-123 -100z" />
    <glyph glyph-name="uni1ED3" unicode="&#x1ed3;" horiz-adv-x="1236" 
d="M552 1061l53.999 3.99512c77.333 0 162.5 -15.667 255.5 -47s166.167 -76.666 219.5 -135.999s90 -120.666 110 -183.999c11.333 -34 19.666 -65 24.999 -93s8 -59.667 8 -95c0 -44 -2.66699 -77.333 -8 -100l-29 -115c-12 -54.667 -46.667 -110 -104 -166
s-128.333 -99 -213 -129c-42.667 -13.333 -81 -23.5 -115 -30.5s-68 -10.5 -102 -10.5c-75.333 0 -146.166 10.667 -212.499 32s-130.833 56.833 -193.5 106.5s-109.667 118.167 -141 205.5c-14 44 -24.333 86.833 -31 128.5s-10 85.5 -10 131.5
c8 92.667 33.833 175.334 77.5 248.001s104.834 129.334 183.501 170.001s154 67.334 226 80.001zM631.999 1311l-237 -146l-123 101l352 213l354 -213l-125 -101zM345.999 671.995l-1.99512 -43.001c0 -90 16 -181.833 48 -275.5s68.333 -158.167 109 -193.5
c41.333 -30 75.666 -49.333 102.999 -58c31.333 -6.66699 58.666 -10 81.999 -10c35.333 0 67.333 4.66699 96 14c47.333 20.667 82.666 53 105.999 97c24.667 40.667 39 76.667 43 108l6 76c0 88.667 -14.667 180.834 -44 276.501s-64.833 159.834 -106.5 192.501
s-76.834 53.167 -105.501 61.5s-55.667 12.5 -81 12.5c-38.667 0 -77.834 -8.5 -117.501 -25.5s-69.667 -44.333 -90 -82s-35.833 -87.834 -46.5 -150.501zM575.004 1787.99l329 -240l-61 -113l-352 195z" />
    <glyph glyph-name="uni1ED4" unicode="&#x1ed4;" 
d="M796 1554l117.002 6.99902c113.333 0 224.166 -20.167 332.499 -60.5s198 -103.166 269 -188.499s123.333 -179.666 157 -282.999s50.5 -204.666 50.5 -303.999c0 -80.667 -14.667 -167.334 -44 -260.001s-90.5 -186.167 -183.5 -280.5s-190.5 -156.5 -292.5 -186.5
c-46.667 -14 -96 -25 -148 -33s-102.333 -12 -151 -12c-108 0 -211.833 14.667 -311.5 44s-189.834 78.5 -270.501 147.5s-143.667 159.5 -189 271.5c-20 57.333 -35.5 113.666 -46.5 168.999s-16.5 111 -16.5 167c0 32.667 2 65.334 6 98.001l10 80
c11.333 86 51.833 180.167 121.5 282.5s149.5 175.666 239.5 219.999s162.333 75.5 217 93.5zM692.002 1378c-87.333 -32.667 -152.667 -84.498 -196 -155.498s-72.333 -139.167 -87 -204.5c-12 -64 -18 -115.333 -18 -154c0 -112 21.833 -228.333 65.5 -349
s95.5 -209 155.5 -265s118 -97 174 -123c53.333 -20.667 105.666 -31 156.999 -31c24.667 0 47.334 1.33301 68.001 4s48.667 9 84 19c58.667 16 113 49.667 163 101s87 116.666 111 195.999c12.667 39.333 22.334 78.5 29.001 117.5s10 79.5 10 121.5
c0 104 -17 206.167 -51 306.5s-78.333 183.666 -133 249.999s-115.834 115.5 -183.501 147.5s-131.5 48 -191.5 48h-24l-39 -8l-53 -6zM1012 2378l104.001 108.001c45.333 -36 78.5 -72.5 99.5 -109.5s31.5 -74.833 31.5 -113.5c0 -40.667 -11 -87.667 -33 -141l-8 -33
c-8 -24.667 -12 -44.334 -12 -59.001c0 -10.667 3.33301 -22.667 10 -36l21 -44l-107 -99c-32.667 28.667 -56.834 57.667 -72.501 87s-23.5 57 -23.5 83c0 28.667 8.66699 64 26 106l15 32c13.333 32.667 20 59.667 20 81c0 45.333 -23.667 91.333 -71 138zM898.002 1765
l-237 -143l-123 100l350 211l357 -211l-123 -100z" />
    <glyph glyph-name="uni1ED5" unicode="&#x1ed5;" horiz-adv-x="1236" 
d="M552 1061l53.999 3.99512c77.333 0 162.5 -15.667 255.5 -47s166.167 -76.666 219.5 -135.999s90 -120.666 110 -183.999c11.333 -34 19.666 -65 24.999 -93s8 -59.667 8 -95c0 -44 -2.66699 -77.333 -8 -100l-29 -115c-12 -54.667 -46.667 -110 -104 -166
s-128.333 -99 -213 -129c-42.667 -13.333 -81 -23.5 -115 -30.5s-68 -10.5 -102 -10.5c-75.333 0 -146.166 10.667 -212.499 32s-130.833 56.833 -193.5 106.5s-109.667 118.167 -141 205.5c-14 44 -24.333 86.833 -31 128.5s-10 85.5 -10 131.5
c8 92.667 33.833 175.334 77.5 248.001s104.834 129.334 183.501 170.001s154 67.334 226 80.001zM631.999 1311l-237 -146l-123 101l352 213l354 -213l-125 -101zM345.999 671.995l-1.99512 -43.001c0 -90 16 -181.833 48 -275.5s68.333 -158.167 109 -193.5
c41.333 -30 75.666 -49.333 102.999 -58c31.333 -6.66699 58.666 -10 81.999 -10c35.333 0 67.333 4.66699 96 14c47.333 20.667 82.666 53 105.999 97c24.667 40.667 39 76.667 43 108l6 76c0 88.667 -14.667 180.834 -44 276.501s-64.833 159.834 -106.5 192.501
s-76.834 53.167 -105.501 61.5s-55.667 12.5 -81 12.5c-38.667 0 -77.834 -8.5 -117.501 -25.5s-69.667 -44.333 -90 -82s-35.833 -87.834 -46.5 -150.501zM735.004 1926.99l105.001 108.001c44.667 -36 77.667 -72.5 99 -109.5s32 -74.833 32 -113.5
c0 -40.667 -11 -87.667 -33 -141l-8 -33c-8 -24.667 -12 -44.334 -12 -59.001c0 -10.667 3.33301 -22.667 10 -36l20 -44l-106 -99c-32.667 28.667 -56.834 57.667 -72.501 87s-23.5 57 -23.5 83c0 28.667 8.66699 64 26 106l15 32c13.333 32.667 20 59.667 20 81
c0 45.333 -24 91.333 -72 138z" />
    <glyph glyph-name="uni1ED6" unicode="&#x1ed6;" 
d="M796 1554l117.002 6.99902c113.333 0 224.166 -20.167 332.499 -60.5s198 -103.166 269 -188.499s123.333 -179.666 157 -282.999s50.5 -204.666 50.5 -303.999c0 -80.667 -14.667 -167.334 -44 -260.001s-90.5 -186.167 -183.5 -280.5s-190.5 -156.5 -292.5 -186.5
c-46.667 -14 -96 -25 -148 -33s-102.333 -12 -151 -12c-108 0 -211.833 14.667 -311.5 44s-189.834 78.5 -270.501 147.5s-143.667 159.5 -189 271.5c-20 57.333 -35.5 113.666 -46.5 168.999s-16.5 111 -16.5 167c0 32.667 2 65.334 6 98.001l10 80
c11.333 86 51.833 180.167 121.5 282.5s149.5 175.666 239.5 219.999s162.333 75.5 217 93.5zM692.002 1378c-87.333 -32.667 -152.667 -84.498 -196 -155.498s-72.333 -139.167 -87 -204.5c-12 -64 -18 -115.333 -18 -154c0 -112 21.833 -228.333 65.5 -349
s95.5 -209 155.5 -265s118 -97 174 -123c53.333 -20.667 105.666 -31 156.999 -31c24.667 0 47.334 1.33301 68.001 4s48.667 9 84 19c58.667 16 113 49.667 163 101s87 116.666 111 195.999c12.667 39.333 22.334 78.5 29.001 117.5s10 79.5 10 121.5
c0 104 -17 206.167 -51 306.5s-78.333 183.666 -133 249.999s-115.834 115.5 -183.501 147.5s-131.5 48 -191.5 48h-24l-39 -8l-53 -6zM1269 2164l122.999 -104.001c-41.333 -45.333 -83.166 -78.5 -125.499 -99.5s-85.166 -31.5 -128.499 -31.5
c-46.667 0 -100.667 10.667 -162 32l-37 9c-28.667 8 -51 12 -67 12c-12.667 0 -26.334 -3.33301 -41.001 -10l-51 -21l-113 107c32.667 32.667 65.667 56.834 99 72.501s65 23.5 95 23.5c33.333 0 73.666 -9 120.999 -27l37 -14c36.667 -14 67.334 -21 92.001 -21
c52 0 104.667 24 158 72zM898 1765l-237 -143l-123 100l350 211l357 -211l-123 -100z" />
    <glyph glyph-name="uni1ED7" unicode="&#x1ed7;" horiz-adv-x="1236" 
d="M552 1061l53.999 3.99512c77.333 0 162.5 -15.667 255.5 -47s166.167 -76.666 219.5 -135.999s90 -120.666 110 -183.999c11.333 -34 19.666 -65 24.999 -93s8 -59.667 8 -95c0 -44 -2.66699 -77.333 -8 -100l-29 -115c-12 -54.667 -46.667 -110 -104 -166
s-128.333 -99 -213 -129c-42.667 -13.333 -81 -23.5 -115 -30.5s-68 -10.5 -102 -10.5c-75.333 0 -146.166 10.667 -212.499 32s-130.833 56.833 -193.5 106.5s-109.667 118.167 -141 205.5c-14 44 -24.333 86.833 -31 128.5s-10 85.5 -10 131.5
c8 92.667 33.833 175.334 77.5 248.001s104.834 129.334 183.501 170.001s154 67.334 226 80.001zM631.999 1311l-237 -146l-123 101l352 213l354 -213l-125 -101zM345.999 671.995l-1.99512 -43.001c0 -90 16 -181.833 48 -275.5s68.333 -158.167 109 -193.5
c41.333 -30 75.666 -49.333 102.999 -58c31.333 -6.66699 58.666 -10 81.999 -10c35.333 0 67.333 4.66699 96 14c47.333 20.667 82.666 53 105.999 97c24.667 40.667 39 76.667 43 108l6 76c0 88.667 -14.667 180.834 -44 276.501s-64.833 159.834 -106.5 192.501
s-76.834 53.167 -105.501 61.5s-55.667 12.5 -81 12.5c-38.667 0 -77.834 -8.5 -117.501 -25.5s-69.667 -44.333 -90 -82s-35.833 -87.834 -46.5 -150.501zM994.004 1711.99l122.998 -104.001c-41.333 -45.333 -83.166 -78.5 -125.499 -99.5s-85.166 -31.5 -128.499 -31.5
c-46.667 0 -100.667 10.667 -162 32l-37 9c-28.667 8 -51.334 12 -68.001 12c-12 0 -25.667 -3.33301 -41 -10l-51 -21l-112 107c32.667 32.667 65.667 56.834 99 72.501s65 23.5 95 23.5c32.667 0 73 -9 121 -27l37 -14c36.667 -14 67.334 -21 92.001 -21
c52 0 104.667 24 158 72z" />
    <glyph glyph-name="uni1ED8" unicode="&#x1ed8;" 
d="M796 1554l117.002 6.99902c113.333 0 224.166 -20.167 332.499 -60.5s198 -103.166 269 -188.499s123.333 -179.666 157 -282.999s50.5 -204.666 50.5 -303.999c0 -80.667 -14.667 -167.334 -44 -260.001s-90.5 -186.167 -183.5 -280.5s-190.5 -156.5 -292.5 -186.5
c-46.667 -14 -96 -25 -148 -33s-102.333 -12 -151 -12c-108 0 -211.833 14.667 -311.5 44s-189.834 78.5 -270.501 147.5s-143.667 159.5 -189 271.5c-20 57.333 -35.5 113.666 -46.5 168.999s-16.5 111 -16.5 167c0 32.667 2 65.334 6 98.001l10 80
c11.333 86 51.833 180.167 121.5 282.5s149.5 175.666 239.5 219.999s162.333 75.5 217 93.5zM898.002 1765l-237 -143l-123 100l350 211l357 -211l-123 -100zM692.002 1378c-87.333 -32.667 -152.667 -84.498 -196 -155.498s-72.333 -139.167 -87 -204.5
c-12 -64 -18 -115.333 -18 -154c0 -112 21.833 -228.333 65.5 -349s95.5 -209 155.5 -265s118 -97 174 -123c53.333 -20.667 105.666 -31 156.999 -31c24.667 0 47.334 1.33301 68.001 4s48.667 9 84 19c58.667 16 113 49.667 163 101s87 116.666 111 195.999
c12.667 39.333 22.334 78.5 29.001 117.5s10 79.5 10 121.5c0 104 -17 206.167 -51 306.5s-78.333 183.666 -133 249.999s-115.834 115.5 -183.501 147.5s-131.5 48 -191.5 48h-24l-39 -8l-53 -6zM844.001 -125.999l44.999 6l43 -6c11.333 -1.33301 23 -6.5 35 -15.5
s23.667 -24.167 35 -45.5c6.66699 -16.667 11.334 -37.334 14.001 -62.001c0 -23.333 -5.33301 -43.666 -16 -60.999c-8 -18 -22 -32.167 -42 -42.5s-42.333 -16.833 -67 -19.5c-14.667 0 -36.334 6.33301 -65.001 19c-23.333 12 -39 33 -47 63l-7 54
c0 22.667 5.83301 44 17.5 64s29.834 35.333 54.501 46z" />
    <glyph glyph-name="uni1ED9" unicode="&#x1ed9;" horiz-adv-x="1236" 
d="M552 1061l53.999 3.99512c77.333 0 162.5 -15.667 255.5 -47s166.167 -76.666 219.5 -135.999s90 -120.666 110 -183.999c11.333 -34 19.666 -65 24.999 -93s8 -59.667 8 -95c0 -44 -2.66699 -77.333 -8 -100l-29 -115c-12 -54.667 -46.667 -110 -104 -166
s-128.333 -99 -213 -129c-42.667 -13.333 -81 -23.5 -115 -30.5s-68 -10.5 -102 -10.5c-75.333 0 -146.166 10.667 -212.499 32s-130.833 56.833 -193.5 106.5s-109.667 118.167 -141 205.5c-14 44 -24.333 86.833 -31 128.5s-10 85.5 -10 131.5
c8 92.667 33.833 175.334 77.5 248.001s104.834 129.334 183.501 170.001s154 67.334 226 80.001zM631.999 1311l-237 -146l-123 101l352 213l354 -213l-125 -101zM345.999 671.995l-1.99512 -43.001c0 -90 16 -181.833 48 -275.5s68.333 -158.167 109 -193.5
c41.333 -30 75.666 -49.333 102.999 -58c31.333 -6.66699 58.666 -10 81.999 -10c35.333 0 67.333 4.66699 96 14c47.333 20.667 82.666 53 105.999 97c24.667 40.667 39 76.667 43 108l6 76c0 88.667 -14.667 180.834 -44 276.501s-64.833 159.834 -106.5 192.501
s-76.834 53.167 -105.501 61.5s-55.667 12.5 -81 12.5c-38.667 0 -77.834 -8.5 -117.501 -25.5s-69.667 -44.333 -90 -82s-35.833 -87.834 -46.5 -150.501zM602.004 -126.006l45 6l43 -6c10.667 -1.33301 22.167 -6.5 34.5 -15.5s23.833 -24.167 34.5 -45.5
c7.33301 -16.667 12.333 -37.334 15 -62.001c0 -23.333 -5.66699 -43.666 -17 -60.999c-8 -18 -21.833 -32.167 -41.5 -42.5s-41.834 -16.833 -66.501 -19.5c-15.333 0 -37.333 6.33301 -66 19c-23.333 12 -39 33 -47 63l-6 54c0 22.667 5.83301 44 17.5 64
s29.834 35.333 54.501 46z" />
    <glyph glyph-name="uni1EDA" unicode="&#x1eda;" 
d="M1085 1825l-352 -195l-61 113l329 239zM692 1378c-87.333 -32.667 -152.498 -84.5 -195.498 -155.5s-72.167 -139.167 -87.5 -204.5c-12 -64 -18 -116 -18 -156c0 -113.333 20.833 -229.666 62.5 -348.999s93.167 -207.333 154.5 -264s120.666 -97.334 177.999 -122.001
c53.333 -20.667 106 -31 158 -31c24.667 0 47.167 1.33301 67.5 4s48.166 9 83.499 19c59.333 16 113.166 49 161.499 99s83.5 105.667 105.5 167c18.667 60 31 110 37 150l8 122c0 101.333 -15.667 201.5 -47 300.5s-75 182.667 -131 251s-118.167 118.5 -186.5 150.5
s-133.166 48 -194.499 48h-25l-35 -6l-37 -6zM1557 1255c49.333 -69.333 87.002 -143.997 113.002 -223.997c33.333 -102.667 50 -203.334 50 -302.001c0 -76.667 -14.333 -162.334 -43 -257.001s-89.334 -189.834 -182.001 -285.501s-190.334 -158.5 -293.001 -188.5
c-46.667 -14 -95.834 -25 -147.501 -33s-102.167 -12 -151.5 -12c-108 0 -211.167 14.667 -309.5 44s-188.833 78.5 -271.5 147.5s-145.667 159.5 -189 271.5c-20.667 56 -36.5 111.667 -47.5 167s-16.5 110.333 -16.5 165c0 31.333 2.16699 63.666 6.5 96.999l10.5 83
c10.667 87.333 50.5 181.5 119.5 282.5s151.167 176.833 246.5 227.5c90.667 43.333 160.334 72.666 209.001 87.999c23.333 6.66699 48 12.334 74 17.001l61 11l117 7c113.333 0 224 -20.333 332 -61c76.667 -29.333 144 -69.666 202 -120.999l59 11v98l-2 56l-5 51l244 49
v-86l-49 -14v-262z" />
    <glyph glyph-name="uni1EDB" unicode="&#x1edb;" horiz-adv-x="1247" 
d="M794 1360l-353 -195l-61 111l328 244zM345 672l-1.99609 -43.001c0 -90 16 -181.833 48 -275.5s68.667 -158.167 110 -193.5c40.667 -30 74.667 -49.333 102 -58c31.333 -6.66699 58.666 -10 81.999 -10c35.333 0 67.333 4.66699 96 14c48 20.667 83.667 53 107 97
c24.667 40.667 39 76.667 43 108l6 76c0 88.667 -14.667 180.834 -44 276.501s-64.833 159.834 -106.5 192.501s-76.834 53.167 -105.501 61.5s-56 12.5 -82 12.5c-38 0 -76.833 -8.5 -116.5 -25.5s-69.834 -44.333 -90.501 -82s-36.334 -87.834 -47.001 -150.501z
M1165 760.999c10.667 -20.667 19.332 -41.6699 25.999 -63.0029c10.667 -34 18.834 -65 24.501 -93s8.5 -59.667 8.5 -95c0 -44 -2.66699 -77.333 -8 -100l-29 -115c-12.667 -54.667 -47.667 -110 -105 -166s-128.333 -99 -213 -129c-42 -13.333 -80 -23.5 -114 -30.5
s-68.333 -10.5 -103 -10.5c-74.667 0 -145.167 10.667 -211.5 32s-130.833 56.833 -193.5 106.5s-110 118.167 -142 205.5c-13.333 44 -23.333 86.833 -30 128.5s-10 85.5 -10 131.5c8 92.667 33.833 175.334 77.5 248.001s104.667 129.334 183 170.001
s153.833 67.334 226.5 80.001l53 4c78 0 163.333 -15.667 256 -47c89.333 -30 160.333 -73.333 213 -130l61 12v149l181 39v-86l-49 -14v-206z" />
    <glyph glyph-name="uni1EDC" unicode="&#x1edc;" 
d="M802 1982l328 -239l-61 -113l-353 195zM692 1378c-87.333 -32.667 -152.499 -84.498 -195.499 -155.498s-72.167 -139.167 -87.5 -204.5c-12 -64 -18 -115.333 -18 -154c0 -112 21.833 -228.333 65.5 -349s95.5 -209 155.5 -265s118 -97 174 -123
c53.333 -20.667 106 -31 158 -31c24.667 0 47.167 1.33301 67.5 4s48.166 9 83.499 19c58.667 16 113 49.667 163 101s87.333 116.666 112 195.999c12 39.333 21.5 78.5 28.5 117.5s10.5 79.5 10.5 121.5c0 104 -17.167 206.167 -51.5 306.5s-78.833 183.666 -133.5 249.999
s-115.667 115.5 -183 147.5s-131 48 -191 48h-25l-39 -8l-53 -6zM1560 1254c48.667 -69.333 86.002 -144.332 112.002 -224.999c33.333 -103.333 50 -204.666 50 -303.999c0 -80.667 -14.667 -167.334 -44 -260.001s-90.5 -186.167 -183.5 -280.5
s-190.5 -156.5 -292.5 -186.5c-46.667 -14 -95.834 -25 -147.501 -33s-102.167 -12 -151.5 -12c-108 0 -211.833 14.667 -311.5 44s-189.834 78.5 -270.501 147.5s-143.334 159.5 -188.001 271.5c-20.667 57.333 -36.5 113.666 -47.5 168.999s-16.5 111 -16.5 167
c0 32.667 2.16699 65.334 6.5 98.001l10.5 80c10.667 86 50.834 180.167 120.501 282.5s149.5 175.666 239.5 219.999s162.333 75.5 217 93.5l133 28l117 7c113.333 0 224.333 -20 333 -60c78 -29.333 146.333 -70.333 205 -123l61 12v98l-2 56l-5 51l244 49v-86l-49 -14
v-262z" />
    <glyph glyph-name="uni1EDD" unicode="&#x1edd;" horiz-adv-x="1247" 
d="M505 1513l328 -241l-60 -113l-352 197zM345 672l-1.99609 -43.001c0 -90 16 -181.833 48 -275.5s68.667 -158.167 110 -193.5c40.667 -30 74.667 -49.333 102 -58c31.333 -6.66699 58.666 -10 81.999 -10c35.333 0 67.333 4.66699 96 14c48 20.667 83.667 53 107 97
c24.667 40.667 39 76.667 43 108l6 76c0 88.667 -14.667 180.834 -44 276.501s-64.833 159.834 -106.5 192.501s-76.834 53.167 -105.501 61.5s-56 12.5 -82 12.5c-38 0 -76.833 -8.5 -116.5 -25.5s-69.834 -44.333 -90.501 -82s-36.334 -87.834 -47.001 -150.501z
M1165 760.999c10.667 -20.667 19.332 -41.6699 25.999 -63.0029c10.667 -34 18.834 -65 24.501 -93s8.5 -59.667 8.5 -95c0 -44 -2.66699 -77.333 -8 -100l-29 -115c-12.667 -54.667 -47.667 -110 -105 -166s-128.333 -99 -213 -129c-42 -13.333 -80 -23.5 -114 -30.5
s-68.333 -10.5 -103 -10.5c-74.667 0 -145.167 10.667 -211.5 32s-130.833 56.833 -193.5 106.5s-110 118.167 -142 205.5c-13.333 44 -23.333 86.833 -30 128.5s-10 85.5 -10 131.5c8 92.667 33.833 175.334 77.5 248.001s104.667 129.334 183 170.001
s153.833 67.334 226.5 80.001l53 4c78 0 163.333 -15.667 256 -47c89.333 -30 160.333 -73.333 213 -130l61 12v149l181 39v-86l-49 -14v-206z" />
    <glyph glyph-name="uni1EDE" unicode="&#x1ede;" 
d="M692 1378c-87.333 -32.667 -152.499 -84.498 -195.499 -155.498s-72.167 -139.167 -87.5 -204.5c-12 -64 -18 -115.333 -18 -154c0 -112 21.833 -228.333 65.5 -349s95.5 -209 155.5 -265s118 -97 174 -123c53.333 -20.667 106 -31 158 -31
c24.667 0 47.167 1.33301 67.5 4s48.166 9 83.499 19c58.667 16 113 49.667 163 101s87.333 116.666 112 195.999c12 39.333 21.5 78.5 28.5 117.5s10.5 79.5 10.5 121.5c0 104 -17.167 206.167 -51.5 306.5s-78.833 183.666 -133.5 249.999s-115.667 115.5 -183 147.5
s-131 48 -191 48h-25l-39 -8l-53 -6zM1015 2161l104.001 108.001c45.333 -36 78.5 -72.5 99.5 -109.5s31.5 -74.833 31.5 -113.5c0 -40.667 -10.667 -87.667 -32 -141l-9 -33c-8 -24.667 -12 -44.334 -12 -59.001c0 -10.667 3.33301 -22.667 10 -36l21 -44l-107 -99
c-32.667 28.667 -56.834 57.667 -72.501 87s-23.5 57 -23.5 83c0 28.667 9 64 27 106l14 32c14 32.667 21 59.667 21 81c0 45.333 -24 91.333 -72 138zM1560 1254c48.667 -69.333 86.002 -144.332 112.002 -224.999c33.333 -103.333 50 -204.666 50 -303.999
c0 -80.667 -14.667 -167.334 -44 -260.001s-90.5 -186.167 -183.5 -280.5s-190.5 -156.5 -292.5 -186.5c-46.667 -14 -95.834 -25 -147.501 -33s-102.167 -12 -151.5 -12c-108 0 -211.833 14.667 -311.5 44s-189.834 78.5 -270.501 147.5s-143.334 159.5 -188.001 271.5
c-20.667 57.333 -36.5 113.666 -47.5 168.999s-16.5 111 -16.5 167c0 32.667 2.16699 65.334 6.5 98.001l10.5 80c10.667 86 50.834 180.167 120.501 282.5s149.5 175.666 239.5 219.999s162.333 75.5 217 93.5l133 28l117 7c113.333 0 224.333 -20 333 -60
c78 -29.333 146.333 -70.333 205 -123l61 12v98l-2 56l-5 51l244 49v-86l-49 -14v-262z" />
    <glyph glyph-name="uni1EDF" unicode="&#x1edf;" horiz-adv-x="1247" 
d="M353 672l-1.99805 -43.002c0 -90 16.167 -182.5 48.5 -277.5s68.833 -158.833 109.5 -191.5c40.667 -30 74.667 -49.333 102 -58c31.333 -6.66699 58.666 -10 81.999 -10c36 0 68.333 4.66699 97 14c46 20.667 83 53.834 111 99.501s42 89.834 42 132.501v43
c0 45.333 -3.33301 89.5 -10 132.5s-18.334 91.5 -35.001 145.5c-28.667 100 -62.834 165.333 -102.501 196s-74.5 50.834 -104.5 60.501s-58 14.5 -84 14.5c-38 0 -76.833 -8.5 -116.5 -25.5s-69.667 -44.333 -90 -82s-36.166 -87.834 -47.499 -150.501zM665.002 1657
l104.001 108.001c45.333 -36 78.5 -72.5 99.5 -109.5s31.5 -74.833 31.5 -113.5c0 -40.667 -10.667 -87.667 -32 -141l-9 -33c-8 -24.667 -12 -44.334 -12 -59.001c0 -10.667 3.33301 -22.667 10 -36l21 -44l-107 -99c-32.667 28.667 -56.834 57.667 -72.501 87
s-23.5 57 -23.5 83c0 28.667 9 64 27 106l14 32c14 32.667 21 59.667 21 81c0 45.333 -24 91.333 -72 138zM1172 762.999c10.667 -21.333 19.666 -42.998 26.999 -64.998c11.333 -34 19.666 -65 24.999 -93s8 -59.667 8 -95c0 -44 -2.66699 -77.333 -8 -100l-31 -115
c-12 -52 -48.333 -108 -109 -168c-54 -54.667 -122.667 -96.334 -206 -125.001s-155.666 -43 -216.999 -43c-75.333 0 -145.833 10.667 -211.5 32s-129.167 56.166 -190.5 104.499s-109 112.166 -143 191.499c-30 82 -45 159.667 -45 233l8 105
c0 44.667 22.833 105 68.5 181s107.834 134.333 186.501 175s154 67.334 226 80.001l53 4c78 0 163.667 -15.667 257 -47c88.667 -30 159 -72.667 211 -128l54 10v149l181 39v-86l-49 -14v-206z" />
    <glyph glyph-name="uni1EE0" unicode="&#x1ee0;" 
d="M1126 1870l121.003 -106.999c-40.667 -44.667 -82.167 -77 -124.5 -97s-84.833 -30 -127.5 -30h-45c-14.667 4 -26.834 7.16699 -36.501 9.5l-35 8.5c-13.667 3.33301 -28.834 7.66602 -45.501 12.999l-36 10l-68 11c-20.667 0 -51.334 -10.333 -92.001 -31l-115 104
c65.333 66 130.333 99 195 99c32.667 0 72.667 -9 120 -27l37 -14c41.333 -14 73 -21 95 -21c48.667 0 101 24 157 72zM692.003 1378c-86 -35.333 -152.332 -87.667 -198.999 -157c-40.667 -66 -67.834 -132.333 -81.501 -199s-20.5 -120 -20.5 -160
c0 -113.333 20.833 -229.666 62.5 -348.999s93.167 -207.333 154.5 -264s120.666 -97.334 177.999 -122.001c53.333 -20.667 106 -31 158 -31c24.667 0 47.167 1.33301 67.5 4s48.5 9 84.5 19c58.667 16 112.167 49 160.5 99s83.5 105.667 105.5 167
c18.667 60 31 110 37 150l8 122c0 101.333 -15.667 201.5 -47 300.5s-75 182.667 -131 251s-118.167 118.5 -186.5 150.5s-133.166 48 -194.499 48h-25l-35 -6l-37 -6zM1557 1255c49.333 -69.333 87.001 -143.999 113.001 -223.999c33.333 -102.667 50 -203.334 50 -302.001
c0 -76.667 -14.333 -162.334 -43 -257.001s-89.334 -189.834 -182.001 -285.501s-190.334 -158.5 -293.001 -188.5c-46.667 -14 -95.834 -25 -147.501 -33s-102.167 -12 -151.5 -12c-108 0 -211.167 14.667 -309.5 44s-188.666 78.5 -270.999 147.5
s-145.5 159.5 -189.5 271.5c-20.667 56 -36.5 111.667 -47.5 167s-16.5 110.333 -16.5 165c0 38 5.16699 99 15.5 183s50 177.5 119 280.5s150.333 177.333 244 223s164.834 76.167 213.501 91.5c23.333 6.66699 48 12.334 74 17.001l62 11l116 7
c113.333 0 224 -20.333 332 -61c76.667 -29.333 144 -69.666 202 -120.999l57 11v98l-2 56l-5 51l244 49v-86l-49 -14v-262z" />
    <glyph glyph-name="uni1EE1" unicode="&#x1ee1;" horiz-adv-x="1247" 
d="M857 1380l123 -104c-39.333 -44 -80.833 -76.833 -124.5 -98.5s-87.5 -32.5 -131.5 -32.5c-46.667 0 -100.667 11 -162 33l-37 10l-61 8c-16.667 0 -35 -4 -55 -12l-41 -17l-113 107c10.667 10.667 26.667 23.5 48 38.5s38 26.167 50 33.5c30 14.667 62.333 22 97 22
l55 -6l65 -19l35 -14c37.333 -13.333 68 -20 92 -20c50.667 0 104 23.667 160 71zM345 672l-1.99609 -43.001c0 -90 16 -181.833 48 -275.5s68.667 -158.167 110 -193.5c40.667 -30 74.667 -49.333 102 -58c31.333 -6.66699 58.666 -10 81.999 -10
c35.333 0 67.333 4.66699 96 14c48 20.667 83.667 53 107 97c24.667 40.667 39 76.667 43 108l6 76c0 88.667 -14.667 180.834 -44 276.501s-64.833 159.834 -106.5 192.501s-76.834 53.167 -105.501 61.5s-56 12.5 -82 12.5c-38 0 -76.833 -8.5 -116.5 -25.5
s-69.834 -44.333 -90.501 -82s-36.334 -87.834 -47.001 -150.501zM1165 760.999c10.667 -20.667 19.332 -41.6699 25.999 -63.0029c10.667 -34 18.834 -65 24.501 -93s8.5 -59.667 8.5 -95c0 -44 -2.66699 -77.333 -8 -100l-29 -115c-12.667 -54.667 -47.667 -110 -105 -166
s-128.333 -99 -213 -129c-42 -13.333 -80 -23.5 -114 -30.5s-68.333 -10.5 -103 -10.5c-74.667 0 -145.167 10.667 -211.5 32s-130.833 56.833 -193.5 106.5s-110 118.167 -142 205.5c-13.333 44 -23.333 86.833 -30 128.5s-10 85.5 -10 131.5
c8 92.667 33.833 175.334 77.5 248.001s104.667 129.334 183 170.001s153.833 67.334 226.5 80.001l53 4c78 0 163.333 -15.667 256 -47c89.333 -30 160.333 -73.333 213 -130l61 12v149l181 39v-86l-49 -14v-206z" />
    <glyph glyph-name="uni1EE2" unicode="&#x1ee2;" 
d="M692 1378c-87.333 -32.667 -152.498 -84.5 -195.498 -155.5s-72.167 -139.167 -87.5 -204.5c-12 -64 -18 -116 -18 -156c0 -113.333 20.833 -229.666 62.5 -348.999s93.167 -207.333 154.5 -264s120.666 -97.334 177.999 -122.001c53.333 -20.667 106 -31 158 -31
c24.667 0 47.167 1.33301 67.5 4s48.166 9 83.499 19c59.333 16 113.166 49 161.499 99s83.5 105.667 105.5 167c18.667 60 31 110 37 150l8 122c0 101.333 -15.667 201.5 -47 300.5s-75 182.667 -131 251s-118.167 118.5 -186.5 150.5s-133.166 48 -194.499 48h-25l-35 -6
l-37 -6zM845.002 -126l45 6l43 -6c10.667 -1.33301 22.167 -6.5 34.5 -15.5s23.833 -24.167 34.5 -45.5c7.33301 -16.667 12.333 -37.334 15 -62.001c0 -23.333 -5.66699 -43.666 -17 -60.999c-8 -18 -21.833 -32.167 -41.5 -42.5s-41.834 -16.833 -66.501 -19.5
c-15.333 0 -37.333 6.33301 -66 19c-23.333 12 -39 33 -47 63l-6 54c0 22.667 5.83301 44 17.5 64s29.834 35.333 54.501 46zM1557 1255c49.333 -69.333 87.002 -143.997 113.002 -223.997c33.333 -102.667 50 -203.334 50 -302.001
c0 -76.667 -14.333 -162.334 -43 -257.001s-89.334 -189.834 -182.001 -285.501s-190.334 -158.5 -293.001 -188.5c-46.667 -14 -95.834 -25 -147.501 -33s-102.167 -12 -151.5 -12c-108 0 -211.167 14.667 -309.5 44s-188.833 78.5 -271.5 147.5s-145.667 159.5 -189 271.5
c-20.667 56 -36.5 111.667 -47.5 167s-16.5 110.333 -16.5 165c0 31.333 2.16699 63.666 6.5 96.999l10.5 83c10.667 87.333 50.5 181.5 119.5 282.5s151.167 176.833 246.5 227.5c90.667 43.333 160.334 72.666 209.001 87.999c23.333 6.66699 48 12.334 74 17.001l61 11
l117 7c113.333 0 224 -20.333 332 -61c76.667 -29.333 144 -69.666 202 -120.999l59 11v98l-2 56l-5 51l244 49v-86l-49 -14v-262z" />
    <glyph glyph-name="uni1EE3" unicode="&#x1ee3;" horiz-adv-x="1247" 
d="M353 672l-1.99805 -43.002c0 -90 16.167 -182.5 48.5 -277.5s68.833 -158.833 109.5 -191.5c40.667 -30 74.667 -49.333 102 -58c31.333 -6.66699 58.666 -10 81.999 -10c36 0 68.333 4.66699 97 14c46 20.667 83 53.834 111 99.501s42 89.834 42 132.501v43
c0 45.333 -3.33301 89.5 -10 132.5s-18.334 91.5 -35.001 145.5c-28.667 100 -62.834 165.333 -102.501 196s-74.5 50.834 -104.5 60.501s-58 14.5 -84 14.5c-38 0 -76.833 -8.5 -116.5 -25.5s-69.667 -44.333 -90 -82s-36.166 -87.834 -47.499 -150.501zM601.002 -126.002
l45.001 6l43 -6c11.333 -1.33301 23 -6.5 35 -15.5s23.667 -24.167 35 -45.5c6.66699 -16.667 11.334 -37.334 14.001 -62.001c0 -23.333 -5.33301 -43.666 -16 -60.999c-8.66699 -18 -22.834 -32.167 -42.501 -42.5s-41.834 -16.833 -66.501 -19.5
c-14.667 0 -36.334 6.33301 -65.001 19c-23.333 12 -39 33 -47 63l-7 54c0 22.667 5.83301 44 17.5 64s29.834 35.333 54.501 46zM1172 762.998c10.667 -21.333 19.666 -42.998 26.999 -64.998c11.333 -34 19.666 -65 24.999 -93s8 -59.667 8 -95
c0 -44 -2.66699 -77.333 -8 -100l-31 -115c-12 -52 -48.333 -108 -109 -168c-54 -54.667 -122.667 -96.334 -206 -125.001s-155.666 -43 -216.999 -43c-75.333 0 -145.833 10.667 -211.5 32s-129.167 56.166 -190.5 104.499s-109 112.166 -143 191.499
c-30 82 -45 159.667 -45 233l8 105c0 44.667 22.833 105 68.5 181s107.834 134.333 186.501 175s154 67.334 226 80.001l53 4c78 0 163.667 -15.667 257 -47c88.667 -30 159 -72.667 211 -128l54 10v149l181 39v-86l-49 -14v-206z" />
    <glyph glyph-name="uni1EE4" unicode="&#x1ee4;" horiz-adv-x="1568" 
d="M1423 121l125.001 -0.00195312v-121h-435l-10 57l-6 56c-66.667 -48 -137 -86.333 -211 -115s-145 -43 -213 -43c-75.333 0 -156.333 20.167 -243 60.5s-144 100 -172 179s-42 185.5 -42 319.5v883h-141v123h455v-967c0 -98 7.33301 -175 22 -231
c14 -59.333 46.5 -102.833 97.5 -130.5s107.833 -41.5 170.5 -41.5l86 6c19.333 4 49.166 18.333 89.499 43s69.333 64.834 87 120.501s26.5 125.834 26.5 210.501v867h-141v123h455v-1399zM804.001 -126.002l45.001 6l43 -6c10.667 -1.33301 22.167 -6.5 34.5 -15.5
s24.166 -24.167 35.499 -45.5c6.66699 -16.667 11.334 -37.334 14.001 -62.001c0 -23.333 -5.66699 -43.666 -17 -60.999c-8 -18 -21.833 -32.167 -41.5 -42.5s-41.834 -16.833 -66.501 -19.5c-15.333 0 -37.333 6.33301 -66 19c-22.667 12 -38.334 33 -47.001 63l-6 54
c0 22.667 5.83301 44 17.5 64s29.834 35.333 54.501 46z" />
    <glyph glyph-name="uni1EE5" unicode="&#x1ee5;" horiz-adv-x="1236" 
d="M829 829l-113.001 -28v121l403 127l-6 -45l-2 -52v-850h111v-102h-385l-6 45l-2 57c-63.333 -43.333 -127.333 -78 -192 -104s-123.667 -39 -177 -39c-45.333 0 -92.833 12.333 -142.5 37s-83 61.834 -100 111.501s-25.5 113.5 -25.5 191.5v49v481l-113 -28v121l401 127
l-8 -58l-2 -39v-528c0 -75.333 3.16699 -129.333 9.5 -162s24.5 -60 54.5 -82c30 -18.667 61.333 -28 94 -28l33 4l43 12c14.667 5.33301 35.334 17.166 62.001 35.499s47.667 38.5 63 60.5v565zM600.999 -126l45.001 6l43 -6c11.333 -1.33301 23.166 -6.5 35.499 -15.5
s23.833 -24.167 34.5 -45.5c6.66699 -16.667 11.334 -37.334 14.001 -62.001c0 -23.333 -5.33301 -43.666 -16 -60.999c-8 -18 -22 -32.167 -42 -42.5s-42.333 -16.833 -67 -19.5c-14.667 0 -36.334 6.33301 -65.001 19c-23.333 12 -39 33 -47 63l-6 54
c0 22.667 5.66699 44 17 64s29.333 35.333 54 46z" />
    <glyph glyph-name="uni1EE6" unicode="&#x1ee6;" horiz-adv-x="1568" 
d="M1423 121l125.001 -0.00195312v-121h-435l-10 57l-6 56c-66.667 -48 -137 -86.333 -211 -115s-145 -43 -213 -43c-75.333 0 -156.333 20.167 -243 60.5s-144 100 -172 179s-42 185.5 -42 319.5v883h-141v123h455v-967c0 -98 7.33301 -175 22 -231
c14 -59.333 46.5 -102.833 97.5 -130.5s107.833 -41.5 170.5 -41.5l86 6c19.333 4 49.166 18.333 89.499 43s69.333 64.834 87 120.501s26.5 125.834 26.5 210.501v867h-141v123h455v-1399zM675.001 2161l105 108.001c44.667 -36 77.667 -72.5 99 -109.5
s32 -74.833 32 -113.5c0 -40.667 -11 -87.667 -33 -141l-8 -33c-8.66699 -24.667 -13 -44.334 -13 -59.001c0 -10.667 3.66699 -22.667 11 -36l20 -44l-106 -99c-33.333 28.667 -57.833 57.667 -73.5 87s-23.5 57 -23.5 83c0 28.667 9 64 27 106l14 32
c14 32.667 21 59.667 21 81c0 45.333 -24 91.333 -72 138z" />
    <glyph glyph-name="uni1EE7" unicode="&#x1ee7;" horiz-adv-x="1236" 
d="M829 829l-113.001 -28v121l403 127l-6 -45l-2 -52v-850h111v-102h-385l-6 45l-2 57c-63.333 -43.333 -127.333 -78 -192 -104s-123.667 -39 -177 -39c-45.333 0 -92.833 12.333 -142.5 37s-83 61.834 -100 111.501s-25.5 113.5 -25.5 191.5v49v481l-113 -28v121l401 127
l-8 -58l-2 -39v-528c0 -75.333 3.16699 -129.333 9.5 -162s24.5 -60 54.5 -82c30 -18.667 61.333 -28 94 -28l33 4l43 12c14.667 5.33301 35.334 17.166 62.001 35.499s47.667 38.5 63 60.5v565zM664.999 1657l104.001 108.001c45.333 -36 78.666 -72.5 99.999 -109.5
s32 -74.833 32 -113.5c0 -40.667 -11 -87.667 -33 -141l-8 -33c-8.66699 -24.667 -13 -44.334 -13 -59.001c0 -10.667 3.66699 -22.667 11 -36l20 -44l-106 -99c-33.333 28.667 -57.833 57.667 -73.5 87s-23.5 57 -23.5 83c0 28.667 9 64 27 106l14 32
c14 32.667 21 59.667 21 81c0 45.333 -24 91.333 -72 138z" />
    <glyph glyph-name="uni1EE8" unicode="&#x1ee8;" horiz-adv-x="1568" 
d="M970 1788l-353 -195l-63 113l330 240zM1422 1240l0.00195312 -1119h125v-121h-434l-10 57l-6 56c-67.333 -48 -137.833 -86.333 -211.5 -115s-144.5 -43 -212.5 -43c-75.333 0 -156.333 20.167 -243 60.5s-144 100 -172 179s-42 185.5 -42 319.5v883h-141v123h454v-967
c0 -98 7.66699 -175 23 -231c13.333 -59.333 45.666 -102.833 96.999 -130.5s108.333 -41.5 171 -41.5l86 6c19.333 4 49.166 18.333 89.499 43s69.333 64.834 87 120.501s26.5 125.834 26.5 210.501v867h-141v123h454v-134l23 4v98l-2 56l-5 51l244 49v-86l-49 -14v-262z
" />
    <glyph glyph-name="uni1EE9" unicode="&#x1ee9;" horiz-adv-x="1268" 
d="M828 1354l-352 -197l-59 113l330 241zM1111 746l-0.000976562 -644h111v-102h-385l-7 45l-2 57c-62.667 -43.333 -126.334 -78 -191.001 -104s-123.667 -39 -177 -39c-45.333 0 -92.833 12.333 -142.5 37s-83 61.834 -100 111.501s-25.5 113.5 -25.5 191.5v530l-113 -28
v121l401 127l-8 -58l-2 -39v-528c0 -75.333 3 -129.333 9 -162s24.333 -60 55 -82c30 -18.667 61.333 -28 94 -28l33 4l43 12c14.667 5.33301 35.334 17.166 62.001 35.499s47.334 38.5 62.001 60.5v565l-112 -28v121l403 127l-6 -45l-2 -52v-61l45 9v149l181 39v-86
l-49 -14v-206z" />
    </font>
</defs>
</svg>
